<?xml version="1.0" encoding="UTF-8"?>
<svg width="289.77" height="287.96" version="1.0" viewBox="0 0 289.77128 287.9632" xmlns="http://www.w3.org/2000/svg">
 <g transform="translate(-363.76 -320.55)">
  <path transform="translate(373.76,320.54)" d="m258.56 88.27-63.508 55.676v143.85l63.508-55.676v-143.85z" fill="#783b00"/>
  <path transform="translate(373.76,320.54)" d="m105.31 48.385-95.697 90.529v144.97l185.44 4.0859v-144.97l-89.74-94.615z" fill="#8c4600"/>
  <path d="m383.26 477.84v5.1762l185.98 5.68v-5.1762z" fill-opacity=".19108"/>
  <path d="m434.61 410.99-5.3133 5.0219 97.129 2.8624-5.0562-5.3305-86.757-2.5559z" fill-opacity=".19108"/>
  <path d="m399.48 444.22-5.3136 5.024 165.73 4.902-5.0562-5.3305-155.35-4.5934z" fill-opacity=".19108"/>
  <path d="m383.56 513.02v5.1762l185.67 4.7712v-5.1762z" fill-opacity=".19108"/>
  <path d="m383.56 547.14v5.1762l185.67 4.9227v-5.1762z" fill-opacity=".19108"/>
  <path d="m383.26 581.12v5.1762l185.98 5.2256v-5.1762z" fill-opacity=".19108"/>
  <path d="m569.26 483.9v5.1289l63.551-56.01v-5.1289z" fill-opacity=".19216"/>
  <path d="m569.56 517.71v5.1289l62.641-55.862v-5.1289z" fill-opacity=".19108"/>
  <path d="m568.8 552.28v5.1289l63.096-54.8v-5.1289z" fill-opacity=".19108"/>
  <path d="m570.02 586.39-0.45434 5.2803 62.641-56.767v-5.1289z" fill-opacity=".19108"/>
  <path d="m528.61 607.07-100.6-3.0215 0.01 1.3633 100.59 2.2148v-0.55664z" fill="#786000"/>
  <path d="m528.61 554.94-61.215-2.6226-39.57 23.561 0.18554 28.164 100.6 3.0215z" fill="#371c00"/>
  <path d="m470.15 440.1c-24.264 3.9297-42.844 28.02-42.844 57.648l0.51368 78.133 42.329-23.561h2e-3z" fill="#2a1600"/>
  <path d="m470.15 440.1v112.22l58.455 2.6226v-63.693l-0.29687-8e-3c-3.6144-28.734-24.725-51.204-50.229-51.764-2.7044-0.0596-5.3393 0.20162-7.9293 0.6211z" fill="#412000"/>
  <path d="m478.95 356.89 118.01 123.05 56.561-53.074-100.17-106.32z" fill="#7f6554"/>
  <path d="m383.36 472.82 3.1247 0.0478 94.995-87.558 0.69837-12.962-98.533 95.121z" fill-opacity=".28112"/>
  <path d="m481.77 441.26c-5.4558-0.0818-10.932 0.84768-16.033 2.7656-11.28 4.2377-20.099 12.621-25.992 22.842l30.979-9.7012 15.779-15.568c-1.5702-0.19443-3.1495-0.31415-4.7324-0.33789z" fill="#2b231c"/>
  <path d="m470.2 457.32-30.727 9.4776c-1.0774 1.8433-1.5318 3.3461-2.425 5.3365l33.152-9.6852zm-0.11793 24.147-39.568 12.795c-2e-3 0.23957-0.0137 0.47649-0.0137 0.71679l0.0293 4.4082 39.553-12.791v-5.1289zm0.11993 31.012-39.489 14.867 0.0332 5.1152 39.456-14.853zm-0.23587 25.253-39.066 18.272 0.0352 5.1133 39.03-18.257v-5.1289z" fill-opacity=".19216"/>
  <path d="m363.76 468.45 19.615 0.99383 94.995-87.558 97.699 98.209 21.305-0.0634-118.3-123.11z" fill="#90725d"/>
  <path d="m478.08 439.47c-20.4-0.72508-38.525 14.236-45.762 32.639-4.9854 11.127-5.2677 23.414-4.9424 35.372 0.21305 32.639 0.42611 65.279 0.63918 97.918 2.5212 0.30472 4.8712 0.4357 3.9059-2.7994-0.17414-35.37-0.59092-70.742-0.61149-106.11 0.72721-21.923 13.24-44.504 34.427-52.463 10.203-3.8359 21.898-3.7156 31.951 0.53422-6.0524-3.1175-12.789-4.953-19.608-5.0905z" fill="#653300"/>
  <path d="m470.07 457.54v5.1289h47.485c-1.2305-1.7955-2.5517-3.5035-3.9472-5.1289zm-0.60108 23.877v5.1289l58.1 0.23587c-0.34126-1.7384-0.74817-3.4487-1.2177-5.1289zm0.43557 31.076v5.1289l58.7-0.11794v-5.1289zm-0.28146 25.648v5.1289h58.981v-5.1289z" fill-opacity=".19216"/>
  <path transform="translate(373.76,320.54)" d="m191.79 13.111-71.562 38.66 4.5957 4.166 69.553-40.875zm24.963 27.391-70.395 39.488 4.5957 4.166 68.385-41.703zm24.625 25.471-68.742 40.637 4.5977 4.166 66.729-42.852zm22.088 24.107-61.188 47.176 4.5976 4.166 58.869-49.391z" fill="#6a5445"/>
  <path d="m493.99 372.31-12.055 12.053 1.4241 2.9451 15.226-10.832z" fill="#675448"/>
  <path d="m520.47 400.44-12.385 11.389 3.4139 3.445 13.567-10.666z" fill="#675448"/>
  <path d="m546.53 427.33-12.717 10.723 4.5758 4.2749 12.739-10.832z" fill="#675448"/>
  <path d="m576.34 457.53-11.663 11.862 2.3394 1.8942 13.486-9.7118-4.1624-4.0444z" fill="#675448"/>
  <path d="m461.66 374.13 12.602 11.546-2.5286 2.4264-14.272-10.206z" fill="#675448"/>
  <path d="m434.58 400.22 11.16 11.903-2.2385 1.8212-12.903-9.8338z" fill="#675448"/>
  <path d="m408 425.85 11.546 10.283-2.4073 2.2065-12.629-9.2406z" fill="#675448"/>
  <path d="m378.86 453.88 11.924 8.958-2.4375 2.2458-13.15-7.5852z" fill="#675448"/>
 </g>
</svg>
