<?xml version='1.0' encoding='utf-8'?>
<svg xmlns="http://www.w3.org/2000/svg" version="1.1" id="Ebene_2" x="0px" y="0px" viewBox="0 0 841.9 595.3" style="enable-background:new 0 0 841.9 595.3;"> <style type="text/css"> .st0{fill:url(#SVGID_1_);} .st1{fill:#2D2D2D;} .st2{fill:#0C0C0C;} .st3{fill:#FFFFFF;stroke:#000000;} .st4{fill:#E5E5E5;} .st5{fill:#FFFFFF;} .st6{fill:#100206;} .st7{fill:#C0959E;} .st8{fill:url(#SVGID_2_);} .st9{opacity:0.5;fill:#FFFFFF;} .st10{fill:url(#SVGID_3_);} .st11{fill:#D899AA;} .st12{fill:#6A313E;} .st13{opacity:0.6;fill:#FFFFFF;} .st14{opacity:0.6;fill:#8C7A79;} .st15{fill:#191919;} .st16{opacity:0.2;fill:#8C7A79;} .st17{fill:#0E0709;} </style> <radialGradient id="SVGID_1_" cx="420.9449" cy="297.3058" r="364.6784" gradientUnits="userSpaceOnUse"> <stop offset="0" style="stop-color:#FFFFFF"/> <stop offset="1" style="stop-color:#474747"/> </radialGradient> <rect y="-0.7" class="st0" width="841.9" height="595.9"/> <g> <path class="st1" d="M595,588c-0.8-2.1-1.7-2.1-3.3-3.5c-1.1-0.5-1.4-1.2-1-2.1c2.9-0.5,6.2-0.2,9.2,0c-1.8-1.1-2-3.7-3.1-5.4 c-0.9-1.4-7.8-5.5-6.4-7.4c2.6,0.4,4.7,0.2,7.1,1.4c-0.4-2.5-3.2-5.1-4.8-7.1c-2.6-3.4-4.6-7-3.7-11.4c2.3-0.8,4.7,1.4,7,0.6 c-2.5-5.3-7.6-9.6-9.8-15.3c-1.2-3.1-1.1-7.4-1.2-10.7c-0.1-2.5,0-5.1,0-7.6c-2.7-0.3-5.7-1.5-7.9-2.9c-4.8-3-8.8-7.2-14.9-5.7 c-2.1,0.5-4.1,3.6-5.4,5.1c-3.1,3.6-4.6,7-6.5,11.4c-3.2,7.1-7.6,12.9-13.3,18.1c-3.1,2.8-6.3,5.5-9.7,7.8 c-3.6,2.4-7.5,4.1-11.1,6.4c-6.2,4-11.8,8-12.1,15.9c-0.3,6.8,0.5,13.5,3.1,19.5h88.8c0-0.3,0-0.7,0-1 C596.2,592,595.9,590.3,595,588z M585.2,518.9c0,0.3,0,0.5,0,0.8c0,0,0,0,0,0V518.9z"/> <path class="st1" d="M150.5,481.1c2.7-0.8,8.5-2.5,11.3-1c-3.7,4.8-8.9,8.7-13.3,12.8c-0.7,0.6-5.1,4.4-4.8,6c0.8,4,12.6-2,15.2-1 c0.8,5.5-1.5,9.4-4.6,14c-3.6,5.4-8,10.8-12.5,15.6c2.6,0.6,6.9-1.5,8.9-2.4c5.6-2.4,10.2-6.2,16.4-6.7c0.8,1.8-6.3,9.9-7.3,11.3 c-4.7,6.8-9.1,13.7-11.2,21.9c-2.1,8.1-1.2,16.8-1.9,25.1c0.4-1.8,2.1-1.5,3.4-2.3c1.9,1.8,0.7,9,0.7,11.4c0,3.2,0,6.4,0,9.5h140 c0,0,0,0,0-0.1c0-4.1-0.9-7.9-1-12c-0.1-3.8,0.1-7.2-0.7-11c-0.8-3.8-0.8-7.9-2.2-11.4c-3.7-9.4-10.5-17.2-15.9-25.7 c-1.8-2.8-3.4-5.3-4.4-8.4c-2.2-6.4-5.8-11.2-9.7-16.8c-3.1-4.6-7.4-9-11.7-12.4c-2.5-2-3.7-3.1-5.8-5.4c-2.3-2.5-4.4-2.5-7.3-3.6 c-4.4-1.7-8.2-5.4-11.1-9c-1.6-1.7-2.7-3.7-3.2-5.9c-1.1-2.9-2.4-4.3-3.8-6.8c-1-1.7-2.3-3.2-3.2-4.9c-1.2-2.3-1.5-5-3.4-7 c-1.9-2-4.5-2.3-6.6-3.7c-0.6-0.3-1-0.7-1.1-1.3c-0.9-0.7-2.1-1.2-2.8-1.9c-1.4-1.3-2.1-3.9-3-5.6c-0.6-1.2-1.5-3.2-3-3.4l1,1 c-6.6,0-13.3-0.6-19.7,0.8c-3,0.6-6.2,0.4-8.8,2.5c-1.7,2.2-3.5,4.2-5.5,6c-1.7,1.5-7.3,3.9-6.5,7.2c2.3,1.5,6.2,0.7,8.6,0.4 c3.9-0.5,7.6-1.8,11.6-1.9c1.4,0,2.7,0,4.1,0.1c-5,0.7-10.3,5-13.4,8c-4.6,4.4-8.8,9.4-13.1,14c-3,3.3-5.5,6.3-9.7,7.9 C142.7,485.2,147.3,482.1,150.5,481.1z"/> <path class="st2" d="M617.4,353.6c0,3.4,1.2,5.2,2.8,8.1c-0.3-5-1.2-9.9-2.7-14.7c0,1-0.1,2.1-0.1,3.1 C617.4,351.3,617.4,352.4,617.4,353.6z M611.9,569.7c0.9,1.3,1.9,2.5,2.8,3.8c1.2,1.8,1.9,3.6,3.4,5.4c1.2,1.2,2.2,2.5,3.2,3.9 c0.1,0.1,0.2,0.3,0.3,0.4c-0.4-0.6-0.7-1.1-1-1.7c-0.7-1-1.4-1.9-2.2-2.7c-1.7-2.3-2.6-5.1-4.3-7.4c-1.5-2.1-1.8-4.6-2.7-7 c-1.1-2.9-2.1-5.8-2.9-8.8c0.1,1.6,0.1,3.2,0.2,4.8C609.1,564,609.7,566.7,611.9,569.7z M625.5,587c-1.5-1.1-2.7-2.4-3.9-3.8 c0.3,0.4,0.6,0.9,0.9,1.3C623.2,585.3,624.5,586.4,625.5,587z M605.3,539c0.6,5.6,1.8,11.2,3.3,16.6c0-0.9-0.1-1.8-0.3-2.7 c-0.5-3.1-0.4-6.2-0.7-9.3c-0.4-3.6-0.8-7.9-2.4-11.2c-0.1-0.1-0.1-0.2-0.2-0.3C605,534.4,605,536.7,605.3,539z M674,358.6 c3.1,2.4,7.5,2,11.2,1.6c-2.8-3.3-7.7-4.2-11.1-6.7c-2.9-2.2-6.2-4.1-8.9-6.5c-0.8-0.8-1.6-1.6-2.4-2.4c0.7,1.3,1.3,2.6,2,3.9 C666.9,352.4,670.6,356,674,358.6z M671.4,348c0-0.4,0-0.7,0-1.1C671.3,347.3,671.3,347.7,671.4,348z M580.9,581.8 c0.5,2.4,1.1,5.7,2.7,7.1C583.1,586.2,582,584,580.9,581.8z M645.3,314.3c0.6,3.1,1.7,5.4,3.2,8.1c2.7,5.1,5.2,9.9,8.5,14.6 c1.9,2.7,3.7,5.2,5.9,7.6c-1.1-2.2-2.3-4.4-3.9-6.5c-3.9-4.9-6.7-11.1-8.7-16.9c-1.7-5.1-3.7-9.9-4.9-15.1 c-0.4-1.8-0.5-3.9-0.9-5.8C644.3,305,644.4,309.8,645.3,314.3z M624.2,338.2c-0.2,1.2-1.2,3.5-0.7,4.7c2.2,0.8,3.9-6.1,4-7.3 c0.2-2.8,0.1-5.7-0.3-8.6c-0.4,1.6-1,3.2-1.5,4.8C625.1,334,624.6,336.1,624.2,338.2z M386.9,147.6c-0.4,0.2-0.8,0.5-1.1,0.9 c-0.4,0.4-0.9,0.7-1.4,1.1c0.3-0.1,0.6-0.3,0.9-0.5C385.9,148.7,386.6,148.3,386.9,147.6z M159.7,561.8c-0.1-1.3,0.6-2.6,0.7-3.9 c0.1-1.2,0-2.5,0-3.7c0-0.8,0-1.6,0-2.3C159.8,555.2,159.5,558.5,159.7,561.8z M672.7,145.8c0.7-0.1,1.4,0,2.1,0 c0.5,0,1-0.2,1.5-0.3c0.7-0.2,1.4-0.3,2.2-0.5c1.3-0.3,2.6-0.7,3.8-1.2c2.1-0.9,3.8-2.2,5.9-3.1c2.2-0.9,4.2-2,6.3-3.1 c1.2-0.6,2.5-1.1,3.6-1.7c1.3-0.7,2.9-0.8,4-2c0.2-0.3,0.3-0.5,0.5-0.7V132c-0.8,0.2-1.5,0.4-2.3,0.8c-2.3,1.2-4.6,2.1-6.9,3.2 c-1.1,0.6-2,1.4-3,2c-0.7,0.4-1.6,0.6-2.4,1c-1.3,0.6-2.6,1.1-3.9,1.7c-1.4,0.6-2.6,1.3-4,2c-1.5,0.7-3.3,1.3-4.9,1.6 c-1.6,0.3-3.2,0.7-4.8,0.8c-1.7,0.1-3.3,0.2-5,0.2c-2.1,0-4.3,0-6.4,0h-11c-2.6,0-5.3,0.1-7.9-0.1c-1.2-0.1-2.3-0.2-3.4-0.2 l-0.1,0.1c-16.9-3.8-34.1-7.4-45.1-11.8c-0.4-0.7-0.8-1.4-1.4-1.9c-1.2-0.9-1-1.4,0-2.3c0.7-0.6,2.8-1.6,1.1-2.2 c-1.9-0.6-4.1-0.4-6-0.5c-0.5,0-4.2,0.2-4.3-0.9c-0.1-1.1,3-1.1,3.4-1.9c-0.5-0.2-2-0.1-2.3-0.1c-1.6,0-3.2,0-4.8,0 c-2.1,0-4.4,0.3-6.5,0c0.2-2.3,2.9-2,4.1-3.7c-0.8-0.7-5,1.2-5.4,1.4c-2,0.8-3.9,1.6-5.9,2.4c-0.8,0.6-1.7,0.8-2.7,0.8 c0.1-0.6,0.7-1.1,1.1-1.6c-1.9-0.6-4.5,0.2-6.4,0.4c-1.6,0.1-3.2,0.3-4.8,0.5c-0.7,0.2-1.3,0.3-2,0.3c0.2-0.5,0.8-0.6,1.2-0.9 c0.6-0.5,0.9-1.1,1.6-1.4c0.7-0.1,1.2-0.4,1.8-0.9c0.9-0.9,1.9-1.6,3-2.3c0.8-0.4,1.9-1,2.8-1.1c-1.8,0.1-3.7,0-5.5,0 c-2.3,0-4.2,0.1-6.5,0.7c-1.4,0.3-2.8,0.5-4,1.1c-1.5,0.7-2.9,1.7-4.2,2.6c-1.2,0.9-2.3,1.7-3.6,2.3c-1,0.5-1.9,1-2.8,1.6 c-0.5-0.4,0.6-1,0.2-1.5c-0.2-0.2-2.1,0.2-2,0.2c-1.7,0.2-3.1,0.5-4.7,1.1c-1.4,0.5-2.7,1-4.1,1.4c-1,0.3-2,0.4-3,0.7 c-0.7,0.2-1.4,0.7-2.1,0.9c-2.8,1.1-5.4,2.6-8,4c0.4-1.7,1.5-4,2.9-5.2c1-0.8,1.7-1.7,2.7-2.6c1.5-1.3,2.5-3.1,4.2-4.2 c1.2-0.8,2.5-1.5,3.8-2.2c1.2-0.6,2.1-1.5,3.3-2.3c1.6-1,3.5-1,5.3-1.4c2-0.5,3.8-1.3,5.8-1.7c-1.4,0.3-2.9,0-4.3,0 c-1.9,0-3.8,0.2-5.7,0.4c-1.4,0.2-2.7,0.9-4.1,1.3c-2.3,0.6-4.3,1.3-6.5,2.1c-1.2,0.4-2.4,0.9-3.5,1.5c-0.7,0.3-1.5,0.5-2.3,0.5 c-0.8,0.3-1.4,0.7-2.1,1.2c-1.2,0.7-2.4,1.4-3.7,1.9c-3.1,1.4-5.8,2.6-8.2,5c-2.6,2.6-5,5.7-7.2,8.7c-1.2,1.6-1.8,3.2-2.2,5.2 c-0.1,0.4-0.2,0.9-0.2,1.3c-4.9,2.7-8.4,5.7-9.8,8.9c-8,18-23,23-35,11s-37,8-37,8c-4-4-8.7-6.5-13.7-8.2c1.9-1.1,3.8-2.2,5.7-3.5 c1.6-1.1,3.3-2.3,4.8-3.6c0.4-0.3,1.9-1.4,2.1-2c-2.9,0.7-5.5,2.4-8.5,2.9c-1.5,0.2-2.9,0.1-4.4,0.1c-0.5,0-1.3,0.1-1.9,0 c0.1-0.3,0.3-0.2,0.6-0.2c0.6,0.1,1.1,0,1.6-0.1c1.1-0.3,2.3-1,3.3-1.5c0.5-0.3,1-0.6,1.5-1c0.6-0.5,1.3-1.1,1.9-1.7 c-1.9,1-4.1,1.4-6.2,1.5c-2.6,0-5.3,0-7.9,0c-1.2,0-2.6,0.2-3.8,0c-0.5-0.1-1-0.2-1.5-0.4c-0.5-0.1-1.8-0.5-0.6-0.8 c0.8-0.2,1.7,0.1,2.5,0c0.7-0.1,1.4-0.2,2-0.5c0.9-0.3,1.6-0.8,2.3-1.3c-1.6,0.8-3.4,1.1-5.3,1.2c-1.7,0.1-3.5,0-5.3,0 c-0.5,0.1-0.9,0-1.2-0.2c0.5-0.6,1.6-0.4,2.2-0.6c1-0.4,1.9-1.5,2.6-2.3c0.8-1,1.5-2,2.2-3c1.9-2.9,3.5-5.9,4.7-9.1 c0.5-1.4,1-2.8,1.3-4.2c-0.7,1.5-1.7,2.8-3,3.9c-1.3,1.1-2.9,2.2-4.4,3.1c-0.5,0.4-1.4,1-2.1,0.9c-0.2-0.7,0.7-1.8,1-2.2 c1.1-1.6,2.4-3.1,3.4-4.8c0.9-1.4,1.7-3,2.5-4.5c0.6-1.1,0.9-2,1.2-3.2c0.7-2.8,0.4-5.8,0.4-8.6c0-0.6,0.3-5.6-0.4-5.8 c-0.2,0.6-0.2,1.2-0.4,1.7c-0.3,0.7-0.6,1.4-1,2.1c0,0.1-0.9,2.3-1.4,1.6c0.1-0.4,0.3-0.7,0.5-1c0.2-0.4,0.3-0.9,0.2-1.4 c0-1.3,0-2.6,0-3.9v-4.6c0,1-0.1,2.1-0.4,3.1c0,0.1-0.1,0.2-0.1,0.2c-0.1-34.3-16.7-73.3-26-95c-14.8-34.6-52.1,6-53,17.6 c-0.3,0.5-0.6,0.9-0.9,1.4c-0.8,1.3-2,2.1-3.2,3c-1,0.7-1.8,1-2.6,2c-0.8,1-0.9,1.9-2.2,2.1c-1.4,0.3-2.4-0.4-3.3,1.3 c-0.9,1.8-0.5,3.9-0.8,5.7c-0.1,1-0.5,1.8-0.7,2.8c0.1,1-0.1,2-0.6,2.9c-1.8,1.7-4.4-2.1-6-0.2c-0.6,0.7,0.4,6.7-1.1,5.2 c-1.2,0.9-1.2,3.4-1.5,4.7c-1.1,0.1-1.5-0.7-2.5-0.8c-1.3,1.2-0.6,4.6-0.6,5.9c0.3,1.7,0.2,3.4-0.3,5.1c-1.7,1.2-2.5-3.1-3.7-3.8 c-0.6,1.2-0.2,3-1.1,3.9c-1,0.1-1.3-0.9-2.3-0.7c-1.3,3.6,0.3,8-1.5,11.3c-1.9-0.7-1.4-6.1-3.5-5.7c-1.5,4.5-1.1,9.2-3.3,13.5 c-2.2-0.9-3-2.2-4.3-4.1c-1.6,0.6-1.8,4.3-2.8,5.7c-0.7-0.2-1.3-0.5-2-0.8c-0.8,1,0.1,5.4-2,4.8c-1-0.3-1.3-3.3-2-4.2 c-1.7,0.4-1,4.7-3.6,3.4c-2-1-1.9-4.6-3.3-6.2c-1.5,0.7-2.1,6-2.3,6.9c-0.8,3.5-1,8.2-3.9,10.6c-1.9-1.5-0.8-4.3-2.6-5.9 c-0.8,4-0.1,8.7-0.1,12.7c0-0.2,0-0.4,0-0.6c-0.1,2.1,1.7,7.1,0.2,8.7c-1.3-1.5-3.2-3.7-5-4.6c-0.2,2.6,0.8,6.2-0.1,8.6 c-0.9,0-1.7-1.2-2.4-1.7c-1.2,1.8,1.3,6.3,2.4,7.9c-1.7-2.3-4.3-3.6-7.1-3c-1.1,2.2,5.2,12.3-1.2,9.4c-5.2-2.4-9-7.4-13-11.3 c-0.5-0.5-2.5-3-3.7-2.8c-1,2.5,2.7,7.3,3.8,9.3c2.9,4.8,6,10.1,9.7,14.4c3.4,3.9,7.3,5.7,11.7,8.1c0.3,0.1,0.5,0.3,0.8,0.5 c-3.1,0-6.1,0-9.2,0c-1.6,0-3.6-0.3-5.2,0.1c-0.6,1.8,14.2,5.1,16,6.6c-1.1,0.9-4.9-0.1-6.4,0.1c-0.9,2.1-0.4,5.2,1.7,6.4 c1,0.6,2.7,0.3,2.5,1.9c-1.8,0.8-3.7,1.1-5.7,0.8c-5,0.3-10,0.5-15,1c-2.1,0.2-4.1,0.2-6,1.3c-1.9,1.1-3.4,2.2-5.5,3 c-1.9,0.7-3.8,1.4-5.5,2.5c-2.3,1.5-4.2,3.5-6.5,5c-5.9,3.7-14.3,5.1-16.9,12.5c-0.4,1.9-0.9,3.8-1.5,5.6c-1.3,3.6-3.5,7-5.3,10.4 c-2.3,4.3-3.2,8.6-3.5,13.5c-0.2,2.4-0.1,4.8,0,7.2c-0.1-2.5,0-5.1,0.8-7.6c1.8-5.2,6.5-9.3,9.4-13.9c1.6-2.5,3.6-4.4,5.4-6.8 c2.1-2.8,3.6-5.7,6.2-8.1c2.9-2.6,5.9-5.6,8.9-8c1.5-1.2,2.9-1.2,4.7-1.4c3.3-0.3,6.6-0.7,9.9-0.7c1.1,0,5.2-0.7,6,0.5 c2.2,3.4-5.5,7.5-7.2,8.5c-3.4,2-6.7,4.1-9.9,6.4c-2,1.4-4.6,3.1-6.2,4.9c-2.2,2.5-3.7,5.6-5.3,8.5c-3,5.4-6.9,10.2-9.8,15.6 c-2.1,3.9-5,8-5.5,12.6c-0.5,5.2-0.5,10.3-0.5,15.5c0.3-4.5,1.1-8.8,2.3-13.3c1.4-5.2,2.5-11.2,6.2-15.2c3-3.2,6.5-5.4,10.8-6.3 c2.6-0.3,5.2-0.8,7.8-1.7c2-0.7,4.7-2.6,6.9-1.7c-6.5,4.7-16.6,8.3-19.7,16.5c-1.1,2.9-1.2,7.7-0.7,10.8 c5.6-5.7,10.3-12.5,18.6-14.5c2.6-0.6,5.2-0.5,7.8-0.5c1.1,0,3.1-0.4,4.1,0.1c-5.9,3.9-12.4,6.7-18.1,11.1c-4.7,3.6-8.7,6.3-9,12.4 c-0.2,3.7-1.5,7.1-2,10.7c-0.5,4-0.1,8.3-0.1,12.3c0,2.1,0,4.2,0,6.2c0,4,1.1,6.8,2.8,10.4c2.1,4.1,3.9,8.6,7.2,12 c0.6,0.6,1.4,1.3,2,2.2c-1.3-5.7-0.5-29.3-0.5-32.1c0-9.8-0.3-19.8,7.6-27c1.7-1.5,10.8-6.6,12.1-2.8c0.6,1.7-1.4,4.5-1.8,6.1 c-0.3,1-0.4,2.3-0.6,3.4c-0.9,4.4-2.2,8.8-2.8,13.2c-0.6,4-1.4,7.7-2.7,11.5c-2.3,6.8-4.6,13.8-5,20.9c-0.2,3.2-1.1,6.8-3.2,9.3 c-1.4,1.7-4.2,2.1-6.3,2.5c-4.6,0.8-9.4,1.3-13.5,3.6c-1.4,0.8-2.4,1.8-3.4,3c-2.2,2.7-4.7,5-6.3,8.2c-1.5,3-3.4,6.1-4,9.4 c-0.6,2.8-0.6,5.5-0.9,8.4c0.6-1.5,1.4-3,2.1-4.5c0.5-0.8,0.9-1.7,1.3-2.6c1.2-1.8,2.8-1.4,4.3-2.4c1.3-0.8,3.4-2.7,5.3-2.7 c0.7,1.9-0.5,4.4,0,6.3c0.2,0.8,0.4,1.3,0.8,1.6c-0.1,0-0.1,0-0.2,0c-2.5,0.7-4.6,0.9-6.8,2.2c-3.2,2-6.6,2.7-8.8,6 c-1,1.5-1.8,3-2.9,4.4c-1.3,1.6-3.5,2.9-4.5,4.7c-0.7,1.3-1.9,5.4-1.4,6.7c2.9,0.9,5.3-1.3,7.6-2.7c3.3-2,7-3.3,10.8-3.5 c3.6-0.1,7.3,0.1,10.9,0c2.6,0,5.1-0.2,7.6-0.6c0.9-0.1,2.5-0.5,3.5-0.1c-0.4,1.9-5,3.5-6.5,4.4c-2.1,1.2-2.2,3.5-3.2,5.7 c-1.5,3.2-3.7,6.8-6.9,8.3c-2.2,1.1-4,1.6-5.9,3.3c-3.4,3-7,6.4-9.4,10.2c-0.8,1.6-1.7,3.1-2.7,4.5c-1.6,2.9-2,6-2.2,9.3 c-0.3,4.5-0.9,9.2-0.8,13.7c0,3.5-0.6,7.5,0.1,10.9c0.7-1.4,1.2-2.8,1.5-4.4c1.6-4.7,3.7-9.2,5.5-13.8c1.8-4.6,2.6-10.7,5.7-14.7 c0.9-1.2,2.4-1.6,3.8-1.9c2.6-0.5,3.8-1.5,6.2-2.7c3.5-1.8,7.7-2.6,11.5-3.5c1.6-0.4,3.1-0.8,4.8-0.9c-2.5,0.2-5,1.5-7.1,2.7 c-3.4,1.9-7.1,4.1-10.1,6.7c-2.1,1.8-2.1,2.4-2,5.1c0.2,1.2,0.1,2.4-0.2,3.6c-0.4,0.6-0.5,1.2-0.4,1.8c1-0.3,2-0.8,2.9-1.5 c3.3-1.8,6.9-2.8,10.6-3.8c2.4-0.6,5.3-1.9,6.6,1c-1,1.4-3.1,0.8-4.6,0.9c-2.6,0.2-4,2.1-5.4,4c-1.3,1.8-2.5,3.4-2.8,5.7 c-0.2,1.9-0.7,6.4,0.7,7.7c1.1-0.3,2.3-0.2,3.4-0.2c1.5,0.1,3,0,4.5-0.2c0.8-0.3,1.6-0.5,2.4-0.5c3.2,1.7-1.1,12.7-1.8,15.2 c-2.3,8.3-5.6,16-9.7,23.7c-1.8,3.2-2.1,7.2-4.1,10.2c-1.3,1.9-4.2,3.4-4.4,5.9c0.5,0.4,3.7-2.2,3.7-2.3c1.7-1.1,3.7-2.3,5.6-3 c1.7-0.6,3.4-0.1,5.1-0.6c-1.7,1.2-3.5,4-4.6,5.6c-2.8,4-4.9,8.4-7.6,12.4c-2.3,3.5-4.5,6.1-5.6,10.3c-0.4,1.4-1.9,5.2-0.5,6.5 c2.8-1.4,4.9-3.7,7.7-5c1.2-0.6,4.4-1.9,6-1.5c-1.4,2.3-3.5,4-5.3,5.9c-2.1,2.1-4.8,3.9-6.8,6.1c-4.7,5.2-5.7,13.8-5.7,20.5 c0,6.1,0,12.2,0,18.3c0.9-5.1,2.5-10,4.5-14.9c2-4.3,4-8.6,5.9-12.9c1.5-3.9,2.2-8,3.8-11.8c2-4.6,6.1-7.9,9.6-11.4 c1.3-1.4,2.8-2.6,4.5-3.6c1.1-0.7,3.7-3.1,5.2-3.3c0,4-1.7,7.8-3.2,11.4c-3.1,7.7-6.4,14.7-8.1,22.9c-1.1,5.2-2.5,10.6-2.5,15.9 c0,3.4-0.4,6.5-0.8,9.9c-0.4,2.6,0,5.4-0.5,8c-0.3,1.9-1.8,3.5-2.2,5.4c1.5-0.5,2.6-1.5,3.5-2.9c3.6-3.7,6.6-8,8.9-12.6 c4.6-9,3.9-19.4,5-29.2c0.3-2.5-0.1-6.6,1.3-8.9c0.9-1.5,2.7-2.8,3.9-4.2c1,8.1-0.5,16.6-1.1,24.7c-0.4,5.4-0.4,11-0.9,16.4 c1.3-5.5,2.6-11.4,5-16.5c2.6-5.4,4.2-10.4,10.7-11.8c1.7-0.4,3.6,0,5.2-0.9c1-0.5,1.8-1.5,2.8-2.1c2.4-1.4,3.4-2.1,6.1-2.1 c3.4,0,6.7,0,10.1,0c2,0,4.1,0.3,6-0.2c1.5-0.3,2.5-0.6,4.1-0.5c5,0.1,9.9,0,14.9,0c3,0,6.1,0.2,9.1,0c2.4-0.1,4.6-0.7,7-0.7 c3.7,0.1,7.4-0.6,11.1-0.7c1.5,0,2.8-0.3,4.3-0.5c0.8,0,1.5-0.1,2.3-0.1c1.8-0.1,3.4-0.7,4.9-1.7c1.3-0.5,2.6-0.7,4-0.6 c2.7-0.3,4.7-1.7,7.1-2.8c4.7-2.2,7.5-5,8.7-10c0.5-2,1-4.1,1.6-6.1c7.7,9.8,16.9,0.2,16.9,0.2l1.1,6.9c-10.3,10.3-3.7,17,0,20.7 c3.7,3.7,25.3,15.5,35.1,15.5c9.8,0,25.9-2.9,40.2-9.8c14.4-6.9,10.9-13.8,10.9-20.7c0-6.9,1.7-3.4,8.6-3.4c6,0,7.2,3.5,12.9-1 c2.2,4,4.6,7.7,8.2,10.6c1.9,1.6,4.4,2.3,6.6,3.4c-0.9,0-2.3-0.4-3,0.3c-1,0.9,0,1.9,0.5,2.8c1.2,1.8,2.5,3.4,3.7,5.1 c1.4,2.1,2.5,3.8,4.8,5.1c1.4,0.8,2.9,1.4,4.2,2.4c0.9,0.8,1.9,1.5,3,2c3.3,2,6.7,4,10.2,5.6c5.6,2.6,11.8,4.1,17.8,5.1 c2.8,0.5,5.6,0.9,8.3,1.5c2.5,0.5,5,1.3,7.5,1.7c4.7,0.6,9.5,0.9,14.3,0.9c9.5,0,19.1,0,28.6,0c2.2,0,4.3,0,6.5,0 c0.6,0,1.4-0.2,2,0.1c1.7,0.7,2,3.2,3.3,4.4c0.6,0.6,1.9,1,2.4,1.5c0.6,0.7,0.5,1.1,0.4,2.2c0,2.3,0,4.7,0,7c0,5.2,0,9.8,2.1,14.6 c0.5,1.2,1.1,2.3,1.6,3.4c-0.1-0.5-0.2-0.9-0.3-1.3c-0.8-3.9-0.5-7.9-0.5-11.8c0-2.5-0.4-5.3,0.4-7.7c0.3-1,0.8-1.7,1.4-2.6 c1.2-2.1,1.7-4.4,1.8-6.9c0-1.5,0.1-2.3,0.5-3.6c0.4-0.5,0.6-1,0.5-1.6c0.2-1.9,0.5-3.7,0.5-5.7c0-1.3-0.8-7.9,0.5-8.4 c0.8,2.6,0.3,5.1,0.6,7.7c0.2,1.7,0.2,3.7,0.6,5.3c0.8,3,2.1,5.6,2.3,8.8c0.1,1.6,0.5,3.4,1.1,5c0.6,1.7,2.3,3.1,3.4,4.5 c1.8,2.1,3.4,4.4,5,6.6c2.4,3.5,5,6.7,7.5,10.1c1.1,1.4,2.1,2.9,2.8,4.6c0,0.9,0.4,1.5,1.1,1.8c0.1-0.6-0.4-1.1-0.6-1.6 c-0.2-0.8-0.4-1.7-0.6-2.5c-0.5-1.8-1.3-3.5-2.2-5.2c0-1.9,0.1-3.8-0.2-5.7c-0.4-2.9-1.7-5.5-2.1-8.4c-0.4-2.6-0.9-5.1-1.4-7.6 c-1-5.4-1.5-10.9-2.8-16.2c-0.8-3.3-1.4-6.7-2.4-10c-0.8-2.6-1.3-4.6-1.3-7.3c0.1-3.8,0.1-7.6,0-11.4c0-1.9,0.5-3.7,0.5-5.6 c0.1-1.5-0.1-3.1-0.1-4.6c0.1-1.6,0.6-3.1,0.5-4.7c0-2.1,0-4.1,0-6.2c0-0.9-0.6-6.9,0.4-7.1c0.2,0.9,0.8,1.6,1,2.5 c0.4,1.4,0.1,3.2,0.1,4.6c0,7,0.4,14,1.4,20.9c0.4,2.7,0.4,5.3,0.7,8c0.2,1.9,0.7,3.7,0.9,5.5c0.2,1.4,0.8,2.7,1.1,4.1 c0.3,1.5,1.1,2.6,1.8,3.9c0-2,0.1-3.9,0.1-5.8v-21.9c0-3.9,0-7.8,0-11.7c0-2.7,0.3-5.5-0.1-8.2c-0.3-2.1-0.4-4.1-0.4-6.2 c0-1.7-0.5-3.1-1-4.8c0-0.1-0.1-0.2-0.1-0.3c0.3,0.3,0.6,0.7,0.9,1c0.8,0.8,1.7,1.6,2.5,2.5c0.6,0.8,1.2,1.7,1.8,2.5 c1,1.5,1.9,2.9,2.6,4.5c0.7,1.5,1.4,2.9,1.5,4.6c0.1,1.5,0.3,2.8,1,4.2c1,1.9,2,3.9,3.6,5.3c1,0.8,2.1,1.6,3.2,2.4 c1.3,1,2.6,2.1,3.8,3.2c0.5,0.4,1.9,1.9,2.7,1.2c0.1-0.6-0.5-1-0.9-1.4c-0.5-0.6-1-1.2-1.3-1.9c-1.3-2.2-2.9-4.3-4.4-6.5 c-1.1-1.7-2.4-3.6-2.9-5.6c-0.5-1.9-0.5-3.8-0.5-5.7c0-3.7,0.5-7.4,0.3-11c-0.1-1.5-1.2-2.8-1.9-4.1c-0.5-1.2-1-2.3-1.6-3.5 c-1-2.1-2.3-4.4-2.5-6.8c0.7-0.6,3.1,2.2,3.6,2.7c1.5,1.7,3,3.6,3.4,5.9c0.5,2.5,0.2,5,1.2,7.4c0.6,1.4,1.5,2.5,2.6,3.4 c0.6,0.5,1.3,0.9,2,1.4c0.3,0.2,0.6,0.4,0.9,0.5c0.6,0.6,0.7,1.6,0.8,2.4c0.3,2.8,1.3,5.5,1.6,8.4c0.2,2.1,0.1,4.3,0.4,6.5 c1.5-2.7,1.2-5.9,1.2-8.8c0-2.9-0.8-5.5-1.5-8.3c-0.6-2.4-1.1-4.9-1.7-7.3c-0.2-1.2-0.6-2.3-1-3.4c-0.8-1.8-1.8-3.7-3-5.2 c-1.2-1.6-2.1-3.2-3-5c-1.2-2.4-2.7-4.8-4.2-7.1c-1.5-2.3-3.1-4.3-4.4-6.7c-1-1.9-0.7-3.8-0.7-5.9c0-2.1,0.1-4.1-0.2-6.2 c-0.3-2.3-1-4.4-1.7-6.5c-0.4-1.4-1-2.8-1.1-4.2c0-1,0-2,0-3c0-0.3,0-0.6,0-0.9c0.3,2.9,0.9,5.8,2.2,8.7c1.5,3.3,3.2,6.6,5,9.9 c0.4,1.1,0.9,2.1,1.2,3.2c0.4,1.1,0.6,2.3,0.9,3.4c0.5,1.9,1,4.1,1.8,5.9c0.3,0.6,0.5,0.9,1,1.4c0,0,1,1.1,1.2,1.1 c-1.2-1.1-1.4-2.8-1.7-4.3c-0.4-1.7-0.7-3.4-1.1-5.1c1.7,2.6,3.5,5.2,5.4,7.6c0.9-3.2-1-8.2-2-11.3c-1.4-4.6-1.5-9-1.4-13.8 c0.1-3.8,0.7-7.5,0.7-11.3c0-1-0.5-3.8,0.1-4.9c0.4-0.7,1.4-0.7,1.7-1.4c0.5-0.9,0.1-3.1,0.1-4.1c0-4.6,0.2-9.1-1.5-13.5 c-0.7-1.9-5.2-4.7-4.3-6.2c1.4-2.4,5.7,0.5,7,1.2c4.8,2.5,8.7,8.3,11.6,12.7c2.2,3.5,4.5,7,6.7,10.4c-0.3-3.5,0-7-0.9-10.4 c-0.9-3.6-4.4-7-6.8-9.6c-1.8-2-3.7-4-6.1-5.1c-1.1-0.5-1.8-0.4-2.9-0.7c-6.4-1.6-10.9-6.5-14.4-11.7c-2.4-3.5-3.7-8.2-2.8-12.4 c0.4-2,0.5-3.7,0.5-5.8c0-4.6-1.4-27.2,3.3-26.5c0.8,1.6,0.7,2.9,0.9,4.7c0.4,3.4,0.6,6.1,2.1,9.3c1.2,2.5,2.3,5.2,3.1,7.9 c0.2-4.5,0.6-8.9,0.6-13.4c0-1.8-0.4-3.2,0.6-4.7c0.6-0.4,1-0.9,1.4-1.4c0.9-1.5,0.6-3,0.6-4.7c0-2.7,0-5.5,0-8.2 c0-1.1-0.7-5.6,0.5-6.4c0,2.3,2.5,3.4,2.9,5.6c0.3,1.4,0,2.2,0.5,3.7c0.5,1.3,1,2.6,1.4,4c0.5,1.8,0.9,3.6,1.1,5.6 c0.1-0.6,0.2-1.3,0.2-2c0-1.8-0.1-3.6-0.1-5.4c0-5.4,0.2-10.6-1.1-15.9c-1.2-4.8-4.7-8.9-5.2-13.9c0.6-0.5,4.6,1.7,5.1,2 c2.3,1.3,3.9,3.2,6.3,4.4c1.7-0.9-0.1-6.3-2.3-9.3c1.2,0.7,2.5,1.2,3.6,2c3,2.1,6.7,4.2,9,7.1c0.9,1.2,1.4,2.7,1.7,4.2 c0.1-3.8,0.3-7.6,0.3-11.3c0-3.3,0-6.5,0-9.8c0-2.7-0.1-5.9-2-8.1c-2.4-2.8-5.9-3.9-6.6-8c-0.7-4,1.2-3,4.2-3.5c-2-3.3-5-5.6-8-8.1 c-1.2-1-2.5-2.6-4.1-3.1c0.5,0.1,1.1,0.3,1.7,0.4c1.4,0.2,2.7,0.2,4.1,0.1c1.5,0,3-0.1,4.5,0c4.6,0.2,7.8,5.3,10.2,8.7 c1.5,2.2,2.2,4.6,3.4,6.9c1.2,2.2,2.8,4.1,3.6,6.5c0.7,2.1,0.8,4.1,1.7,6.2c1.1,2.6,3.2,4.2,4.7,6.5c0.8,1.1,1.1,2.4,1.8,3.5 c0.9,0.9,1.4,2,1.6,3.3c0.8,5.1,1.1,10,1.2,15.1c0.1,2.4,0.3,5.1,0.7,7.5c0.4,2.3,1,4.9,1.6,7.2c0.2,0.7,0.3,1.8,0.6,2.5 c0.6,1,1.2,2,1.6,3c0.8,2.5,0.3,5.8,0.3,8.5c0,4.2,0,8.4,0,12.6c0.2-1.5,1.2-2.9,1.3-4.5c0.2-2.6,0.7-4.9,0.7-7.5 c0-7.6,0.3-15.2-0.8-22.7c-0.5-3.5-1.9-6.6-2.7-10c-0.7-3.1-1.8-5.9-3.2-8.7c-0.6-1.3-0.7-2.2-1.2-3.6c-0.9-2.9-2.8-5.2-3.5-8.1 c-0.5-2-0.6-3.4-1.6-5.1c-1.6-2.6-2.6-5-3.6-7.8c-0.5-1.5-1.3-2.5-1.9-3.9c-1.5-3.4-1.1-7.6-1.6-11.2c-0.4-2.3-0.3-4.5-0.6-6.8 c-0.4-3.2-1.1-6.3-2-9.4c-0.5-1.8-1.4-3.7-3-4.6c-0.5-0.3-1-0.6-1.6-0.8c0.3,0,0.5,0,0.8-0.1c-0.7-1.4-1.4-2.4-1.3-4.1 c0.1-1.5,1.1-2.4,2.1-3.4c1-1,0.8-2.5,0.3-3.7c-0.1-0.2-0.2-0.5-0.3-0.7c1.3-1.4,2.5-2.8,3.7-4.2c1,0.4,1.9,0.9,2.9,1.3 c2,1,4,2.2,5.9,3.5c4.4,3.2,8,7.3,12.4,10.5c1.8,1.4,3.7,2.7,5.5,4.1c0.6,0.5,1.2,0.8,1.8,1.1c-0.3-0.7-1.2-1.5-1.8-2.2 c-0.4-0.5-0.9-0.9-1.2-1.6c-0.2-0.6-0.5-1.2-0.7-1.7c-0.6-1.3-1.3-2.6-1.5-4.1c0-0.8,0-1.6,0-2.5c0-1.4-0.1-2.9,0.1-4.3 c0.1-1,0.2-2,0.2-3c0-2.3-0.1-4.8-0.4-7c-0.4-3.1-1.4-6.1-2.6-8.9c-0.5-1.1-1-2.2-1.5-3.2c-0.4-0.3-0.5-0.6-0.4-0.9 c1.4,1,2.8,2.7,4.6,2.6c0.2-0.5,0-1.1,0-1.6c0-1.7,0-3.4,0-5.1c0-2.4,0.1-4.8-0.2-7.1c0-0.1,0-0.2,0-0.3c2.6-3.3,5.2-6.4,8-9.4 c0.3,0.1,0.7,0.3,1,0.5c1,0.6,1.9,1.2,2.7,2c0.6,0.7,0.7,1,1.1,1.8c0.5,1.1,1.5,2.1,2.2,3.1c0.5,0.7,1,1.4,1.5,2 c2,2.4,4.3,4.7,5.9,7.3c1.3,2.1,2.3,4.5,3.4,6.8c0.5,1.1,1,2.1,1.4,3.2v-0.1c0-2.1,0.1-4.2-0.2-6.4c-0.3-2-1-3.7-1.3-5.7 c-0.2-1.3-1-2.6-1.4-3.9c-0.5-1.6-1.1-3.2-1.8-4.8c-1.4-3-2.9-5.9-4.4-8.8c-0.8-1.6-1.8-3.1-3.1-4.3c-0.1-0.2-0.3-0.4-0.5-0.6 c1,0.3,2.1,0.2,3,0.6c1.3,0.5,2.5,1.5,3.7,2.3c1.1,0.8,2,1.6,2.9,2.6c1.5,1.5,3,3.1,4.3,4.9v-4c-0.3-0.2-0.5-0.4-0.8-0.6 c-4.1-3.6-8.6-6.8-13.7-8.6c-0.1-0.4-0.2-0.8-0.4-1.2c1.6,0.1,3.1,0.2,4.7,0.4c3.4,0.6,6.8,1.3,10.2,1.8c0,0,0,0,0,0v-8.2 c-1.7,0-3.3,0-5,0c-2.6,0-5.1-0.3-7.7-0.3c-2.4,0.1-4.8,0.7-7.2,1.2c0,0-0.1,0-0.1,0c-5.1-3.3-13.4-6.2-23-8.8 c0.1,0,0.2-0.1,0.3-0.1C664.3,149.2,668.2,146.5,672.7,145.8z M194.7,327.1c-0.5,1.3-0.1,2.9-0.1,4.2c0,2.8-0.7,5.4-0.7,8.2 c0,3.1-0.9,2.5-3.9,2.8c-3.2,0.3-6.4,1-9.5,1.4c-0.7,0.1-1.4,0.2-2.1,0.2c-0.1-0.9-0.2-1.9-0.2-2.6c0-3.7-0.9-7.7,1.4-10.9 c2.7-3.6,6.7-3.9,10.9-4.8c1.6-0.3,3.6-1,5.2-0.5C195.5,325.9,195,326.4,194.7,327.1z M597.6,540.3c0,1.2,0.1,2.4,0.5,3.6 c0.3,0.5,0.5,1.1,0.8,1.6c0.4,1,0.5,2,0.5,3c0.2,3,1,5.8,2,8.6c1.7,5.1,3.7,10.3,4.9,15.6c0.3,1.4,0.4,2.7,0.5,4.1 c-0.7-1.3-1.4-2.5-2-3.7c-1.6-3.2-3.6-6.5-5.9-9.3c-2.5-3-4.6-5.7-6.1-9.4c-2.5-6-3.6-12.5-4.4-19c-0.5-3.8-0.1-7.9-0.1-11.7 c0-2.6,0-5.1,0.4-7.6c-0.1-0.8,0.1-1.5,0.5-2.2c0.6,0.8,0.6,2.1,0.7,3c0.2,1.4,0.5,2.7,0.9,4.1c0.5,2.2,1,4.4,1.4,6.7 c0.1,1.5,0.5,2.8,1.2,4C594.8,534.4,597.1,537.2,597.6,540.3z M698,235.1c-1.1,1.8-2,3.7-3.3,5.3c-1.4,1.7-3.2,3.3-5,4.5 c-1.2,0.7-2.4,1.4-3.7,2c-2.5,1.4-5,2.4-7.7,3.3c-2.4,0.9-5,1.1-7.6,1c-3.5,0-7,0-10.6,0c-1.2,0-2.7-0.3-3.8,0 c2,1.9,4.7,2.9,7.2,3.8c3.6,1.3,7.2,0.9,11,1c1.5,0,2.9,0.1,4.4-0.2c0.8-0.2,1.7-0.4,2.5-0.7c0.8-0.2,1.6-0.1,2.4-0.3 c0.5-0.2,1.1-0.4,1.6-0.6c1.2-0.4,2.2-0.9,3.1-1.7c1.2-0.9,2.5-1.7,3.7-2.6c2.8-2,5-5.2,6.8-8.1c1.3-2,2.4-4.6,2.5-7 c0.1-1.8,0-3.7,0-5.5v-0.7c-0.3,0.7-0.6,1.4-0.9,2.1C699.9,232.3,698.9,233.7,698,235.1z M402.9,145.1c0.5-0.8,1-1.7,0.9-2.6 c-0.9,1.8-1.7,3.5-3,5c-1,1.2-2.1,2.4-3.2,3.6c0.5-0.3,0.9-0.5,1.4-0.9C400.7,148.8,401.8,147,402.9,145.1z M701.5,228.7 c0.4-1,0.8-2.1,1.1-3.2v-19.1c-0.3-1.1-0.7-2.1-1.1-3.2c0,3.2,0,6.4,0,9.7V228.7z M163.1,265.3c0-1.8,0.1-3.5,0.1-5.3 C163.1,261.7,163,263.5,163.1,265.3z M386.8,126.5c-0.3,1.6-0.7,3.1-1.1,4.7c0.1-0.1,0.1-0.3,0.2-0.4 C386.5,129.4,386.6,128,386.8,126.5z M190.9,312.7c-0.1-0.4-0.4-0.8-0.7-1.3C190.4,312.2,190.7,312.7,190.9,312.7z M382.1,101.9 v2.8C382.2,103.7,382.1,102.8,382.1,101.9z"/> <path class="st3" d="M222.9,592.9c0-0.6,0.1-2.1,0.1-3.8c0,0,0-0.1,0-0.1C222.6,590.1,222.9,591.7,222.9,592.9z M245.6,583.9 c0.1,2.6,2,4.5,3,6.8c-0.7-2.3-1-4.8-1.6-7.1c-0.4-1.6-0.9-3.1-1.3-4.7C245.5,580.5,245.6,582.3,245.6,583.9z M554.8,589 c0,0,0,0.1,0,0.1c0,1.7,0.1,3.2,0.1,3.8C554.9,591.7,555.2,590.1,554.8,589z M570.3,592c-1.4-3.2-1.8-5.6-1.8-9c0-2.7,0-5.4,0-8.2 c0-2.1,0.3-3.9,0.6-6c0.4-2.9,0.3-5.7,0.3-8.5c0-1.8,0-3.5,0-5.3c0.1-5.2-2.9-9.5-3.9-14.4c-0.3-1.5-0.2-3-0.6-4.5 c-0.5-1.8-0.2-3.5-0.5-5.3c-0.2-0.8-0.5-1.6-0.8-2.3c-0.3-1.2-0.6-2.5-0.9-3.7c-1.6-3.8-5.5-6.1-7.3-9.7c0.7-0.5,3.9,1.1,4.7,1.3 c1.1,0.2,1,0.3,1.6,0.9c1.7,1.7,3.8,2.9,5.9,4.1c-0.1,0,2.8,1.8,3.2,1.6c-2-1.6-2.1-4.8-3.8-6.5c-1.1-1.1-2-1.5-2.9-2.9 c-1-1.6-2-2.5-3.4-3.7c-0.7-0.8-1.6-1.4-2.6-1.8c-0.7-0.2-1.2-0.6-1.6-1.2c-0.4-0.1-0.8,0-1.2,0c-0.5-0.1-0.6-0.3-0.9-0.3 c-1.6-0.5-3.3-0.6-5-0.6c-1.5,0-2.7,0-4.2-0.3c-0.9-0.2-1.8-0.5-2.8-0.6c-1.7-0.2-3.5,0-5.2,0c-1.2,0-2,0.3-3.1,0.6 c-2.7,0.6-5,1.3-7.8,1.3c0.9-0.2,1.5-0.4,2.5-0.5c0.7,0,1.8,0,2-0.9c-0.5-0.8-2-1.2-2.8-1.4c-3.2-0.5-6.9,0.8-10.1-0.1 c0.5-1.1,2.2-0.8,3.1-0.9c1.5-0.2,5.9-0.7,6.2-2.7c-0.5-0.5-1.2-0.7-2.1-0.6c-2.3-0.4-4.6-0.8-6.9-1.4c-2.2-0.6-4.7-1.1-6.8-2.1 c0-0.9,2.2-1.1,1.8-2.1c-0.3-0.8-4.7-1-4.8-1c-1.6-0.2-3.5-0.5-5.2-0.5c-4.2-1.1-8.1-1.4-12.5-1.4c-3,0-6.7,0.5-9.7,0 c0.2-0.5,0.4-1.1,0.3-1.7c-2.5-0.8-4.9-1.1-6.9-2.9c0.7-1.3,3.3-1.1,4.4-2.2c-1.1-1.6-4.1-1.2-4.8-3c0.8-1.1,1.7-2,2.8-2.8 c1.3-0.9,3.7-2,3.6-3.9c-0.2-0.2-0.5-0.3-0.7-0.3c1.2-1.3,3.1-1.3,4.7-1.8c1.8-0.6,4.2-1.8,5.6-3.2c-1.4-0.7-3.9,1.4-5.3,1.7 c-3.3,0.7-6.7,0.6-10,1.4c-2.6,0.6-5.1,1.6-7.7,2.2c-1.2,0.3-2.6,0.3-3.3,1.5l-74.9,6.2l-74.9-6.2c-0.8-1.2-2.1-1.2-3.3-1.5 c-2.6-0.6-5.1-1.6-7.7-2.2c-3.3-0.8-6.7-0.7-10-1.4c-1.4-0.3-3.9-2.4-5.3-1.7c1.4,1.4,3.7,2.6,5.6,3.2c1.6,0.5,3.5,0.5,4.7,1.8 c-0.3,0-0.5,0.1-0.7,0.3c-0.2,1.9,2.3,3.1,3.6,3.9c1.1,0.8,2.1,1.7,2.8,2.8c-0.7,1.8-3.8,1.3-4.8,3c1.1,1.1,3.7,0.9,4.4,2.2 c-2.1,1.8-4.4,2.1-6.9,2.9c-0.1,0.6,0.1,1.1,0.3,1.7c-3,0.6-6.7,0.1-9.7,0c-4.4,0-8.2,0.3-12.5,1.4c-1.7,0-3.6,0.2-5.2,0.5 c-0.1,0-4.5,0.2-4.8,1c-0.4,1,1.8,1.3,1.8,2.1c-2.1,1-4.5,1.5-6.8,2.1c-2.3,0.6-4.6,1-6.9,1.4c-0.8-0.1-1.5,0.1-2.1,0.6 c0.3,1.9,4.8,2.5,6.2,2.7c0.9,0.1,2.7-0.2,3.1,0.9c-3.2,0.9-6.9-0.5-10.1,0.1c-0.8,0.1-2.4,0.6-2.8,1.4c0.2,0.9,1.2,0.9,2,0.9 c1,0.1,1.6,0.2,2.5,0.5c-2.8,0-5.2-0.7-7.8-1.3c-1.1-0.3-1.9-0.6-3.1-0.6c-1.7,0-3.5-0.2-5.2,0c-0.9,0.1-1.9,0.4-2.8,0.6 c-1.5,0.3-2.7,0.3-4.2,0.3c-1.7,0-3.4,0.1-5,0.6c-0.3,0.1-0.4,0.3-0.9,0.3c-0.4,0.1-0.8-0.1-1.2,0c-0.4,0.5-0.9,0.9-1.6,1.2 c-1,0.4-1.8,1-2.6,1.8c-1.4,1.2-2.5,2.1-3.4,3.7c-0.8,1.3-1.8,1.8-2.9,2.9c-1.8,1.7-1.8,4.9-3.8,6.5c0.4,0.2,3.3-1.7,3.2-1.6 c2.1-1.2,4.2-2.4,5.9-4.1c0.7-0.7,0.6-0.7,1.6-0.9c0.8-0.2,4-1.8,4.7-1.3c-1.8,3.7-5.7,5.9-7.3,9.7c-0.4,1.2-0.7,2.5-0.9,3.7 c-0.4,0.7-0.6,1.5-0.8,2.3c-0.3,1.8,0,3.5-0.5,5.3c-0.4,1.5-0.3,3-0.6,4.5c-1.1,5-4,9.2-3.9,14.4c0,1.8,0,3.5,0,5.3 c0,2.9,0,5.7,0.3,8.5c0.3,2.1,0.6,3.9,0.6,6c0,2.7,0,5.4,0,8.2c0.1,3.4-0.4,5.9-1.7,9c-0.5,1.1-0.7,2.2-0.9,3.3h3.5 c0.5-0.9,1.1-1.8,1.6-2.7c2-3.2,4.4-6.5,5.7-10.1c-0.1,0.2,0.5-2.5,0.7-2.6c0.6,0.9,0.8,1.9,0.7,2.9c0.1,1.1-0.2,3.1,0.6,4 c1.1-1.3,1.8-2.7,2.2-4.4c1.3,0.1,1.5,3.7,1.4,6.7c0.5,1.9,0.3,3.8,0.3,5.7c0,0.1,0,0.3,0,0.4h10.5c0.3-0.5,0.5-0.9,0.8-1.4 c1.6-3,1-6.6,1-9.9v-19c0-4.2,0-8.5,0-12.7c0-3.8-0.2-8.3,1.8-11.7c2.1-3.3,5.8-4.5,9.3-5.5c1.8-0.5,3.6-0.8,5.5-1.1 c0.9-0.2,1.3-0.4,2.1-0.8c-3.6,4.7-6.5,10-9.2,15.2c-1,1.7-1.8,3.5-2.5,5.4c-0.6,2.3-0.2,4.8-0.2,7.1c0,1.5,0,3,0,4.5 c-0.1,2.7,0.3,4.6,1.2,7.2c0.7,2.1,1.4,4.2,2,6.3c0.1-0.7,0.2-1.3,0.4-1.9c0.8-2.6,2.9-4.2,5-5.6c1.1-0.7,2.4-1.3,3.3-2.2 c-2.2,2.6-3.3,5.5-3.6,9c-0.4,5.5-0.4,11.8,1.2,17.2h15.6c0-1.1,0-2.2,0-3.3c0-2,0.3-3.7,1-5.6c0.4-1,1.1-3.4,2.1-4.1 c0.6,2.6,0.5,5.2,0.5,7.8c0,1.7,0.2,3.4,0.3,5.1h3.3c0-1.8,0-3.7,0-5.5c0-2.4,0.1-3.8,1.1-6c0.4-0.8,0.5-2.1,1.2-2.7 c1.1,0.3,0.9,4.1,0.9,5c0.1,2.6-0.2,5.3,0,7.9c0,0.4,0.1,0.8,0.1,1.2h221.6c0.1-0.4,0.1-0.8,0.1-1.2c0.2-2.6-0.1-5.3,0-7.9 c0-0.9-0.1-4.7,0.9-5c0.7,0.6,0.9,1.9,1.2,2.7c1,2.2,1.1,3.5,1.1,6c0,1.8,0,3.7,0,5.5h3.3c0.1-1.7,0.3-3.4,0.3-5.1 c0-2.6-0.1-5.2,0.5-7.8c1,0.7,1.7,3,2.1,4.1c0.7,1.8,1,3.6,1,5.6c0,1.1,0,2.2,0,3.3h15.6c1.6-5.4,1.6-11.6,1.2-17.2 c-0.3-3.4-1.4-6.4-3.6-9c0.9,0.9,2.2,1.5,3.3,2.2c2.1,1.4,4.3,3,5,5.6c0.2,0.6,0.3,1.2,0.4,1.9c0.6-2.1,1.3-4.2,2-6.3 c0.9-2.6,1.3-4.4,1.2-7.2c0-1.5,0-3,0-4.5c0-2.3,0.4-4.9-0.2-7.1c-0.7-1.9,0.3,0-0.7-1.7c-2.8-5.2,8.1,2.5,4.6-2.1 c0.9,0.4-0.5-4.1,0.4-3.9c1.9,0.3-0.6,2.7,1.3,3.2c3.5,0.9-0.7-2.1,1.4,1.3c2.1,3.4,0.1,4.1,0.1,7.9c0,4.2,0,2.4,0,6.6v19 c0,3.4-0.6,6.9,1,9.9c0.2,0.5,0.5,0.9,0.8,1.4h10.5c0-0.1,0-0.3,0-0.4c0-1.9-0.1-3.9,0.3-5.7c-0.1-3,0.1-6.6,1.4-6.7 c0.4,1.7,1.2,3,2.2,4.4c0.8-0.9,0.5-2.9,0.6-4c-0.1-1.1,0.2-2.1,0.7-2.9c0.2,0.1,0.8,2.8,0.7,2.6c1.2,3.6,3.7,6.9,5.7,10.1 c0.6,0.9,1.1,1.8,1.6,2.7h3.5C571.1,594.2,570.8,593.2,570.3,592z M529.3,590.7c1-2.3,2.9-4.2,3-6.8c0.1-1.6,0.1-3.4-0.1-5 c-0.5,1.6-0.9,3.1-1.3,4.7C530.2,585.9,529.9,588.4,529.3,590.7z"/> <path class="st4" d="M470.8,487.7c-3.6-1.4-8.4,2.9-11.1,4.5c-3.8,2.3-7.9,4.5-12.2,5.7c-5.7,1.7-9.7,5.9-14.5,9 c-5.6,3.7-11.8,7.2-17.7,10.4c-10.8,5.8-23.1,5.2-34.5,9.1c-7.6,2.6-15.8,2.7-23.7,2.7c-3.8,0-7.5,0.6-11.3,0.7 c-1.3,0-2.3-0.2-2.7,1.2c-0.3,1.1,0,2.7,0,3.9c0,1.1,0,2.2,0,3.2c-0.7-0.9-1.4-1.9-2.1-2.9c-0.5-0.7-1-1.6-1.4-2.3 c-0.9-1.6-1-3.3-2.1-4.8c-1.5-2.2-2.4-3.4-2.5-6.3c-0.1-3.6-1.5-6.5-2.3-9.9c-0.3-1.2-0.2-2-0.7-3.3c-0.4-0.9-0.9-1.9-1.3-2.8 c-1-2-2.8-3.5-4.7-4.6c-4.2-2.3-7.4-4.2-10.6-7.4c-0.5-0.5-1-0.9-1.5-1.3c-0.6-0.5-1.3-0.7-1.9-1.1c-0.8-0.5,0.6-6,0.4-6.9 l-3.2-9.9c-2.1-0.6-4.2-1.3-6.3-1.8c-3.3-0.8-6.7-0.7-10-1.4c-1.4-0.3-3.9-2.4-5.3-1.7c1.4,1.4,3.7,2.6,5.6,3.2 c1.6,0.5,3.5,0.5,4.7,1.8c-0.3,0-0.5,0.1-0.7,0.3c-0.2,1.9,2.3,3.1,3.6,3.9c1.1,0.8,2.1,1.7,2.8,2.8c-0.7,1.8-3.8,1.3-4.8,3 c1.1,1.1,3.7,0.9,4.4,2.2c-2.1,1.8-4.4,2.1-6.9,2.9c0,0.2,0,0.4,0,0.7c0.1,0.2,0.1,0.3,0.1,0.3c0.1,0.2,0.1,0.4,0.2,0.6 c-0.4,0.1-0.7,0.1-1.1,0.2c-0.2,0-0.4,0-0.6,0c-0.2,0-0.4,0-0.6,0c-0.3,0-0.5,0-0.8,0c-0.1,0-0.2,0-0.3,0c-0.4,0-0.7,0-1.1,0 c-0.4,0.1-0.9,0.3-1.2,0.5c-1.3,0.7-0.9,0.9-1.6,2.4c-0.4,1.2-1.1,2.2-2,3c-0.8,0-1.2,0.3-1.3,0.9c1.5-0.1,3.1-0.2,4.6,0 c0.4,1.4-2.9,3.8-3.6,4.5c-2.3,2.2-4.8,3.8-7.4,5.7c-2.7,2.1-5.6,4.6-6.9,7.9c-0.6,1.4-0.8,3-1.4,4.4c3.1,0.3,6.9-3.4,9.7-4.5 c0.7-0.3,4.3-2.2,4.9-1.3c-2.4,4-5.4,7.6-8.1,11.5c-1.9,2.8-2.5,4.6-3.1,7.6c2.8-3.6,8.3-6.1,12.3-8.1c2,1.3,1.8,3-0.6,5.2 c-2.1,3.9-4.4,7.7-6.9,11.3c-1.4,2.1-6.3,7.6-5.2,10.6c4.6-0.8,8.2-7.4,10.9-10.8c1.1-1.4,2.3-2.7,3.5-4c0.5-0.8,0.4-1.5,1.2-2 c1.3,3.7-0.7,7.8-1.8,11.2c-0.9,3.1-1.4,6-1,9.1c1.1-0.3,1.8-1,2.2-2.2c1.7-2.4,3.6-4.6,5.7-6.7c3.4-3.2,7.8-6.9,12-9.1 c1.1,2.3,0.1,5.6-0.4,8c-0.8,3.5-1.5,6.7-1.6,10.3c-0.1,3.6-0.1,7.3,0,10.8c0,1.5-0.2,4.8,1.4,5.8c0.4-2.6,1-5.1,1.4-7.7 c0.6-3.3,2.7-6,3.3-9.2c-0.3,6.3-0.1,12.7,0.4,19.1c0.3,3.7,0.7,6.6,3.3,9.3c-0.2-2.6-0.4-5.6,0-8.2c0.6-3.9,2.8-7.1,4.5-10.5 c2.3,1.3,0.5,7.3,2.2,9.5c1.8-2.8,0.2-6.4,0.8-9.4c1.5,0,2.7,6.2,2.8,6.5c0.7,2.7,0.9,4.9,0.9,7.6c0-2.3,0-4.5,0-6.8 c0-1.1-0.4-4,0.1-5.3c0.7,0.8,1,1.8,0.8,3c0.6,4.3,1,8.7,2.2,12.9c0.7,2.5,2.2,6.8,4.9,8c1.4,0.6,1.4,0.8,1.8-0.5 c0.6-2.1-0.1-4.8-0.6-6.7c-0.3-1.1,0-2.3-0.3-3.4c1.8,4.9,4.3,9.2,7.4,13.3h9c-0.6-1.3-1-2.7-1.4-4.2c-0.7-3.1-1.3-6.5-1.4-9.7 c0-0.6-0.4-2.9,0.2-3.5c3.4,1.9,5.9,5.5,7.8,8.8c0.7,1.8,1.7,3.4,2.8,4.9c1.7,2,3.5,2.8,5.6,3.7h8.9c-0.6-1-1.1-2.2-1.6-3.1 c-3-4.9-5.9-10.5-4.8-16.5c3.4-0.5,6.7,5.8,9.4,7.7c0.3-2.3-4-5.3-5.4-6.9c-1.7-2-4-4-5.4-6.3c-0.2-0.3-0.3-0.5-0.5-0.8 c0.8-1.1,0.8-2.4,1.4-3.5c2.7-0.8,3,6.1,3.4,7.8c1.2,0.5,1.8-0.5,2.9-0.7c2.3-0.4,2.7,1.7,3.6,3.3c2.9-0.1,1.3-4.5,3.1-5.5 c1.9,1.4,0.9,4.2,1.5,6.1c0.2,0.8,0.7,1.7,1.7,1.3c0.5-2.7,0-3.7,3.3-3.1c2.2,0.4,4.8,2.4,7.1,1.8c0.3-1.4-0.7-4.5,1.3-5.1 c1.1-0.3,1.7,1.1,2.8,0.5c1.2-0.7,1.1-2.9,1.6-4c0.8-2.1,1.2-1.9,2.8-0.4c0.8,0.8,3.4,2.6,3.4,0.1c1.1,0.3,1.3,1.8,2.8,1.2 c2.4-1,0.9-7.4,3.5-7.1c1.3,1.9,1.9,4,3.2,5.9c2.4-0.3-0.8-6.4,1.3-6.6c1.2,1.2,1.3,5.8,3.8,4.6c2.3-1.1,0-6.4,3.6-5.8 c1.7,0.3,3.2,2.7,4.9,2.7c2.9,0,2.3-7.9,2.7-9.9c1.9-0.6,0.6,2.7,2.5,2c0.8-2.7,0.7-5.3,0.6-8.1c0-0.5-0.5-4.2,0.1-4.8 c1.4-1.8,4,0.7,5.8,0.6c0.9-1.2,0.3-2.5,0.7-3.8c0.5-1.8,0.7-0.6,1.7-1.2c2.2-1.2,2.4-3.2,3-5.5c0.8-3.4,1.3-6.9,2.4-10.2 c1.7,0,2.7,0.1,4.3-0.6c1.3-0.6,1-0.5,2.4-0.6c1.6-0.1,2.5-0.7,3.9-1.4c1.7-0.9,2.6-1.1,3-3c0.2-0.8-0.1-2-0.1-2.8 c0-2.2,0.2-5.1,1.1-7.1c0.6-1.4,1.8-2.6,2.6-3.9c0.7-1.1,1.8-1.9,2.8-2.9C470.9,496.8,471,491.5,470.8,487.7z"/> <path class="st1" d="M405.4,309.7c0-2.8-0.2-5.3-0.7-8c-0.7-3.6-1.7-9-0.6-12.7c1,0,2,0.5,2.8,1.2c-0.6-1.2-6.1-10.4-3.7-11.1 c0.7-3.3-0.4-6.7,0.3-9.9c0.6-0.2,1.1,0.3,1.3,0.8c-0.5-3-1-5.4-0.2-8.4c1-3.9,0.2-8.9,0.1-12.9c0-2.9-0.4-5.6,1-8.2 c0.9,0.3,0.9,1.6,1.2,2.4c1.2-0.4,0-2.2,0.6-3c0.6,1,0.7,4.1,1.8,4.6c0.7-2.7-0.3-5.6,0.2-8.4c0.4-0.3,0.8-0.3,1.3-0.2 c1.3-3.6-0.2-7.4,0.7-11c0.7,0.1,1.2,0.7,1.9,1c2.4-1.4,1-6.5,1.4-8.8c0.5-2.8,3.3-6.1,5.1-8.2c3.2-3.8,7.8-7.3,9.5-12.1 c0.9-2.6,1-7.1,3.3-8.8c1.3-0.7,2.5-1.3,3.9-1.8c2.7-1.2,5.4-2.8,7.8-4.4c1.6-1,2.3-1.5,4.3-1.6c3.9-0.1,8.5-0.7,12.4,0.1 c1.6,4,5.6,5.4,9.7,5.9c2.1,0,4.1,0.3,6.1,0.8c1.5,0.3,3.9,0.3,5.3,0.8c4.5,1.6,7.5,6.6,12.1,7.8c0.6,0,1.1,0.1,1.7,0.2 c1.3,0.4,2.9,2,4,2.7c2.6,1.7,5.8,3.5,8,5.7c1.2,1.3,2.6,3.4,3.4,5c0.9,1.7,0.8,5.9,2.6,6.8c-1,0.1-1.6-0.8-2.5-1.3 c1.1,1.9,3.5,2.7,5.2,3.8c2.6,1.6,4.8,3.5,7.1,5.4c1.6,1.3,5.1,3.2,5.4,5.5c-1.2,1.3-6.2,0-7.9,0.2c-0.6,1.4,2.4,4.4,3.1,5.3 c1.1,1.5,2,2.9,3,4.4c-1.2-0.1-5.7-2.1-6.6-0.7c1.1,1.7,3.2,2,4.4,3.9c0.8,1.3,1.4,3.3,2.8,4.1c-1,2.1-10.5-1.6-12.7-0.5 c0.6,1.8,1.9,3.5,2.7,5.3c0.7,1.6,1,3.3,1.7,4.9c-3.7,0,3.1,12.2,1.4,14c-1.7-1-3.1-2.3-4.8-3.2c0.1,4.1,3.2,6.8,4.1,10.7 c0.5,2,0.4,4.5,0,6.4c-0.5,0.1-0.7,0.4-0.6,1c0,1.9,0,3.9,0,5.8c0,0.6,0.7,6.1-0.3,6.6c-3.5-1.3-3.9-3.7-5.8-6.6 c-0.6,1.2-0.8,2.6-0.7,4c0,1.5,0.7,2.6,0.7,4c-1.1,0-1.9-0.9-3.2-0.7c-0.4,2.2,0.3,4.5-0.2,6.8c-2.9,1-6.1-3-9.1-2.7 c-0.3,0.8-0.4,1.6-0.1,2.4c-0.1,1.9,0.3,1.1-1.3,1.1c-2.8,0-1.4,0.2-2.1,2.4c-1.5,0.5-2.8-0.9-4.1-0.5c-0.9,2,0.6,3.3,0.9,5.2 c-3.9,0.5-8.3-0.8-12.1,0.1c0,0.5,0.3,1.5,0.1,1.9c-0.6,1.5-5.5,0.5-6.7,0.6c-1.8,0-3-0.2-3.5,1.6c-0.4,1.6,0.2,3.8,1,5.2 c-1.5,1.1-4.5,0.5-6.3,0.9c-1.5,0.3-4.3,1-5.2,2.5c-0.9,1.5,0.8,2.1-1.6,2.5c-1.8,0.4-3.3,0.2-4.3,2.4c-0.8,1.7-0.2,3.9,0.5,5.5 c1,2.3,0.7,2.3-1.5,4c-0.3,0.2-6.2,3.9-6,4.8c0.5,2.1,5.6,2.1,7.2,2.4c2.7,0.5,1.1,0,1.6,1.4c0.4,1.2,0,2.5,0.6,3.8 c0.7,1.6,2.8,3,1.9,5c-0.4,1-1,1-1.3,2.2c-0.4,1.7,0.1,4.1,1.2,5.5c1,1.4,2.6,2,3,3.8c0.4,1.4-0.5,3,0,4.4c0.2,0.4,0.9,0.8,1.1,1.4 c0.3,0.9,0.1,1.9,0.1,2.8c0,0.7-0.1,1.3,0.1,2c0.3,0.8,1,1.1,1.3,1.9c0.5,1.5-0.2,3.6,0.1,5.3c0.1,0.7,0.5,0.6,0.5,1.7 c0.1,1.3-0.4,3.2,0.1,4.4c0.2,0.6,0.9,1.4,1.2,2c0.3,0.6,0.9,1,1.2,1.5c0.6,1,0.1,3.2,0.1,4.4c0,2-0.5,4.1,0.4,6.1 c0.6,1.4,1.9,2,2.3,3.3c0.3,1-0.4,2.4-0.1,3.5c0.2,0.9,1,1.7,1.2,2.7c0.7,3-0.3,6.2,0.3,9.3c0.5,2.8,7.2,5.4,7.2,8.3 c0,2.8,0.8,22.7,0.4,25.4c-0.3,2-7.5-0.9-8.5,0.8c-0.5,0.8-2.9-9.3-3.7-8.7c-1.6,1.3-3.6,0.8-5.4,0.8c-3.2,0-6.9,0.5-9.9-0.5 c-6.6-2-7.7-8.8-8.9-14.5c-0.9-4.5-1.2-9-1.5-13.6c-0.4-7.3-1.2-14.6-1.7-21.9c-0.8-11.2,1.2-22.9-2.1-33.8c-0.6-2-1.1-4-2.2-5.8 c-1.4-2-3.4-3.9-5-5.7c-1.6-1.9-3-2.5-4.9-3.9c-3.5-2.6-5.6-7.4-8.3-10.8c-2.5-3.1-5.2-6.2-7.2-9.7c-1.3-2.3-2.1-4.6-3.5-6.8 c-1.1-1.7-2.4-3.3-3.5-4.9c-0.6-0.8-0.4-1.3-0.8-2.2c-0.2-0.5-0.9-1-1.1-1.4c-0.2-0.7,0.1-1.2-0.1-1.9c-0.2-0.9-0.7-0.9-0.7-2 c0-1.7,1.7-1.8,2-3.3"/> <path class="st1" d="M542.1,509.1c-0.2-0.7-0.9-0.7-1-1.5c0-0.3,0.1-0.7,0.1-1c-0.1-0.6-0.6-0.6-0.5-1.3c1.7-0.5,2.1-2.9,0.4-3.8 c0.5-0.8,4.4-0.8,4.9-0.9c2.8-0.5,5.8-1.4,7.8-3.7c-1-1-3.1-1.2-4.4-1.4c-0.9-0.1-3.1,0.3-3.3-1.1c2.5-1.9,6.5-1.9,8.3-4.8 c1.2-1.9-0.9-1.8-2.2-2.4c0-1.7,2.2-0.1,2.6-1.4c-0.6-0.8-1.3-1.5-2.2-1.9c-0.6-0.3-1.8-0.4-2.3-1.1c0.3-0.6,1-0.4,1.3-1 c0.6-0.9-0.9-2.4-1.3-2.9c-1.5-1.8-3.3-3.2-5.6-3.8c-0.4-0.1-2.7-0.2-3.1-0.8c2.8-1.3-2.6-4.9-0.3-6.3c1.5-1,2.8-0.2,2.2-2.4 c-0.8-2.9-2.5-3.7-5.1-4.6c1.8-0.3,3.6-0.6,5.4-0.7c0.9-0.1,3,0.3,3.9-0.2c0-3.2-1.6-4.7-4.7-5.1c0.3-0.7,0.9-1,1.8-1 c2-0.7,5.1-0.5,6.8-2.1c2.2-2-1.9-4-3.6-4.3c-0.8,0.1-1.5-0.1-2-0.7c-0.1-0.7,0.7-1.3,1-1.9c0.3-0.9,0.4-3,0-4 c-0.3-0.7-1-0.8-1.2-1.5c3.6-0.7,8.2-0.4,11-3c-0.6-2-2.1-3-3.1-4.8c-0.6-1.1-0.4-2.2-1-3.2c1.3-1.2,2.8-2,4.6-2.5 c1.6-0.8,3.2-1.5,4.8-2.3c1.9-0.8,3.7-1.9,5.5-3c0.5-1,0.2-2.5-0.8-3.1c-0.6-0.3-1.5-0.2-2.1-0.3c-0.1-0.3-0.1-0.7,0-1 c-0.2-1.2-1.3-1.3-1.9-2.2c2.2-0.8,4.5-0.9,6.7-1.4c2.4-0.6,4.8-1.4,7-2.3c-1.9,0.2-5,0.8-6.5,2c0.5,1.1,2.3,1.4,3.4,1.6 c0.4,1.3-3.5,2.5-4,2.7c-0.9,0.4-5.9,1.9-6,3.3c-0.3,3,7,2.7,8.7,3.1c-1.2,1-3.5,2.1-4.8,2.8c-0.8,0.4-3.1,1-3.4,2.2 c0.5,0.7,1.2,1.1,2.2,1c0.9,0.2,1.8,0.4,2.7,0.6c1,1.2-0.4,2.3-1.3,3.2c-0.9,0.9-3.3,2.5-2,3.9c0.8,0.8,4-0.1,3.5,1.8 c-1.8,0.7-3.5,1.3-5.3,1.9c-1.3,0.5-5.1,1.7-5.9,3.3c2.4,0.7,5.6-0.1,7.8,1.2c-0.3,1.5-3.1,0.7-3.2,2.5c-0.1,2,2.6,1,3.3,2.3 c-1.1,1.4-3.2,1.7-4.8,2.2c0,2,4.1,1.7,5.2,2.4c-1.8,1.7-5.3,1.6-7.5,2.6c-0.2,1.7,4,2.4,4.9,2.6c2.8,0.7,6,0.1,8.6,0.9 c-1.4,1.3-4.4-0.1-5,2.2c-0.3,1,0.3,2.1,0.8,2.9c0.5,0.7,1.5,1.1,1.8,1.8c-0.4,0.6-0.9,1-1.6,1.3c-0.7,0.4-1.5,0.8-2.2,1.2 c-1.1,0.6-2.3,1-3.5,1.2c-2.5,2,4.3,2.3,4.7,2.9c0.4,0.5,0.8,0,0.1,1c-0.7,0.9-2.5,1-3.2,2.1c-1.4,2.2,3.9,2.5,4.9,3.1 c-0.1,1.1-1.4,0.8-1.6,2c-0.2,1.4,1.6,2.4,1.6,3.8c0.1,2.2-2.9,1.9-4.3,2.9c-0.6,0-0.8,0.3-0.8,0.7c-0.1,0.6,0.5,0.8,0.5,1.1 c0,2.4-3.8,0.8-4.9,2.4c-0.7,1.1,0.7,1.2,1,2c0.4,1.1-0.9,2.4-0.6,3.6c0.3,1,1.7,1.2,1.6,2.5c-1.4,0.9-4.4,1.3-5,3 c-0.1,0.4-0.1,0.8-0.1,1.1c-0.6,1.4-1.9,1-3,1.5c-1.2,0.6-1,1.8-1,2.9c-0.1,0.9-0.4,1.8-1.1,2.4c-1.7,1.5-3.4-0.8-4.9-1.3 c-1.6-0.5-3.4,0.2-5-0.2c-0.1-0.8-0.2-1.2-0.6-1.9"/> <path class="st4" d="M501.3,576.5c-1.1-1.2-2-3.1-3.4-4c-1.1-0.8-2.8-0.3-3.6-1.4c0.3,0,0.7,0,1,0.1c-1.7-0.7-3.6-2.5-5.1-3.4 c-1.5-0.9-2.7-2.1-4.1-3.1c-1.6-1.8-9-6.7-10.2-5c0.2,1.2,0.7,2.4,1.5,3.4c-2.1-1.4-4.2-2.6-6.3-4.1c-0.4-0.3-5.1-4.7-6.4-3.9 c1.3,1.9,3.1,3.6,4.2,5.6c-1.3-0.6-2.6-1.5-4.1-1.7c-0.1,3.7,4.4,8.7,2.7,12.2c-4-0.7-5.8-8-10-6.3c0.4,2.3,3,6.6,0.8,8.6 c-1.4-0.2-2-1.3-3.2-1.6c-0.7,1.1,0.5,3.1,0.9,3.9c1.6,3.4,4.3,6.1,5.8,9.7c1.1,2.6,1.2,4.8,1.5,7.6c0.1,0.8,0.3,1.6,0.5,2.3h36 c0.1-0.4,0.1-0.8,0.1-1.2c0.2-2.6-0.1-5.3,0-7.9c0-0.9-0.1-4.7,0.9-5c0.7,0.6,0.9,1.9,1.2,2.7c1,2.2,1.1,3.5,1.1,6 c0,1.8,0,3.7,0,5.5h3.3c0.1-1.7,0.3-3.4,0.3-5.1c0-2,0-4,0.2-5.9c-0.4-0.8-0.9-1.6-1.5-2.4C504.1,580,502.8,578.2,501.3,576.5z M451.1,588.3c-1.7-2.4-4.8-4.6-8-3.6c-0.1,0.4-0.1,0.7,0,1.1c-0.6-0.8-1.4-1.2-2.1-1.8c-1.8-1.6-5.4-6.6-8.3-5.5 c-0.7-1.1-1.3-2.4-2.4-3.1c-1.6,0.8-0.8,7.4-0.6,9c0.3,2.4,1.3,4.1,2.7,6.1c0.1,0.1,2.6,2.9,2.4,3.7c-1.8-1-3.8-2.3-5.9-2.7 c-1.7-0.3-1.4-0.2-1.7,1.3c-0.2,0.9-0.1,1.7,0.2,2.5h31.1c-0.4-0.3-0.8-0.7-1.2-1C454.8,592.4,452.8,590.8,451.1,588.3z M510.3,594 c0,0.4,0,0.9,0,1.3h0.3C510.6,594.8,510.4,594.4,510.3,594z"/> <path class="st1" d="M382.5,277.7c-0.3-1.5-0.7-2.9-1-4.3c-0.2-1.3-0.8-2.5-1.1-3.8c-0.4-1.3-0.6-2.5-0.9-3.8 c-0.3-1.2-0.4-2.2-0.3-3.4c0-0.9,0.2-1.7-0.1-2.6c-0.8-1.5-1.6-3-2.3-4.5c-0.5-1.2-0.9-2.4-1.4-3.7c-0.8-2.4-1.5-4.8-2.5-7.2 c-1.4-3.3-2.2-7-4.8-9.6c-2.6-2.6-2.6-6.7-4.8-9.4c0,1.1-1.4,1.8-2.5,1.4c-1.7-0.6-3-4.4-3.7-5.7c-0.2-0.4-1.4-3.3-2.2-3.7 c0,0.3,0.1,1-0.3,1.1c-2.1-1.7-4-3.7-6.6-4.6c-1.2,1,0.2,3.4-0.7,4.7c-1.5-0.8-2.3-3.1-4-3.7c-0.5,0.7,0.3,2.3-0.5,2.6 c-0.9-0.4-1.4-1-2.1-1.6c-0.1-0.4-0.4-0.5-0.7-0.5c-0.2,0.7,0,1.4,0,2.1c0,1.1-0.1,1-1,1c-1.3,0.1-2.1-0.5-3.1-1.2 c-0.4-0.6-0.9-0.8-1.4-0.5c-0.1,1.3-0.3,2.6-0.8,3.9c-0.1,0.7-0.4,1.3-1,1.7c-0.9,0.2-1.6-1-2.4-1.2c-0.3,1.7,0.2,3.4-0.2,5.1 c-0.8,0.5-0.9-0.7-1.6-0.6c-0.6,0.1-0.3,1.4-0.3,1.8c0,0.9,0.3,1.7-0.7,1.8c-0.7,0.1-1.4-1-2.1-0.5c-0.2,1.5-0.5,4.1,1,5.1 c0.5-0.5,0.1-1.2,0.8-1.6c0.4,0.2,1.2,0.9,1.6,0.9c0.2,0,0.4-0.3,0.6-0.4c0.2,0.4,0.4,0.8,0.8,1.1c1-0.5,1.2-2.7,1.6-3.7 c1.2-0.2,2.2,2.4,3.3,2c0.9-0.4,0.4-2.1,1.3-2.4c0.5,0.2,0.6,0.7,1,1c0.4-1.7,0.2-4,1.8-5.2c1.2,0.7,1.7,1.9,2.6,2.9 c0.4,0.4,1.8,1.9,2.6,1.7c1.6-0.4,1.5-3.7,2.6-4.7c0.6,0.8,0.4,2,1.1,2.8c0.2-0.4,0.2-1.1,0.8-0.9c0.3,0.6,0.5,2.1,1.2,2.3 c0.6-0.6,0.7-1.8,1.6-1.1c0.6,0.5,0.9,2,1.6,2.3c1-0.6,0.6-2.1,1.4-2.7c1,0.9,1.3,1.6,1.5,2.9c-0.1,0.7,0.1,1.3,0.6,1.8 c0.2-0.5,0.2-1.6,0.6-1.9c0.6,1.9,0.4,4,0.9,6c0.2,0,0.2-0.2,0.3-0.3c-0.2,2.2,0.3,4.5,0.3,6.7c0,3,1.6,6,2.5,8.8 c-0.1-0.2-0.1-0.5,0-0.7c1.4,1.3,2.7,3.1,3.7,4.6c0.6,0.8,1,1.5,1.5,2.2c0.1,0.5,0.1,1.1,0.2,1.6c0.2,1,0.6,1.6,1.1,2.4 c0.3,0.5,0.8,1,1.1,1.5c0.3,0.5,0.2,0.6,0.2,1.1c0.1,0.8,0.4,1.1,0.7,1.8c0.3,0.7,0.4,1.4,0.7,2.1c0.3,0.6,0.9,1.3,1,1.9 c0,0.2,0.1,0.4,0.1,0.6c-0.9-0.9-2.7-1.7-2.5,0.4c-3.1-0.3-2.5,3.1-2.8,5.5c-0.3,3.1-0.9,6.1-2.5,8.8c-0.3,0.6-0.6,1.1-1,1.5 c-0.8,1.6,0.3,5-1.7,6.2c-1.2,0.8-2.4-0.2-3.5-0.5c0.1,2.6-1.6,1.3-2.9,2.1c-1.6,0.9,0.3,4.8-2.6,4.1c-0.7,2.3,0.6,4.9-1.4,6.9 c-1.2-0.1-2-0.9-3.3-0.6c-0.5,1.5-0.1,3-0.3,4.6c-1.4,0.7-2.6-1.9-3.4-2.5c-0.9,1-0.4,2.2-0.9,3.3c-2,0.8-1.8-1.7-3.6-1.5 c-0.6,1.5,0.3,6.5-2.4,6.4c-1,0-1.1-1.2-2.3-0.7c-1,1-1.4,2.3-1.2,3.8c-0.1,1.5,0.3,6.4-1.9,7.1c-0.6,0.2-1.2,0.1-1.6-0.5 c-0.9,0-1.6-0.3-1.5,1.2c-0.8-0.4-1.3-1.6-2.3-2c-0.6,1.3-0.7,2.7-0.4,4.2c-0.2,3.3-0.7,6.6-1.3,9.9c-0.3,1.3-0.6,2.4-0.6,3.7 c-0.5-0.4-0.8-1.2-1-1.8c-1.8-0.5-2.8,2.1-3.9-0.6c-1.1-2.7-1.4-5.1-1.4-8.2c0-1.5,0-3,0.1-4.5c0-0.4-0.2-0.7-0.6-0.8 c-0.1-0.7-0.2-1.2-0.2-1.9c0-1.4,0.4-3.4-0.1-4.8c-0.4-0.1-0.8-0.1-1.1-0.2c-0.6-1.2,0-3.2-0.1-4.6c-3,1.7-6.6,4.6-10.3,3.2 c0.2-1.9-1.7-1-2.7-1.4c-0.2-1,0.3-2.1-0.3-3.1c-0.8-1.2-2.6-0.8-3.7-1c-0.6,0-1.1-0.2-1.6-0.5c-0.4-0.2-0.6-0.5-0.6-0.9 c-0.7-0.5-1-0.7-2-0.8c-0.3-0.8,0-1.7-0.2-2.5c-0.3-0.5-0.5-1-0.6-1.5c-0.2-1.1,0.4-2.3-0.1-3.4c-2.1,0.3-1.4-2.3-3.2-2.3 c-0.6-2.5-0.1-4.9-1-7.4c-0.3-0.7-1.1-2.3-2-1c0.2-0.3,0.5-0.6,0.7-0.9c-1.8,1.4-9.2,5.3-9.6,0.7c-0.6,0.9-3.1,0.5-4,0.4 c-1.2-3.3,1-7.4,1.2-10.7c0.2-2.7-1.4-2.6-1.4-5.1c0-1.8,0.2-2.2,1.3-3.7c0.8-0.4,1.1-1,0.8-1.8c-1.1-2-5.1,0.3-6.2-1.2 c1.1-0.9,1.4-2.9,1.3-4.2c-1.1-0.5-3.3,1.9-4.6,2c0,0.2-0.1,0.4-0.1,0.6l-1.4-1.4c-0.2,0-0.4,0.1-0.6,0.1c-0.3,0.9-0.1,1.7-0.1,2.6 c-0.1,1.1-0.5,1.8-0.7,2.9c-0.8,3.8-2.1,7.7-2.1,11.7c1.2,0.1,2.8-0.5,3.7,0.4c0.9,0.9,0.5,2.4,0.5,3.6c0,0.9-0.2,2.1,0,2.9 c0.2,0.8,0.6,0.6,0.8,1.5c0.5,2.4-1.3,5.2-1.5,7.6c-0.2,1.8-0.7,3.2-1.4,5c-0.7,1.9-0.6,3.1-1.6,4.8c-1.3,2.1-3.2,4.1-1.7,6.5 c1.2-0.1,2.5-0.3,3.7-0.4c1.1,1,0,2.6,0.3,3.9c-0.1,0.6,0.1,0.9,0.6,1.1c0.2,1.7-0.4,4-0.7,5.8c-0.3,1.5-0.9,2.9-1.2,4.3 c-0.4,1.7,0.1,3.7,0,5.5c0.4-0.7,1.1-0.8,1.9-0.5c0.5,1.3-0.4,2.9-0.5,4.2c-0.1,1.7-0.4,4.4,0.1,6c0.3-0.2,0.6-0.4,1-0.5 c-0.4,1.6-2.1,8,0.5,8.1c-0.3,1.7-0.1,3.3-0.4,5.1c-0.3,1.8-0.3,3.6-0.7,5.4c-0.3,0.1-0.5,0.3-0.6,0.6c-0.4,1.5,0.2,3.3,0.1,4.8 c-0.2,1.8-1.1,3.7-0.8,5.5c2-0.9,4.2-1.3,6.4-1.3c0.9,0,1.8,0.1,2.7,0.1c1.1-0.3,2.2-1,3.1-1.6c-1.7,3.9-1.6,9.5-1.2,13.7 c0.1,1.1,1.1,2.8,0.2,3.8c1.5,0.5,7.4-3.7,7.7-3.9c1.8-1.4,3.8-2.3,6-2.6c1.4,0.7,0.3,1.8,0.8,3c0.3-0.1,0.5-0.2,0.7-0.5 c-0.1,0.4-0.1,0.7-0.1,1.2c-0.4,2.6-2.2,4.6-3,7.1c-0.6,1.8-0.6,3.7-1.3,5.5c-1,2.3-1.7,4.3-1.9,6.9c-0.1,1.5-0.4,1.9-0.9,3.2 c-0.5,1.5-0.3,2.7-0.5,4.3c-0.2,1.8-0.7,3.1-0.7,5c0,1.1,0,2.3,0,3.4c0,1.8,0,3.5,0,5.3c0,3.7,0,7.4,0,11.1c0,3.7,2,7.8,4.1,10.9 c1,1.4,2.4,3.3,3.6,4.4c1,0.9,2.6,0.8,4,0.7c1.1-0.1,1.7-0.6,2.8-0.7c0.7-0.1,1.3,0.2,1.9-0.1c1-0.5,1.5-2,2.3-2.6 c1.4-1.1,3.3-1.7,4.9-2.2c2.5-0.8,6.6-1.2,8.4-3.1c1.2-1.2,1.1-2.7,1.1-4.3c0-3,0-6,0-9c0-2.4,0.2-4.6,0.6-7c0.3-2.2,0-4.2,0.3-6.4 c0.7-4.9,3.1-9.1,4.9-13.6c1.5-3.8,2.1-7.8,3.5-11.5c1.4-3.6,4.3-6.4,6-9.9c1.1-2.2,1.8-4.5,2.7-6.8c1-2.5,1.8-5.1,2-7.8 c0.4-5.1,4.7-7.7,8.1-11.2c3-3.1,5.6-5.8,9.2-8.2c2.3-1.5,4.8-3.4,7.2-4.6c1.6-0.8,3.8-1.1,5.3-2.2c1.2-0.9,2.4-3,3.1-4.3 c1.5-2.5,2.1-5.1,3.1-7.8c0.9-2.4,2-4.7,3-7c3.8-8.9,3.2-18.7,3.3-28.2c0-4.9-0.8-10.1-2.1-14.8c-0.4-1.4-1.2-2.8-1.4-4.2 c-0.2-1.1-0.2-2.2-0.3-3.3c0.9,1.8,1.9,3.6,3.6,4.6c1.2,0.7,2.9,1.3,4.3,1.4c0.2,0,0.9,0.1,1,0c0.5-0.2,0.2-0.2,0.3-0.7 C382.8,279.4,382.6,278.3,382.5,277.7z"/> <path class="st5" d="M346.5,543.8c-0.1,0.7,0.4,2.7,1.3,2.8c0.1-0.4,0-1.1,0.7-1.2c1-0.2,1,2.1,1.1,2.6c0.1,0.6,0.4,0.7,0.7,1.4 c0.2,0.6,0.6,2.1,1.5,1.2c0.5-0.5,0.4-1.6,1.3-1.5c0.5,0,0.8,0.6,1.4,0.3c0.6-0.3,0.7-1.4,1.5-1.4c1-0.1,1.1,1.4,1.2,2 c0.4,0.1,0.3-0.5,0.6-0.5c0.4-0.1,0.4,0.5,0.6,0.7c0.2,0.5,0.6,0.9,1.3,0.9c1.1,0.1,1.3-1.4,2-1.7c1.2-0.4,1.3,2.1,1.7,2.8 c0.7-0.2,0.4-1,1-1.2c0.8-0.3,1,1.5,1.1,1.8c0.1,0.4,0.4,2.7,1.4,2c0.7-0.5,0.5-2.3,0.6-3c1.1,0.7,0.7,2.6,2.1,3.2 c0.7-0.3,0.3-1.8,0.7-2.4c1,0.1,1.3,1.6,2.1,2.1c0.4,0.3,0.7,0.3,1.1,0c0.4-0.4,0-1.3,0.3-1.6c0.7-0.6,2.2,1.3,2.9,1.5 c1.1,0.3,0.6-0.5,0.7-1.3c0.6-0.1,1,0.9,1.6,1c1.2,0.2,0.7-0.5,0.8-1.3c0.4,0.2,2,0.9,2.5,0.7c0.1-0.5,0.1-0.9-0.1-1.3 c2.1,1,4.1,2.4,6.5,2.2c0.4-0.5-0.2-0.7-0.2-1.2c2.5-0.2,5.1,0.9,7.7,0.5c0.5-1.5-1.7-3.1-2.7-3.9c0.9,0.7,1.8,1.2,2.9,1.5 c0.3,0.1,1.6,0.5,1.9,0.1c-0.2-0.4-0.7-0.6-1-0.9c1.1-0.1,2.7,0.6,3.8,0.8c1.3,0.2,3.2,0.6,4.5,0.2c0.1-0.4-0.1-0.7-0.4-0.8 c1.5,0,3.3,0.3,4.8-0.2c0.9-0.3,0.8-0.7,0.2-1.4c1.4-0.2,3.6,0.5,4.8-0.4c-0.1-0.2-0.1-0.3-0.2-0.4c1.8-0.2,3.7,0.2,5.5-0.4 c0.3-1.3-1.1-1.9-2-2.4c1.5-0.8,3.8-0.2,5.5-0.3c0.3-0.5-0.4-0.9-0.2-1.4c0.9-0.1,2.1,0.7,3,0.9c0.8,0.1,2,0.2,2.8,0 c0.1-0.5-0.2-1.1-0.5-1.4c0.1,0.1,0.3,0.1,0.4,0c0.1-0.6-0.6-1-0.5-1.6c1-0.2,0.5-2.2,0.5-2.8c0-0.6,0.3-2.2-0.2-2.5 c0.8,0,1.6,0.1,2.4,0.4c-0.5-1.1-1.3-2.1-1.7-3.2c0.4-0.1,0.4-0.2,0.6-0.7c0.4-1.4-0.2-3.1,0.1-4.5c0.7-0.1,1.6,0.7,2.2,0.1 c-0.1,0.7,1.3,2.1,2,2.2c-0.1-0.2-0.1-0.4,0-0.6c0.7-0.3,1.3,0.5,1.9,0.2c0-1.8-0.5-3.9,0.5-5.5c0.6,0,0.8,0.4,1.1,0.7 c0-0.2,0-0.4,0-0.6c1.3,0.1,0.9-3.8,1.1-4.8c0.5,0,0.6,0.7,1.1,0.7c0.9,0,0.3-2.9,0.9-3.5c1,0,1.4,1.5,2.5,1.2 c1.2-0.3,0.4-2.4,0.4-3.3c0.9-0.1,5.9,0.6,6-0.5c-0.7-0.8-1.9-2.2-3.1-2c1.8,0.1,3.8,0.2,5.7,0c0-1-2.1-1.8-2.8-2.5 c1.8-0.1,3.7,0.1,5.5,0c1.1,0,3.8,0.1,4.7-1c0.9-1.2-1.8-1.1-2.2-1.6c0.8-0.3,1.7-0.5,2.6-0.5c0.4,0,1.9,0.1,2.1-0.5 c0.4-1.1-3.5-0.9-3.9-1.3c1-0.4,2-0.6,3-0.9c0.4-0.1,1.1-0.1,1.3-0.5c0.5-1.2-2.1-1.9-2.8-2c0.5-0.2,1.1-0.4,1.7-0.5 c0.9-0.1,1.8-0.3,2.6-0.6c0.4-0.3,0.5-0.5,0.3-1c-0.5-0.1-1.1-0.2-1.3-0.8c2.3-1.1,5-1.3,7.4-2.1c-0.4-1.3-2.4-1.8-3.5-2.1 c-1.2-0.4-2.7-0.4-3.9-0.9c1.8-0.1,3.8-0.3,5.6-0.6c0.1-0.6-0.8-0.6-1.2-0.8c0.7-0.6,3.7-0.6,3.8-1.7c0.1-1.2-1.9-0.9-2.6-1.1 c0.7-0.4,2,0.2,2.6-0.5c0.5-0.5,0.2-0.9-0.3-1.2c1-0.5,2.2-0.6,3.4-0.4c0,0-1.1-1.6-1.2-1.8c-0.3-0.2-0.4-0.5-0.3-0.8 c0.8-0.6,1.6-1,2.5-1.3c0.4-0.2,4.3-0.8,4.2-1.7c-0.1-0.6-1.4-0.5-1.8-0.6c0.2-0.3,0.4-0.4,0.2-0.8c-0.4-0.8-2.1-0.5-2.3-1.3 c0.8,0,1.6,0,2.3-0.1c0.4-1-1.2-1.1-1.6-1.6c0.7-0.4,1.5-0.7,2.4-0.9c1-0.1,2-0.4,2.7-1.1c1.2-1.5,0-2.3-1.3-2.8 c0.6-0.2,2.4-0.5,2.7-1.2c0.7-1.5-1.5-1.3-1.7-2.1c0.9-0.1,1.8-0.1,2.7-0.1c0.8,0,1.5-0.1,2.3-0.2c0.7-0.7-1.6-1.7-2-2 c0.5-0.6,1.1-0.1,0.8-1.2c-0.4-0.9-0.9-1.7-1.6-2.4c-0.7-0.9-1.4-1.8-2.3-2.6c-0.6-0.6-1.2-0.8-1.9-1.2c-0.6-0.3-1.7-0.7-2-1.3 c1.5,0.3,3,1.5,4.6,1.4c-1.2-0.9-3.7-1.6-3.6-3.5c0.2-0.2,0.3-0.4,0.2-0.7c0-0.6,0-1.2,0-1.8c0-1.2-0.3-1.5-1.5-1.6 c-1.2,0-1.8,0.1-2.8-0.6c-0.8-0.5-1.5-1.1-2.4-1.4c-2.8-1-5.9-0.8-8.8-1.2c-2.6-0.4-5.2,0.2-7.7,0.9c-2.7,0.8-5.3,1.6-7.9,2.5 c-1.5,0.5-3,0.9-4.5,1.4c-2.8,0.9-5.6,2-8.4,3.2c-5,1.9-10.5,3.3-15.9,3.9c-5,0.6-10.1,0.3-15.1,0.3c-11.8,0-23.6,0.3-35.5,0.3 c-5.4,0-10.7,0-16.1,0c-3.5,0-7,0-10.5-0.1c-2.4-0.1-4.9-0.3-7.3-0.5c-1.5-0.1-3-0.1-4.6-0.1c-0.5,0-1.3,0.1-1.8,0 c-0.4-0.1-0.7-0.4-1.1-0.5c-0.4,0-0.8,0-1.1,0c-1.1,0-2.2-0.2-3.3-0.4c-0.7-0.1-1.1-0.2-1.5-0.9c-0.3-0.7-0.3-1.1-0.9-1.5 c-1.3-0.9-2.7-1.1-4.2-1.4c-0.4-0.1-0.9-0.2-1.3-0.3c-0.6-0.3-0.8-0.3-1.5-0.3c-1.8,0-3.5-0.5-5.3-0.6c-3.2-0.2-5.9,0.9-8.9,1.7 c-1,0.3-2,0.1-3,0.4c-1.2,0.4-2.6,0.8-3.5,1.6c0.4,0.6,1,0.4,1.5,0.7c0.4,0.2,0.3,0.4,0.7,0.6c0.4,0.1,0.8,0.1,1.3,0.3 c0.4,0.2,0.8,0.2,1.2,0.3c0,0.2,0,0.4,0,0.6c0.1,1.1,1,1.9,1.8,2.5c1,0.7,1.4,0.5,2.3,0.8c0.3,0.1,0.8,0.5,1.2,0.7 c-1,0.2-1.9,0.4-2.9,0.5c-0.5,0.1-2.7-0.1-3.2,0.4c0.1,0.2,0.3,0.3,0.5,0.3c-0.8,0.1-3.3,0-3.8,0.8c-0.4,0.7,1,0.8,1.4,0.8 c-0.5,0-1,0.2-1.4,0.3c0,0.4,2.2,1.1,2.2,1.1c1.7,0.7,3.3,1.6,5.2,1.9c0-0.3-6.8,0.4-7.5,0.5c0,3.1,4.6,2.9,6.5,3.4 c-0.4,0.2-1,0.2-1.5,0.2c0.4,0.7,1.8,1,2.4,1.1c1.7,0.5,3.7,0.7,5.2,1.8c-0.4,0.8-1.4,0.4-1.8,0.9c0.1,0.7,0.4,1.2,1.1,1.6 c0.5,0.3,1,0.6,1.5,0.9c0.8,0.3,1.6,0.6,2.4,0.9c0.2,0.2,0.3,0.4,0.3,0.6c0.2,0.4,0.7,0.6,0.8,1c-0.5,0.7-1.5,0.5-1.5,1.4 c-0.1,0.8,0.5,1.4,1.2,1.7c0,0.1-0.1,0.2-0.2,0.3c0.5,0.4,0.9,0.2,1.1,1c-0.1,0.2,0,0.5,0,0.7c0.2,0.3,0.8,0.3,1.1,0.4 c0.1,1-1.8,3-2.3,3.5c-1.1,1.1-2.3,2-3.5,2.9c0.2,0.1,0.3,0.1,0.5,0c0.8,0,1.7-0.1,2.5,0c0.3,0.4-1.1,1.8-1.1,1.8 c-0.9,1-1.9,1.8-3,2.7c0.3,0.2,0.7,0.3,1.1,0.2c1,0,1.9-0.1,2.9,0.1c0.2,1.5-1.6,2.6-2.1,4c1.5,0.7,3.6,0.2,5.2,0.3 c-0.2,0.6-0.7,1-1,1.6c0.5,0.2,1.1,0,1.6,0c-0.7,1.1-1.1,2.2-1.2,3.5c0.4,0.3,1,0.4,1.5,0.2c2,0.1,4-0.1,6-0.5 c0.3,0.7-1.9,2.4-2.2,3.2c-0.4,0.9-0.2,2-0.2,3c0,0.6,0,1.3,0,1.9c0.2,0.2,0.4,0.2,0.6,0c0.5-0.1,0.8,0.2,0.8,0.8 c0.3,1.2-0.6,2.6-0.9,3.7c0.9,0,1.6-1,2.2-1.5c-0.1,1.1-1.4,2.3-1,3.5c0.6-0.2,1-0.7,1.6-0.9c-0.2,1.2-1.3,2.5-1.1,3.7 c0.8,0,1.6-0.2,2.3-0.7c0.9-0.6,1.8-1.1,2.7-1.4c0.5,0.2,0.7,0.5,0.5,1.1c0.3,0.6,1,0.4,1.6,0.4c0.1,0.5,0.1,1,0,1.6 c0,0.4,0,0.9,0,1.3c0.3,0.3,0.8,0.2,0.9-0.3c0,0.4-0.3,1.9,0,2.2c0.7,0.6,0.8-0.2,1,1.3c0.1,0.9,0.1,1.9,0,2.8 c-0.1,0.5,0,0.9,0.2,1.2c1.2,0.9,2.6-1.2,3.2-1.9c0.5,2.1,0.1,4.3,0.2,6.5c0,0.6,0.1,1.1,0.2,1.7c0.1,0.5-0.2,1.5,0.2,1.9 c1.4-0.2,1.9-1.4,2.6-2.5c0.7-1.1,1.4-2.1,2.3-2.9c0.4,0.2,0.4,1.8,0.5,2c0.2,1.3,0.4,2.7,0.9,3.9c0.6,0.1,0.8-1.4,0.9-1.9 c0.5,0,1,2.1,1.1,2.3c0.2,0.6,0.4,1.7,1,2.1c1.5-0.3,1.1-3,2.4-3.8c0.5,1,0.6,2.3,1.5,3.1c0.5-0.1,0.7-2.7,0.8-3.2"/> <path class="st6" d="M453.7,284.2c0,0,3.1-13.1,12.5-17.5s28,2,26.5,16.8s-10.3,18.8-20,18.8S453.7,299.2,453.7,284.2z"/> <path class="st7" d="M486.6,279.3c0,0,11.1,15.4-10.8,22.8v-9.8L486.6,279.3z"/> <radialGradient id="SVGID_2_" cx="470.5875" cy="284.2491" r="17.4466" gradientUnits="userSpaceOnUse"> <stop offset="0" style="stop-color:#F7AC15"/> <stop offset="1" style="stop-color:#7E4118"/> </radialGradient> <path class="st8" d="M468.7,266.2c-0.5,0-1,0-1.4,0.1c-0.4,0.1-0.7,0.3-1.1,0.4c-9.4,4.4-12.5,17.5-12.5,17.5c0,15,9.3,18,19,18 c1.1,0,2.1-0.1,3.1-0.2c6.8-2.8,11.6-9.4,11.6-17.2C487.5,274.6,479.1,266.2,468.7,266.2z"/> <ellipse cx="468.1" cy="284.8" rx="8.9" ry="8.6"/> <ellipse class="st9" cx="472.2" cy="283.6" rx="3.7" ry="3.6"/> <path class="st1" d="M335.4,283.9c0,0-4.4-11.7-5.3-15.4c-0.8-3.7-2.9-9.8-13.6-9.8c-10.7,0-20.5,10.2-20.5,19.2 c0,9,5.9,20.5,19.5,18C329.1,293.2,335.4,283.9,335.4,283.9z"/> <path class="st7" d="M303,276.4c0,0-6.1,7.2,2,14.2l1.8-4.1L303,276.4z"/> <radialGradient id="SVGID_3_" cx="318.8882" cy="279.2978" r="16.6689" gradientUnits="userSpaceOnUse"> <stop offset="0" style="stop-color:#F7AC15"/> <stop offset="1" style="stop-color:#7E4118"/> </radialGradient> <path class="st10" d="M335.4,283.9c0,0-4.4-11.7-5.3-15.4c-0.3-1.3-0.7-2.8-1.6-4.3c-2.3-1-4.9-1.6-7.6-1.6 c-8.7,0-16,5.9-18.1,13.9c-0.4,1.5-0.6,3.1-0.6,4.7c0,2.6,0.5,5,1.5,7.2c1.3,3,3.3,5.6,5.9,7.6c1.8,0.2,3.7,0.2,5.9-0.2 C329.1,293.2,335.4,283.9,335.4,283.9z"/> <circle cx="320" cy="277.6" r="8.1"/> <circle class="st9" cx="327.2" cy="276.7" r="2.4"/> <ellipse transform="matrix(0.2778 -0.9606 0.9606 0.2778 -40.541 492.9716)" class="st9" cx="307.6" cy="273.4" rx="3.6" ry="1.8"/> <path d="M477.3,452.6c0,0-3.7-3-3.7-6.7c0-3.7-4.7-10-11.3-10c-6.7,0-75.4,3.9-75.4,3.9l-57.2-1.9l-14.6,4.3c0,0-6.7,12-3.7,22.3 c2.3,8,6.5,21.5,10.6,29.4c0-0.1,0.1-0.3,0.1-0.4c7.7,9.8,16.9,0.2,16.9,0.2l1.1,6.9c0,0-7.8,15.6,15.6,15.6c23.4,0,39,3,46.3,0.3 c6-2.2,19.2-1.7,24.7-4.6c-0.1-1.8-0.3-3.7-0.3-5.5c0-6.9,1.7-3.4,8.6-3.4c2.2,0,3.7,0.5,5.1,0.8c3.2-1,7.7-2.7,9.9-4.9 c3.7-3.7,6.7-6.7,6.7-11c0-4.3,4.7-6.7,4.7-11.7c0-5,8.3-11.7,9.7-17C472.3,453.9,477.3,452.6,477.3,452.6z"/> <path class="st3" d="M414.4,501.7c0,0-5.9,7.3-13.4,5.5c0,0-5,3-11.8,0c0,0-5.5,3.8-9.3,0c0,0-5.4,2.6-8,0c0,0-7.8,1.5-11.8-2.5 c0,0-12.4,0.8-12.4-7.1l0.1-7.7l8.5-4l22,2l19.3-0.8l11.3-0.8l4,1.3L414.4,501.7z"/> <path class="st3" d="M414.4,501.7c0,0-8.3-2.4-4.1-12.8c4.1-10.4,15.4-28,17.2-18.2C429.3,480.6,419.2,504.3,414.4,501.7z"/> <path class="st3" d="M354.8,488.7c0,0-7.8,15.8-13.3,7.6s-5-27,0-27S351.9,473.8,354.8,488.7z"/> <path class="st11" d="M352.2,445.3c0,0-0.2,12.5-0.2,22.4c0,9.9-0.4,22.1,8.1,25s16.4,7.6,31.7,5.2c15.3-2.3,18.9-10.5,18.9-10.5 s2.6-8.3,6.8-12.8c0,0,1.9-16.3,0-26.4C415.7,438,352.2,445.3,352.2,445.3z"/> <path class="st12" d="M411.2,459.1c0.2-0.1,0.5-0.1,0.8-0.1c0.7-0.4,0.6-0.4,1-1.2c0.4-0.8,0.9-1.7,1.3-2.5c0.2-0.6,0.2-1,0.4-1.6 c0.3-0.8,0.9-1.2,1.1-2c0.2-0.5,0.3-0.9,0.5-1.5c0.3-0.8,0.4-1,0.4-1.9c0-0.6,0.1-1.4,0.1-2.1c-7.7-8.1-64.5-1.5-64.5-1.5 s0,0.1,0,0.2c0.4,0.7,0.8,1.5,1.2,2c0.8,0.9,1.9,1.2,2.5,2.3c0.5,1.1,0.5,2.5,0.3,3.7c-0.3,2.3-1.2,4.5-1.7,6.7 c-0.5,1.8-0.7,3.3-1.6,5c-0.3,0.5-0.8,1.2,0,1.7c1,0.6,2.3-2.1,2.6-2.7c0.5-1.1,0.8-2.3,1.7-3.1c0.9-0.7,2.3-0.5,3-1.3 c-0.1,1,0.1,2,0,3c-0.2,1.4-1.3,2.3-2,3.4c-1.3,2-3.5,3.5-4.4,5.8c1.7,0.4,3.2-1.8,4.4-2.7c1-0.7,2.3-1,3.2-1.9 c1-1,1.6-2.5,2.3-3.7c0.5-0.9,1.5-2.3,2.5-2.7c1.8-0.7,2.4,1.2,3.9,1.9c0.8,0.4,1.1,0.1,1.3,1.1c0.2,1.2-0.6,2.7-1.3,3.6 c-0.9,1.3-2.2,2.1-3,3.4c-0.5,0.8-1,1.7-1.7,2.3c-0.4,0.4-0.9,0.4-1.3,0.8c-1,0.9-1.6,2.4-2.5,3.5c-0.7,0.8-1.7,1.8-1.7,2.9 c0.5-0.4,0.9-0.9,1.3-1.4c0.9-1,2.2-1.3,3.1-2.1c0.4-0.4,0.8-1,1.3-1.5c1.3-1.3,2.1-2.4,3.9-2.8c1.9-0.4,4.3-0.9,5.9-2.3 c1.1-0.9,2-2.4,2.8-3.6c0.6,0.2,0.7,0.7,0.7,1.4c0.1,0.9,0.2,1.3,0.5,2.2c0.9,2.2,1.7,4.5,2.9,6.6c0.6,1,1,2.2,1.4,3.4 c0.5,1.6,0.1,3.1,0.4,4.7c0.2,1.1,0.5,4.6,1.9,4.8c0.4-1.5,0.1-3.5,0.1-5v-5.1c0-1.5,0-3.1,0-4.7c0-1.7,0.2-4,1-5.5 c1.3,0.2,2.4,1.5,3.3,2.4c0.7,0.8,1.5,1.5,2.3,2.3c0.5,0.4,1,0.7,1.5,1c0.4,0.5,0.6,0.8,1.2,1.3c0.8,0.6,1.9,0.8,2.6,1.5 c1,1,2,2.3,2.6,3.6c0.5,1,0.9,2.3,2.1,2.4c0.2-1.7-1.3-3.8-2-5.2c-0.9-1.8-1.9-3.7-3.1-5.3c-0.9-1.2-3.1-3-2.5-4.7 c0.6-0.2,1.2-0.2,1.8-0.4c0.7-0.3,1.3-0.5,2-0.6c0.6,0,1.5,0.2,2,0c0.6-0.2,0.7-0.7,1.2-1.1c1.4-1.1,2.6,0.7,3.8,1.5 c0.9,0.6,1.6,1.2,2.4,1.9c0.4,0.3,1.4,1.1,1.7,1.1c-0.8-1.7-0.6-3.3-0.7-5.1c0-1.4,0.2-2.9,0.5-4.2 C410.1,460.6,410.6,459.5,411.2,459.1z"/> <path class="st13" d="M466.3,458.7c-1-0.5-2-0.8-2.9-1.2c-0.6-0.3-1.3-0.7-1.9-0.9c-0.5-0.2-0.9-0.1-1.4-0.4 c-0.5-0.3-1.1-0.9-1.4-1.4c-0.3-0.5-0.2-1-0.7-1.5c-0.5-0.6-0.8-0.7-1.6-0.7c-0.3,0-1.2-0.1-1.4,0.1c-0.3,0.3,0.6,2.1,0.8,2.5 c0.4,0.7,0.5,1.5,1,2.1c0.7,0.9,1.4,1.7,1.9,2.6c0.2,0.4,0.3,1,0.6,1.3c0.3,0.1,0.5,0.2,0.7,0.3c0.2,0.2,0.4,0.5,0.6,0.8 c0.5,0.7,1,1.5,1.3,2.3c0.1,0.3,0.3,0.6,0.4,0.9c0.2,0.1,0.3,0.2,0.3,0.4c0,0.3,0.1,0.6,0.1,0.9c0.2,1,1.1,1.5,1.9,2.1 c1.6-2.2,3.5-4.5,4.8-6.6C468.8,460.9,467.9,459.5,466.3,458.7z"/> <path class="st13" d="M402,516.5c0.6-0.2,1.3-0.4,2-0.6c-0.1-0.8-0.3-1.7-0.3-2.4c-0.1-0.8-0.5-1.9-1.4-2.1c-0.6-0.2-1.4,0-2,0 c-0.6,0-1.1-0.1-1.7,0.1c-0.9,0.2-1.9,0.7-2.8,1.1c-1.2,0.5-2.1,0.8-3.5,0.8c-0.5,0-0.9,0-1.4,0.1c-0.9,0.2-1.7,0.2-2.6,0.2 c-0.9,0-1.8,0.2-2.7,0.4c-0.4,0.1-1.4,0.1-1.7,0.5c-0.2,0.3,0,0.8,0,1.1c0-0.1,0.3,0.7,0.2,0.6c0.2,0.4,0.6,0.8,1,1.2 C392.8,517.8,398.4,517.8,402,516.5z"/> <path class="st13" d="M349.5,504.7c-0.4-0.3-0.7-0.4-1-0.8c-0.6-0.6-1.2-1.2-1.8-1.6c-0.4-0.3-0.7-0.4-1.2-0.6 c-0.3-0.2-0.6-0.3-0.9-0.5c-0.2,0-0.4-0.1-0.5-0.1c-1-0.5-1.8-1.6-2.9-2c-0.4-0.2-0.8-0.2-1.1-0.4c-0.1-0.1-0.2-0.2-0.3-0.2 l0.4,2.2c0,0-0.6,1.3-1,3.1c0.3,0.2,0.6,0.2,1.1,0.4c0.4,0.1,0.6,0.3,1,0.5c0.4,0.2,1,0.1,1.4,0.3c1,0.4,1.5,1.2,2.2,2 c1.4,1.5,2.8,2.8,5,2.8c0.9,0,1.4-0.2,1.4-1.1c0-1.1-0.1-1.9-0.8-2.7C350.1,505.6,349.8,505,349.5,504.7z"/> <path class="st13" d="M322,475.3c-0.2-0.5-0.2-0.7-0.3-1.2c-0.3-1.5-1.3-2.9-1.6-4.4c-0.4-1.5-1.3-2.4-2-3.7 c-0.5-0.9-0.8-1.8-1.2-2.8c-0.2-0.6-0.4-1.1-0.8-1.5c-0.5-0.6-1-1.3-1.4-2c-0.5-0.9-1.1-2-1.7-2.9c-0.5-0.8-1.1-1.9-2.1-2.1 c-0.5,3.2-0.5,6.7,0.4,10c1.1,3.8,2.7,8.9,4.4,14.1c0.4,0.1,0.7,0.1,1.1,0.1c1.2,0,2.2,0,3.3-0.3c0.8-0.3,1.9-0.2,2-1.3 c0-0.3,0.1-0.8,0-1.1C322.3,475.7,322.2,475.5,322,475.3z"/> <path class="st5" d="M342.1,467.6c0,0.5-0.1,1.1,0,1.6C342.1,468.7,342.1,468.1,342.1,467.6z M311.5,453.5c0.2-0.1,0.3-0.3,0.4-0.5 c-0.1,0-0.2,0-0.3,0C311.4,453.1,311.3,453.3,311.5,453.5z M388.5,292.4c0,0.5-0.1,1.1,0,1.7C388.5,293.4,388.5,292.8,388.5,292.4z M416.7,467.1c0.1-0.9,0.1-1.7,0-2.5C416.6,465.6,416.7,466.8,416.7,467.1z M456.6,453.3c9.9-12,12.9-39.4,1.9-67.8 c-11.6-29.8-29.2-65-44.1-72.2c0,0-0.1,0-0.1-0.1c0.2-0.2,0.4-0.4,0.7-0.9c0.3-0.5,1.1-1.6,0.4-2.2c-1.5,0.2-3.1,0.4-4.6,0.5 c-0.6,0.2-1.2,0.3-1.8,0.3c-0.6-0.2-1.2-0.4-1.8-0.6c1.1-1,3-2.8,0.8-3.2c-1.5-0.3-3.1,0.5-4.6-0.1c0.1-1.3,1.2-3.7,0.4-4.8 c-0.4-0.5-1.3-0.1-1.5-1.1c-1-0.1-2.5,1.5-3.3,0.6c0.1-0.4,0.1-0.7,0-1.1c-0.5,0-1-0.1-1.5-0.2c0-0.3,0.2-0.6,0.4-0.9 c-1.4-0.4-2.8,0.1-4.1-0.1c-0.6-1.5,2.4-3.7,1.1-5.1c-0.8,0.5-1.5,1-2.2,1.5c-0.7,0.6-1.3,0.5-1.7-0.2c0-0.5-0.3-0.7-0.7-0.6 c-0.5,0.1-1,0.1-1.5-0.1c-0.1-0.3-0.1-0.6-0.1-0.9c-0.2,2.4-1.2,6.2-2.6,6.6c-1.7,0.5-2.3-4.4-2.9-5.4c-1.2,1.4-1.4,1-2.3-0.6 c-0.2,0.4-0.4,0.8-0.4,1.2c-0.3-0.6-0.4-1.3-0.6-1.9c0,1.1,0.6,3.9-0.5,4.5c-0.9-1.2-1.2-4.5-3.2-4.2c-0.3,1.5-0.1,2.9-0.4,4.4 c-0.9,0.4-1-0.7-1.3-1.3c-0.1,0.5,0,1.3-0.5,1.6c-0.3-0.8-0.6-1.7-1.1-2.4c0.7,1.1,0.5,3.3,0.2,4.6c-1.3,0.4-1.9-1.2-3-1.5 c-0.1,0.3-0.3,0.5-0.6,0.7c-0.5-0.1-1-0.3-1.4-0.7c0.2,0.5,0.2,1.1-0.2,1.4c0.4,1,0.6,2,0.8,3.1c-1.5,0.2-3.4-2-4.4-2.9 c0.7,1.3,1.6,2.8,1.1,4.4c-0.9,0-1.9,0-1.9,1.2c-0.1,1.3,0.6,1.1-0.4,2.2c-0.6,0.7-1.1,0.3-1,1.5c0.1,0.5,0.3,0.9,0.6,1.3 c0.2,0.4,0.4,0.9,0.7,1.4L352.4,324c-11.3,11.3-25.1,25.1-27.8,39.4c-2.8,14.3-25.9,46.9-20.4,63.9c1.8,5.5,4,11,6.8,15.7 c0.1,0.3,0.3,0.6,0.3,0.9c0.2,0.7-0.1,1.6,0.2,2.2c0.3,0,0.6,0,0.9,0c0.2,1,0.1,2.2,0,3.1c0,0.4-0.1,2.6-0.5,3.6 c0.5,0.2,0,1.6,0.8,1.6c0.3-0.6,0.5-0.1,0.8,0c0.3,0,1-0.1,1.2,0.1c0.5,0.4,0,1.5,0.7,1.7c0.4,0.1,0.7-0.3,1-0.5 c0.6,0.4,0,1.2,0.6,1.7c2.2-2.7,0.7,1.8,1.7,2.1c0.2-0.5,0.1-1.6,0.7-1.7c1.2-0.2,0.7,2.4,1.3,3.1c0.7-0.1,0.7-1,1.2-1.4 c1.2,0.2,0.6,1.6,0.9,2.4c0.7-0.1,0.5-1.3,1.3-1.4c0.8-0.1,0.7,0.9,1.7,0.8c1-0.1,0.6-1.2,1.7-1.4c1.7-0.3,1.5,2.5,2.6,3.1 c0.2-0.1,0.3-0.2,0.4-0.4l0.3-0.3c0.3-0.1,0.6,0,0.8,0.2c0.6,0,1.3-0.2,1.2-0.9c0.5-0.2,1.1,0.2,1.5,0.2c0.1-0.2,0.2-0.3,0.4-0.3 c0.5-0.1,0.9,0.4,1.3,0.5c0-0.3,0.1-0.5,0.1-0.8c0.5-0.1,1,0.5,1.2,0.9c0.1-0.2,0.1-0.3,0.1-0.5c1.2-0.8,3.1,3,3.7,3.6 c0.5-0.3,0.1-0.8,0.5-1c0.5,1,0.5,2.2,0.5,3.3c0.1-0.8,0.2-1.6,0.3-2.4c1.3,0.3,1.9,2.8,2.3,4c0-0.9-0.5-3.3,0.1-3.9 c1.2,0.2,1.3,2.7,2,3.6c0.2-0.6,0.5-0.6,1-0.5c0.2-1,0.3-2.1,0.2-3.2c0-1.4-0.3-2.8,0.5-3.9c0.8,0,1.7,0.9,1.8,1.7 c-0.1-1.3-0.2-2.7,0-4c0.1-0.5,0.4-2.4,0.7-2.6c0.1-0.1,0.9-0.3,1-0.4c0.6-0.1,1-0.2,1.3-0.5c0.2,0.2,0.5,0.4,0.8,0.4 c0-0.3,0-0.8,0-1.2c0.7-0.9,1.6-2,2.6-2.6c0.2-0.1,0.4-0.1,0.6-0.1c0.1-0.1,0.2-0.2,0.3-0.3c0.8,0,1.9-0.2,2.7,0 c1.2,0.3,1.4,0.8,2.1-0.5c0.3,0.3,0.5,0.7,0.8,1c0.7-0.3,1.2-0.5,2-0.6l0.2-0.9c1.6,0,1.5-1,2.5-2c1,0.5,1.2,0.1,2-0.3 c0.2-0.4,0.5-0.6,0.9-0.6c0.5-0.2,0.7,0.2,1.1-0.3c0.1,0.3,0.5,0.6,0.6,0.9c0.6-0.3,0.9-0.8,1.1-1.5c0.3-0.8,0.8-1.2,1.6-1.3 c0.5-0.3,1.7-1.4,2.4-1.4c1.1,1.6,0.5,3.7,1.5,5.4c0.9,0.1,1.2-0.9,1.2-1.7c0.4,0,1.7-0.5,2-0.4c0.7,0.2,1,1.1,1.8,1.3 c1,0.3,1.5-0.4,2.3-0.1c1,0.3,1.5,0.7,2.5,0.8c0.1,0.5,0.1,0.9,0.1,1.4c1.5,0.7,3.8-1.5,5.3-1.9c0.2,0.2,0.3,0.5,0.2,0.8 c0.9,0.3,1.8,0,2.7,0.2c0,0.3,0,0.6,0.1,0.9c0.6,0.1,1.2,0.2,1.8,0.2c0.4,0.1,0.6,0.3,0.8,0.6c0.1,0.3,0.3,0.4,0.7,0.4 c0.6,0.2,1.1-0.3,1.7,0.1c0.3,0.3,0.5,0.6,0.7,0.9c0.3,0.1,0.6,0.1,0.8,0.2c0.1,0.3,0.3,0.6,0.6,0.9c0.4,0.2,0.8,0.2,1.3,0.2 c0,0.2,0.1,0.4,0.2,0.5c0.7,0.9,1.6,0.2,2.5-0.7c0.6-0.1,1.1,0.1,1.5,0.6c0,0.3,0.1,0.7,0.1,1c0.3,0.2,0.6,0.4,1,0.5 c0.3,0.2,1,1.1,1.2,1.2c0.3,0.2,0.6,0.2,1,0.1c0.2,0,0.4,0.1,0.6,0.1c0,0,0,0,0,0c0.6,0.6,0.3,1.7,0.5,2.4c0.5,0.1,0.8,0.1,1.2,0.5 c0.3,0.9,0.6,1.9,0.9,2.9c0.1,0.4,0.1,0.7,0.2,1.1c0-0.7,0.1-1.2,0.3-1.2c0.2,0.9,0.2,1.9,0.3,2.8c0.1-0.1,0.4-0.4,0.7-0.3 c0,0.3,0.1,0.6,0.1,0.9c0.2-0.1,0.3-0.3,0.3-0.6c0.9-0.3,0.6,2,0.7,2.4c0.4-0.5,0.3-1.2,0.6-1.8c1.3,0,1,2.8,1.9,3.4 c1.3-0.2,1.3-2.9,2.1-3.7c0.6-0.6,0.4-0.6,0.8,0.4c0.3,0.8,1.3,2,2.3,1.6c1.2-0.4,0.3-2.4,0.6-3.4c1.3,0.1,1.1,2.8,1.6,3.6 c0.2-0.7,0.2-1.5,0-2.2c0.1,1.5,0.8,3,0.7,4.5c0.1-0.6,0.2-1.2,0.3-1.8c0-0.3-0.1-1.7,0.3-2c1,0.6,1.7,1.8,2.3,2.8 c0.4,0.7,0.9,1.9,1.8,2.1c0.2-1.3-0.2-2.5,0.2-3.8c1.1,0,1.9,0.6,2.6,1.4c1-0.5-0.8-2.9-0.2-3.3c0.8,0.5,1.4,1.1,2.4,1.3 c0.2-1.3-0.1-2.6-0.1-3.8c2.1,0.4,3.8,2,6,1.4c0.1-0.8-0.5-2.6,0.3-3c0.8,0.4,1.6,0.8,2.4,1.3c0.3,0.3,0.6,0.5,1,0.5 c0.1-0.6-0.3-2,0-2.4c0.5-0.6,2.1-0.3,2.8-0.2c0.3-0.6-1.1-2.5-1.4-3.2c0.1,0,0.2-0.1,0.3-0.1c0.7-0.1,1.5,0.5,2.3,0.3 c-0.1-0.4-0.1-0.7,0.2-1c0.3-0.1,0.7-0.2,1-0.2c1.1-0.1,2.3-0.2,3.4-0.5c0,0,1.8-0.4,1.9-0.8c-0.3-0.7-0.8-1.2-1.3-1.7 C457.7,453.8,457.2,453.5,456.6,453.3z"/> <path class="st14" d="M340.2,385.5c-1.1,0.4-1.8,1.3-2.7,2.1c-0.8,0.7-4.2,2.7-4.3,3.9c0.6,0.2,1.2-0.1,1.8,0.1 c-0.2,0.2-0.3,0.5-0.1,0.8c1.3,0.2,1.6-0.1,1.9,1.1c0.4,1.8-1.3,1.2-1.5,2.4c1.1,0.4,2.2-0.4,2.5,1.1c0.5,2.1-1.3,3.6-1.5,5.5 c0.4,0,0.8-0.1,1.2-0.2c-0.3,2.3-1.9,3.3-3.1,5.1c0.3,0,0.6,0.1,0.8,0.2c-0.2,1.2-1.3,1.8-1.5,3c2,1,4.4,0.3,6.4-0.1 c-1.8,1.4-3.7,2.7-5.4,4.2c0.7,0.4,1.6-0.4,2.1-0.2c0.8,0.4,0.3,1.5,0.5,2.3c0.3-0.2,0.6-0.3,0.8-0.5c0.4,1.4-0.7,2.9-0.3,4.2 c0.4-0.4,0.9-0.6,1.4-0.6c1.1,2.6,0.2,6.6-1.1,9.1c0.6-0.6,0.6,0.2,0.5,1.1c-0.1,1-0.4,2.2-0.8,3.1c1-1.3,2.1-2.3,3.5-3.1 c1,1-1,3.1-0.8,4.1c0.3-0.5,0.5-1.1,1.1-1.4c0.3,2.3,0.1,4.6,0.1,7c0,0.5-0.3,2.8,0.1,3.5c1-0.9,0.8-3.3,1.5-4.6 c0.5,0.2,0.4,0.8,0.3,1.4c0.3-0.5,0.5-1.1,0.6-1.7c-0.1,1.4-0.2,2.9,0,4.3c0.8-2.7,2-4.7,3.8-6.8c0.8,1.4-0.2,3.4,0.2,5 c1.6-1.9,1.5-5,3-7c-0.1,2.2-0.6,5.2,0,7.4c1.9,0.5,2.4-4.2,3-5.3c1.2,1.7,0.5,4.5,1.1,6.5c2-0.9,2.6-3.8,4.1-5.3 c0.7,1.1,0.5,2.2,1.1,3.4c2.3,0.1,3.6-3.6,3.8-5.4c0,0.9-0.7,6.2,0.4,6.2c1.1-1.1,0.5-3.3,1.1-4.7c0.7,1,0.7,2,1,3.1 c1.9-1,1-6.1,2.3-6.5c0,0.9,0,2,1,2.4c0.9-0.7,0.6-1.8,1.1-2.7c0.7,0.9,1.3,3.6,2.6,3.7c1.7,0.2,0.9-2.4,1-3.7 c1.2,0.8,2.5,4.1,3.1,5.1c0.9,1.4,1.7,2.8,2.6,4.2c2.1-0.7-0.6-4.4,1.3-5.3c1.7-0.8,4.1,2.4,5.1,3.1c1.6,1.2,3.7,2.9,5.8,3.1 c0.3-1.2-1.1-1.8-1-2.9c1.4,1.1,3.7,5.9,6,5.1c1.9-0.6-0.7-5.6-0.4-7.1c1.5,0.8,2.4,2.8,3.7,3.9c0.9,0.7,3.1,2.5,4.5,1.6 c-0.3-1.5-1.2-2.9-1.1-4.4c4.6,3.6,9.6,8.4,15.7,8.9c1.3-1.6-1.8-4.6-2.5-6c0,1.2,1.6,3.8,2.6,4.4c0.2-1.7-1-3.5-1.8-4.9 c2.1-0.5,5.6,2.7,7.6,1.2c2-1.4-3.9-7.8-4.6-9.4c1.1,0.1,1.7,1.1,2.8,1.2c0.9-1.5-0.7-4.1-1.2-5.4c-0.5-1.2-2.1-3.8-1.5-5.2 c1.4,0,2.9,0.1,4.3,0.4c1.2,0.1,2.5,0.2,3.7,0.3c1.1-0.5,0.5-4.7,0.2-5.6c-0.3-0.8-0.7-1.5-1.3-2.1c0-0.2,0.1-0.4,0.3-0.5 c-0.2-1.3-1.3-2.6-1.3-3.8c1.2,0,2.3,0.8,3.5,0.6c1.5-0.2,1.2-0.8,1.2-1.8c0-1.8-0.2-3.7-0.5-5.4c0.4-0.3,2.2,0.8,2.8,0.9 c-0.1-1-2.2-2.6-2.8-3.4c-0.4-0.6-1.3-1.9-1.2-2.8c0.6,0,1.2-0.1,1.7-0.1c0.4-1-0.7-1.7-0.8-2.7c-0.2-1,0.3-2,0-3 c-0.3-0.8-0.9-1-1.3-1.7c-0.3-0.4-0.3-1-0.7-1.4c-0.7-0.8-2-2.1-2.9-2.6c-1.9-1.2-5.3-1-7.4-1c-6.7,0-13.4-0.1-20.2,0 c-2.5,0-4.9-0.5-7.4-0.5c-4.8,0-9.6,0-14.4,0c-3.3,0-6.6,0-9.9,0c-2.5,0-4.8-0.4-7.3-0.9c-1.2-0.2-2.2-0.1-3.4-0.5 c-1.4-0.4-2.8-0.8-4.1-1.1c-1.3-0.3-2.2-0.5-3.5-0.5c-1.4-0.1-2.5-0.8-4.1-0.5c-0.9,0.2-1.5,0.3-2.5,0.5c-0.4,0.1-1,0.4-1.3,0.5 c-0.7,0.2-1.5,0.1-1.6,1"/> <path class="st14" d="M353.4,360.6c-0.5-0.6-0.8-1.4-1.2-2.1c0.7-0.2,1.4,0.3,2.1,0.4c0.2-0.5,0.1-1-0.2-1.5 c-0.1-0.4-0.6-1.3-0.4-1.7c0.1,0,0.4,0.1,0.5,0c0.3-0.1,0.1-0.8,0-1c0,0.1,0,0.2,0,0.3c0.2-0.1,0.1-0.5,0.3-0.6 c0.2-0.1,0.5,0.1,0.7,0.1c0.1-0.3-0.2-0.7,0.2-0.9c0.2,0.1,0.4,0.5,0.7,0.4c0.3-0.1,0.1-0.8,0.2-1.1c0.3,0.3,0.6,0.7,1.1,0.7 c0.3-0.4,0.1-0.9,0.2-1.3c0.3,0.3,0.6,0.5,1,0.5c0.2-0.5,0.1-1.1,0-1.6c0.6,0.5,1.8,1.6,2.7,1.2c0.6-0.3,0.2-1.3,0-1.1 c0.1,0.2,0.2,0.3,0.4,0.3c0.2-0.4-0.2-1.2,0.1-1.5c0.2,0.2,0.5,0.6,0.8,0.7c0.2-0.4,0.2-1,0.1-1.5c0.2,0,1,0.7,1.1,0.8 c0.3,0.2,0.9,0.7,1.4,0.6c0.1-0.5-0.2-1.1,0-1.5c0.2-0.7,0.7,0,1.3,0c0.5-0.6,0.1-2,0.1-2.7c0.5,0.2,0.7,0.9,1.2,1.2 c0.3-0.2,0.1-0.8,0.2-1.2c0.5,0.4,1.6,1.9,2.3,1.6c0.2-0.6,0-1.2,0.1-1.9c0.8,0.7,0.5-0.9,0.8-0.9c0.9,0.7,1.4,1.6,2,2.4 c0.8-0.2,0.3-2.1,0.4-2.7c0.7,0.5,0.8,1.5,1.5,2c0.4-0.3,0.3-0.9,0.4-1.3c0.8-0.1,1.1,1.2,1.7,1.5c0.2-0.1,0.1-0.4,0.2-0.6 c1.6,0,1.9,2,2.9,2.8c0.5-0.3-0.2-1.1,0.4-1.4c0.5,0.5,0.9,1.1,1.2,1.7c0,0.1,0.5,1.3,0.9,1.3c0.4-0.5,0-1.4,0.4-1.8 c0.3-0.3,0.7,0.4,1,0.3c0.3,0,0.2-0.2,0.5-0.2c0.1,0.1,0.3,0.1,0.4,0.2c0.3,0,0.3-0.2,0.5-0.3c0.3,0.2,0.3,0.6,0.4,1 c0.3,0.1,0.5-0.3,0.8-0.3c0,0.1,0.1,0.1,0.2,0.2c0.3-0.1,0.6-0.2,0.8-0.4c0,0,0.7-0.8,0.8-0.7c0.4,0.1,0.2,1.2,0.5,1.5 c0.4-0.3,0.3-0.9,0.6-1.3c0.4,0.1,0.4,0.3,0.9,0.1c0.4-0.2,0.8-0.7,0.7-1.1c0,0.4-0.1,1.1,0.2,1.4c0.4-0.1,0.8-0.4,1.1-0.8 c0.6-0.7,0.7-1.6,1.1-2.3c0.5,0.4,0.5,0.8,0.5,1.4c0.3-0.1,0.5-0.3,0.5-0.6c0.4-0.7,0.5-1.5,0.7-2.2c0.7,0.1,0.4,1.2,0.7,1.6 c0.9-0.2,1.2-1.9,1.4-2.7c0.4,0.3,0.3,0.9,0.5,1.3c0.6-0.2,1.1-0.6,1.2-1.2c0,0.6,0,1.1,0,1.7c-0.1,0.5,0,1.1,0.1,1.6 c0.3,0.6,0.7,0.2,1.1,0.1c0.2,0.9-0.2,1.8,0.4,2.6c0.9-0.2,1.5-0.7,2-1.5c0.6-0.9,1.3-1.6,2.1-2.3c0.4,0.1,0.6,0.4,0.4,0.9 c0,0.3,0,0.7,0,1c0.2,0.2,0.3-0.2,0.6,0c0.1,0.4-0.1,1.2,0.1,1.5c1.1-0.4,2.1-1.1,3.2-1.6c0.5,1-0.3,2.1-0.3,3.2 c0.4,0.4,1.4,0,1.8-0.2c1.2-0.4,2.2-0.8,3.4-1c0.2,0.9-0.8,1.7-1.4,2.4c0.1,0.1,0.4-0.1,0.5-0.1c-0.1,0.8,0.7,0.5,1.3,0.4 c0.5,0,1.7-0.2,1.6,0.7c0,0.2-0.2,0.4-0.1,0.6c0.1,0.2,0.2,0.1,0.3,0.3c0,0.1,0,0.2-0.1,0.2c0.1,0.3,0.3,0.4,0.7,0.3 c0.4,0,2-0.4,1.5,0.5c0.3,0.1,0.6-0.1,0.8,0.1c0,0.4-0.6,0.7-0.5,1.1c0.3,0,0.5,0.1,0.8,0.2c0.7,0.3,1.4,0,2.1,0.2 c0.1,0.8-1.4,1.2-1.6,1.9c-0.1,0.2,0,0.7,0.2,0.9c0.2,0.2,0.6,0.2,0.9,0.4c0.2,0.2,0.2,0.3,0.2,0.5c0.2,0.7,0.1,1.4,0.1,2.1 c0,0.7,0.1,1-0.4,1.6c-0.4,0.5-0.8,1.2-1.3,1.6c-0.5,0.4-1.2,0.8-1.8,1.2c-1,0.6-2.1,0.7-3.2,0.8c-1.7,0.1-3.5,0-5.2,0 c-2.1,0-4.3,0-6.4,0c-3.5,0-6.9-1-10.4-1.3c-4.4-0.3-8.9,0.1-13.3-0.3c-4.4-0.4-8.8-0.7-13.2-0.7c-1.6,0-3,0.1-4.6-0.2 c-1.3-0.3-2.6-0.7-3.8-1c-0.8-0.2-1.5-0.1-2.1-0.7c-0.6-0.5-1.1-1.1-1.5-1.8c-0.2-0.4-0.5-1.3-1.1-1.4"/> <path class="st1" d="M387,351.1c0,0-14.4-4.1-30,5.8c-15.6,9.9-16.6,13.2-16.6,27.2c0,13.9,12.5,28.6,18,34.1 c5.5,5.5,19.2,2.2,21.9,7.9c0,0,8.4-5.5,11.8-2.2c3.4,3.4,35.3-9.4,36.4-29.7C429.5,373.9,429.1,354.2,387,351.1z"/> <path class="st15" d="M364.9,400.9c0,0,7.2-5.5,5.5-11.3c-1.7-5.8-13.5-10.1-18-2.6c-4.6,7.5,4.6,2.2,6.5,4.8c1.9,2.6-7,8.9-7,8.9 S360.4,405.3,364.9,400.9z"/> <path class="st16" d="M360.9,369.1c0-0.9-0.1-1.2-0.7-1.9c-0.7-0.7-1.6-0.9-2.5-1.5c-0.8-0.5-1.4-1.2-2.1-1.9 c-0.5-0.6-0.9-0.7-1.6-1.1c-0.9-0.5-1.6-1.1-2.5-1.5c-0.2-0.1-0.4-0.2-0.7-0.2c-9.8,7-10.5,11.3-10.5,23.1c0,8.8,5,18,10.1,24.9 c0.2-0.1,0.1-0.2,0.1-0.6c0.1-0.5,0.1-1.4,0-1.9c-0.1-0.7-0.3-1.7-0.6-2.3c-0.3-0.8-0.9-1.4-1.3-2.1c-0.5-0.9-1.1-1.5-1.4-2.5 c-0.3-0.7-0.5-1.3-0.6-2.1c-0.1-1.3,0.4-3-0.4-4.1c-0.2-0.3-0.4-0.4-0.6-0.7c-0.2-0.3-0.3-0.7-0.5-1c-0.6-1.3-0.8-2.2-0.8-3.7 c0-1.8,0-3.4,0.9-4.9c0.6-0.9,1.3-1.6,1.8-2.5c0.8-1.3,1.6-2.6,2.8-3.6c0.8-0.7,1.6-1.4,2.4-2c0.9-0.7,2.1-1.1,3.1-1.6 c0.8-0.4,1.5-0.5,2.3-0.8c0.7-0.3,1.2-0.8,1.9-1.2C360.9,370.7,360.9,370.4,360.9,369.1z"/> <path class="st16" d="M368.9,401.6c-0.3,0.6-1.7,0.3-2.3,0.3c-0.9,0-1.6-0.1-2.2,0.7c-0.8,1.2-0.4,2.7,0.9,3.2 c0.5,0.2,1.1,0.5,1.6,0.6c0.5,0.1,2.2,0.2,2.5-0.1c0.6-0.4,1.8-3.6,0.4-3.5"/> <path class="st17" d="M426.9,289c0.1-2.4-0.2-4.7-0.5-7.1c-0.5-3.3-2-8.2-0.6-11.4c0.8,0.3,1.3,0.8,1.7,1.6c0.8-1.9,0.2-6,0.1-8 c-0.1-3.9-0.8-7.7-0.7-11.6c0-4.7,0-9.5,0-14.2c0-2.4-0.1-3.3,1-5.2c0.4-1.4,0.9-2.7,1.6-4c0.9-1.1,1.8-2.1,2.7-3.1 c0.4-0.9,0.7-1.9,1-2.9c1-2.3,2.9-4.2,5.4-4.9c2.4-0.7,5.1-0.8,7.6-0.8c2,0,4.4-0.4,6.3,0.1c-2.9,1-5.8,1.7-8.6,2.9 c0.5,2.5,9,1.2,10.9,1.1c1.3-0.1,2.7-0.1,4,0.1c0.3,0.4,0.5,0.8,0.7,1.3c0.9,0.7,2,1,3.2,0.7c2.5,0,4.9-0.1,7.4-0.1 c2.8,0.1,4.5,1.2,7,2.3c0.1,0.9-1,1.3-1.5,1.9c-0.6,0.9-0.6,1-0.7,2.1c-0.1,1.5,0.1,2.1,1.4,2.9c-0.3,0.8-0.9,1.1-1.9,1.1 c-2.6,1.1-4.5,1.9-5.5,4.6c2.8,0.8,5.4-0.1,8.2,0.4c-0.3,2.4,2.2,3.4,4.1,4.6c1.3,0.8,2.3,0.9,3.7,0.9c1.1,0,2.1,0,3.2-0.1 c1.1,0.3,0.5,0.8,1.4,1.3c0.7,0.3,1.3,0.5,2,0.6c1.2,0.7,1.4,1.3,2.1,2.4c0.6,0.9,1.4,1.6,1.6,2.7c0,0.5,0,0.9-0.1,1.4 c0.5,1.6,1.7,2,3.3,2.6c2.9,1.1,5.2,1.6,7.2,4.3c-4.7,0.4-9.9-6.6-14.3-3.9c1.2,2,2.7,3.3,4,5.2c0.4,0.6,0.8,1.6,1.3,2.2 c0.2,0.3,1.1,1,1.3,1.2c0.6,1.3,0.5,5.1,0.2,6.5c-0.6,2.7-2.5,0.5-2.8-1.1c-0.3-1.9-0.8-2.8-1.9-4.5c-1.2-1.7-1.7-1.6-3.5-2.3 c-2.8-1.1-5-3.8-7.9-5.1c-3.6-1.7-7.6-3.1-11.6-3c-2.2,0-4.9-0.5-6.9-0.1c-2.7,0.6-4.7,4.4-6,6.7c-1.9-0.2-5.1,3.9-5.3,5.7 c-0.2,1.6,0.6,1.3-0.8,3c-1.8,2.3-4.8,2.1-6.5,4c-0.6,0.6-1.2,2.1-1.7,2.9c-0.7,1.3-0.6,1.5-0.6,3c0,4.7-3.2,5.9-6.5,8.1 c-1.3,0.9-2.2,2.6-3.4,3.4c-0.9,0.5-3.8,0.3-4.7,0c-1-0.3-2.8-2-3.3-2.8c-1-1.6,1-2.6,0.6-4"/> <path class="st1" d="M371.5,202.8c-0.1-2.6,0.2-4.7-1-7.3c-0.7-1.6-5.3-7.5-3.2-9.2c0.8,0.2,2.7,1.3,3.2,0.3 c1.4-2.5-5.3-8.1-3.4-9.8c0.5,0.2,1,0.3,1.5,0.2c0-2.2-1.3-4.1-1.4-6.2c2.2,0.4,3.5,2.5,5.6,3c0.2-1.9-0.6-4.4,0-6.2 c1.3,1,4.1,5.7,5.8,4.9c0.7-2.4-0.4-5.5,0.6-7.7c2.7-0.1,4.8,5.3,6.7,7.1c1.3-1.4,0.8-3.8,0.8-5.6c2.1-0.2,3.1,4,3.6,5.5 c1.7-0.9,0.4-3.6,2.7-3.5c2.6,0.1,1.9,4.1,3.4,5.2c-0.1-0.8-0.2-1.7,0.1-2.5c1.7,1.1,0.4,7.8,0.5,9.6c0.1,2.2,1,4.7,1.5,6.8 c0.2,0.9,1.1,3.9,0.6,5.1c-1.5-2-2.6-5.8-4.7-7c-0.2,1.5-0.1,3.1-0.1,4.6c0,1,0.7,5.2-0.3,5.8c-0.8-0.5-1.5-1.9-2.4-1.8 c-0.2,0.9,0.1,1.8-0.2,2.7c-1.8-1.4-1-4.4-2.6-6.2c-0.2,0.8-0.1,1.6-0.3,2.4c-0.5,0.3-0.7,0.9-0.6,1.6c0,1.7,0.1,3.4,0.1,5 c-0.2,1.3-0.7,2.1-0.8,3.5c-0.2,2.7,0,5.4,0,8.1c0-0.5,0-1.1,0-1.6c-0.4,1-0.2,2.1,0.3,3.2c0.6,3.1,0.9,6.2,1.1,9.3 c0.1,4.5-0.2,9-0.1,13.5c0,0.9,0.2,11.2,2.7,10.4c0.9-4.1,0.1-9.1,0.1-13.3c0,3.1,0,6.3,0,9.4c0,3.1-1.1,8.3,0.9,11.1 c0.5-0.5,0.5-1.1,0.7-1.8c2.1,1.3-1.2,6.6,1.2,7.6c1.3-1.7,1.1-4.7,1.4-6.7c-0.1,0.8-0.5,2.3,0.7,2.4c0.3-0.6,0.6-1.2,0.9-1.7 c0.4,0.6,0.4,1.1,0.6,1.8c0.4,0.1,0.8,0.2,1.1,0.2c0.6,1.2-0.1,2.7,0.3,4c0.2-0.1,0.4-0.2,0.6-0.3c-0.4,2.2-1.3,4.4-1.5,6.7 c-0.4,4.1,0.2,8.3,0.1,12.4c-0.1,3.1-0.7,6.1-0.7,9.2c0,2.6,0,5.2,0,7.7c0,1.4,0.4,4.9,0,6.3c-0.8-2-1.6-3.9-2.5-5.8 c-0.1-0.4-0.9-4.7-1.6-5.1c-2.3-1.1-2.7,2.5-3,3.8c-0.7-0.9-0.6-2.2-0.5-3.3c-1,1.3-2.5-1-3.4-1.5c-0.1,0.9,0.3,3-0.6,3.4 c-0.1-1.5-0.4-2.9-0.9-4.4c-1.1,3-0.2,6.1-0.8,9.1c-0.8-1.4-1-3-1.9-4.4c0,2.7-0.6,2.4-2.8,2.4c-0.6-0.4-1.1-0.4-1.6,0 c-0.4,0.8-0.6,1.6-0.8,2.4c-1.2,0.1-1.1-1.7-2.5-1.1c-0.6,0.2-0.9,1.2-0.9,1.7c-0.6-0.9-2.6-5.8-4-5.1c-0.1,0.4,0.1,0.6,0.5,0.6 c0.3-2.1-1.4-4.2-1.3-6.4c1.3,0,3,1.8,4.1,1.4c0.4-1.9-0.5-3.3-0.6-5.1c0.5,0.6,1.1,1.2,1.6,1.8c0.9-0.8-2.1-4.5-2.2-4.7 c-1.1-1.8-2.5-3.7-2.4-5.9c2.1,0.8,4.1,2,6.2,2.9c1.5-2.2-2.9-5.2-2.5-7.6c0.6,0.2,1.2,0.3,1.8,0.3c-1.6-5.5-5.8-10.1-7.2-15.8 c1.3-0.1,2.2,1.1,3.2,1.6c0.3-1.1-0.4-2.5,0.8-3.2c0.4,0.3,0.9,0.4,1.4,0.3c0.1-1.9-1-3.5-1-5.2c0.4-0.6,0.5-1.2,0.4-1.9 c0.2-1.9-0.3-3.9,0.1-5.8c1.4,0.4,1.3,2.4,2.7,3c0.8-0.8,1-1.7,0.7-2.9c0-1.2-0.6-2.9,0.5-2.1c0.5-1.6,0.2-3.6,0.2-5.3c0-2,0-4,0-6 c0-2.4,0.4-5.1,0.1-7.4c-0.3-2.1-2.3-3.5-3.4-5.1c-0.7-1-1.5-2.1-1.6-3.3c-0.3-2.1,0-3.9-0.7-6c-0.7-2.3-1.8-2.9-0.7-5.1"/> <path class="st1" d="M220.9,271.6c-0.9,0.2-1.7,0.7-2.2,1.6c-1.8,1.8-3.5,3.7-5.1,5.7c-2.7,3.1-5.3,6.1-8.6,8.6 c-2.6,1.9-4.8,3.2-5.9,6.4c-0.3,0.8-1.3,2.7-1,3.6c1,0.1,3.5-1.2,4.2-1.4c1.2-0.4,3-1.1,4.3-1.3c-0.1,1.1-0.5,2.2-1.2,3.2 c-0.5,1.1-1.8,4.1-3,4.9c0.5-1.1,1.3-0.6,1.5,0.3c0.3,1-0.1,2.4-0.5,3.3c0.3,0,0.6,0,0.9,0c0.4,1.5,0.2,3.8,0,5.3 c-0.3,1.7-1,2.7-1,4.4c0.1,3.6-0.2,7.3-1,10.9c-0.4,1.7-1,3.2-1.1,5c-0.2,3-1.3,5.4-2.3,8.1c-0.6,1.6-0.4,1.7-0.3,3.2 c0.2,2-0.6,3.8-1.2,5.6c2-1.7,3.6-3.8,5.3-5.7c0.5-0.6,3-4.1,4.4-3.8c-0.2,2.2-1,4.5-0.5,6.8c2.3-1.6,3.4-5,4.7-7.3 c0.4-0.6,1-2.1,1.7-2.6c0.9,1,0.9,2.3,1,3.5c1.1-0.6,2-1.9,2.5-3c0.1-0.4,0.2-0.7,0.3-1.1c0.2-0.7,0.6-1.1,1.3-1 c1.2-1.4,2-4.5,2.5-6.1c-0.1,0.1,1.3-5,2.1-5.2c0.3,1.4,2.6,0.6,3.2,0.1c2-1.6,1.5-4.4,2.3-6.4c0.8-0.1,1.8-0.1,2.6,0.2 c1-1.2,0.5-4.5,0.5-5.8c0-1.6-0.3-2.8,0.5-4.1c1.2-2.1,2.6-4.1,3.9-6.1c1.4-2.2,2.3-5.2,2.5-7.9c0.2-1.6,0.7-2.9,1.1-4.4 c0.4-1.6,0.4-3.2,0.6-4.8c0.4,1.2,0.1,2.4,1,3.4c4-2.9,3.1-7.9,3.8-12.2c0.4-2.3,1.1-4.4,1.4-6.7c0.1-1.3-0.3-3.2,0.2-4.4 c-3.1,2.3-5.2,5.5-7.5,8.5c-3.6,4.6-6.9,9.2-10.3,14c-0.7,0.9-1.4,1.8-1.9,2.8c-0.1,1-0.3,1.9-0.7,2.8c-2,5.6-5.4,10.4-9.1,15 c0.3-0.4,0.6-0.8,0.8-1.3c0.1,2.3-0.6,4.8-2.8,5.8c-0.5-0.7,0-2.6-0.9-2.8c-0.9-0.2-1.6,1.5-2.6,1.5c-1.3-1.4-0.6-4.8-0.6-6.6 c0-2.9,1.1-5.7,1.9-8.5c-1.9-1.1,1-4.4,1.3-5.8c0.4-2.4,0-5.4,1.3-7.7c1-1.7,1.4-3.6,2.3-5.4c0.4-0.8,1.8-4,2.8-3.8"/> <path class="st1" d="M250.5,176.9c-0.8,0.1-1.3-0.7-1.7-1.3c-1.6-2-3-4.2-4.7-6.1c-1.7-1.9-3.4-3.8-5-5.8c-0.4-0.4-1.6-1.4-1.3-2.1 c2.4,0,4.2,2.3,6.2,3.4c-0.2-1-3-5.1-1.8-5.7c0-5.2-0.5-10.3-0.5-15.5c0.4,0.1,0.5,0.3,0.5,0.8c0-1.3,0-2.6,0-3.9 c0-1.2-0.4-4.1,0.1-5.3c0.5,0.9,0.2,1.7,0.5,2.5c0.8-0.4,0.4-3.5,0.4-3.8c0-1.3-0.2-4.7,0.8-5.8c2.3,0.5,0.6,6.4,2,7.9 c0.3-1.6,0.5-3.3,0.4-4.9c0-0.6-0.7-4.9,0.6-5.1c1.5,2.4,0.4,5.2,1.6,7.6c1.3-1.5-1.1-8.3,1.4-8.7c0.7,0.6,0.8,1.5,1.3,2.3 c1.4-0.6,1-5.1,1.2-6.4c0.1-1.3-0.1-2,0.6-2.7c0.2,0.3,0.5,0.4,0.9,0.5c1.6-1,2.9-2.3,4-3.9c2.5-3,4.8-6,6.3-9.6 c2,0,2.7-4.7,3.5-6.2c0.5-0.8,1.1-2.6,2.3-2.1c0.3,0.3,0.6,0.7,0.9,1c1.1,0.6,2.2,0.3,3.1-0.7c1.4-1.2,2.7-2.6,3.9-4.1 c0.3-0.4,1.5-3,2.1-3.5c0.6-0.4,2.2-0.2,2.9-0.6c0.5-0.3,1-0.6,1.3-1.1c-2.1,2.6-3.9,5.5-5.9,8.2c-4,5.6-7.2,11.7-11.3,17.3 c-2.5,3.5-5.5,6.6-7.4,10.5c-0.7,1.4-2.4,4.3-1.7,6c1.9-0.2,1,6.8,1,8c0-0.5,0-1,0-1.5c-0.3,4-1.5,7.9-2.3,11.8 c-1.6,0.1,0.8,12.1-1,13.8c-0.9-0.3-1.3-1.1-1.7-1.9c-0.8,1.4,1.4,5.4,2.1,6.7c1.3,2.4,3.8,4.5,4,7.4c0.1,1.2,0.1,2.7-0.1,3.9 c-1.3-0.1-1.3-0.4-1.9,0.8c-0.3-0.2-0.8-0.7-1.2-0.7c-0.3,0.3-0.5,0.6-0.6,1c-0.5-0.3-0.8-0.8-1.1-1.4c-0.8-0.9-1.2-0.6-2.2-1 c-1.6-0.6-2.7-1.6-4.6-1.4"/> <path class="st1" d="M273.8,154.2c-0.3-1.9-0.5-3.6-0.6-5.5c-0.1-2.1-0.5-5.1,0.1-7.1c1.2,0.9,1.7,3.7,3.1,3.9 c2.1-1.9,0.4-5.6,1.2-7.9c2.1,0.1,1.3,3.5,2.4,4.7c1.6-0.9,2.6-4.5,3-6c0.7-2.1,0.8-4.4,1.8-6.4c1.6,0.4,0.8,3.2,2.7,3.4 c1.8,0.1,3.4-2.7,4-3.9c0.6-1.2,0.6-3.9,2.4-4c0.7,0.9,1.3,1.9,1.6,2.9c0.4,0.9,0.7,3.3,2.1,3.2c2.2,0,1.7-3.7,2.5-4.9 c1.8,0.6,2.3,4.8,2.2,6.4c0-0.4,0-0.8,0-1.3c0,6.3,0.3,12.6-2.3,18.5c-1.4-0.2-3.1-2.2-4.6-2c-2.3,0.3-1.4,9-2.2,10.9 c-0.8-0.5,0-1.5-0.5-2.1c-0.6,1.3-0.4,3.9-1.4,4.8c-2.3-0.9-3-4.4-5.6-4.5c-1,1.6-1.6,3.3-2.6,4.8c-0.4,1.1-1.1,1.8-2.2,2 c-0.4-0.3-0.8-0.4-1.3-0.3c-0.7,1.3-0.9,3.9-2.1,4.8c-1.4,1.1-3.2,0-4.8-0.1c-2.4-0.2-4.1,0.4-4.2-2.6c0-0.8-0.2-1.9,0-2.7 c0.4-1.4,1.5-1.3,1.6-3c0.2-2.1,0.7-2.3,2.4-3.2c0.5,0,1-0.2,1.2-0.6c0.4-0.4,0-0.8,0.5-1.2c-0.1-0.6-0.8-0.8-1-1.5"/> <path class="st1" d="M226.2,233c-0.1-1.4-1.2-2.6-1.7-3.8c-0.8-1.6-1.1-3.6-2.6-4.7c-0.7-0.5-1.8-1.2-2.6-1.5 c-0.7-0.2-1.4,0.1-1.9-0.5c1.3-0.4,2.7-0.1,3.9,0.3c0.8,0.2,1.7,0.4,2.4,0.8c0.7,0.4,1.3,1.1,2.1,1.3c-0.8-2.3-2.3-4.2-3.6-6.1 c-1-1.4-2.1-3.5-3.5-4.7c-1.1-0.9-2.6-2-4.1-1.7c2.8,0,5.7-0.2,8.5,0c1.1,0.1,2.1,0.4,3.2,0.6c0.8,0.1,1.7-0.3,2.4,0.4 c-0.5,0.1-2.1-0.8-2.4-0.9c-2.4-0.9-4.5-2.4-6.8-3.5c-3-1.4-6-3.1-9.1-4.1c0.2-0.8,3-0.4,3.7-0.4c2.3,0,4.6,0,7,0 c1.2,0,1.8,0,2.7,0.6c-2.5-3.5-5.5-6.4-8.5-9.5c-1.1-1.1-2.1-2.2-3.4-3c-0.6-0.4-1.1-0.6-1.4-1.2c4.4-0.4,8.3,3.6,11.3,6.3 c1.4,1.2,2.8,2.5,4.2,3.7c0.4,0.4,0.9,0.9,1.5,1c0.5-0.5,0.7-1.1,0.5-1.9c-0.1-1.2,0.1-2.4,0.6-3.5c1-2.9,2.3-5.2,4.7-7.1 c0.5,2.5,0,5.6,0,8.1c0,1.1-0.5,4.2,0.4,5c0.6-1.1,1.7-2.3,2.6-3.1c1.3-1,2.7-0.3,4.1-1c-0.2,0.6-0.5,1.1-1,1.5 c-1.1,1.4-1.8,2.6-2.4,4.3c-0.8,2.6-1.6,5-2.2,7.7c-0.3,1.1-0.5,2.3-0.5,3.5c0,0.3-0.2,2.2,0,2.6c0.6,1.2,3.5,0.2,4.7,0.5 c-0.9,2.3-2.7,2.5-4.3,4.1c-1.2,1.1-1.9,2.4-2.6,3.7c-1.7,3.1-4.8,5.1-7.3,7.5"/> <path class="st1" d="M541.8,321.9c1.6,0.2,3.6,2,4.7,2.9c2.7,2.1,5.1,4.5,7.1,7.2c1.2,1.5,2,3.4,3,5.1c0.6,1,0.8,1.5,0.8,2.7 c-0.1-1.9-1.2-3.5-2.2-5c-0.6-0.9-1.6-2.1-0.3-2.8c1-0.5,3.7,0.8,4.2,1.7c-1.5-2.5-2.4-5.2-3.6-7.8c-0.6-1.3-1.3-3-2.8-3.4 c1.5-0.1,2.7,1.7,4.2,1.8c2.4,0.1,0.3-3.6-0.7-4.5c0.9,1.1,3.1,1.4,4.3,1.8c2.3,0.8,4.4,1.5,6.8,1.8c5.3,0.7,10.8,0.5,16.1,0.4 c-4,0.3-7.9-0.9-11.7-2.1c-2.7-0.8-6.4-1.4-8.9-2.7c-1.2-0.6-2.7-1.7-3-3c2.3-0.2,4.4,2.1,6.9,1.9c3.3-0.3-0.2-2.1,0.2-3.6 c2.2-0.5,4.3,1,6.4,0.3c-0.4-2-1.2-4-1.5-6c1.2-0.8,4.2,1.2,5.2,2c-0.4-1.1-1.1-2-1.9-2.8c1.9-0.1,3.8,1,5.5,1.5 c0.8,0.2,1.4,0.1,1.6,0.7c-1.1-0.4-2.4-2.7-2.9-3.3c-1.5-1.9-2.9-3.8-4.2-5.9c-1.5-2.7-2.6-5.4-4.7-7.7c-2.4-2.6-5.6-4.1-8-6.7 c1.3,1.5,4.1,1.6,4.9,3.5c-1.8,0.4-4.8-0.7-6.4,0.3c0.7,1.5,2,2.4,2.8,3.8c0.5,0.9,0.9,1.7,1.5,2.6c-0.3,0.1-0.5,0.1-0.8,0 c0.8,0.6,1.7,1.9,1.6,3c-0.9,0.3-2.3-0.4-3,0c-1.4,0.9,0.2,3.9-0.1,5.3c-1.2,0.4-4.6-2.6-4.7,0c-0.8,0.3-1.5-0.2-2.2,0.2 c-0.4,2.9,1.9,5.7,2.3,8.6c-0.8,0-1.4-0.3-1.9-1c-1.3-1-2.8-1.8-4.4-2.1c-0.1,0.5-0.2,1.2-0.7,1.5c-0.9,0.8-2.2-0.6-3,0 c0.1,2,1.4,5.3,0,7c-0.5-0.1-0.9-0.4-1.2-0.8c-0.3,0.7,0,1.4-0.1,2.2c-1.6,0.6-3.3-1-4.9-0.7c-2,0.4-0.7,3-1.3,4.4 c-0.5,0.1-3.1,0-3-0.7c1.2-0.1,2.1,0.6,3.2,0.7c1.1,0.1,1.4,0.1,2.4,0.6"/> <path class="st1" d="M563.9,367.9c1.2,0,2.4,0,3.5,0c1.6,0,3,0.5,4.6,0.7c-1.4,0.2-1.1-1.1,0.2-1.3c3.6-0.4,7.6,0,11.2,0 c2.9,0,5.9-0.4,8.6,0.7c2.6,1.1,5,1.8,7.2,3.7c-0.7,1.1-7.4-1.2-7.3-1.1c-2.7-0.6-6-1.6-8.9-1.6c2.8,0.9,4.7,3.7,7.5,4.9 c1.5,0.6,5.8,1.8,6.1,3.4c-3.3,0-6.6-1-10-0.4c0.7,1.2,3,0.5,3.3,2.2c-3.5,0.3-6.9-0.4-10.4-0.5c-0.5,0.7,0.4,1,0.5,1.7 c-2,0.4-4.5-1.8-5.9-2.7c-1.4-0.9-3-1.9-4.7-2.1c0.2,0.1,0.4,0.3,0.5,0.5c-1-0.8-1.9-1.7-3-2.4c-0.7-0.4-3.2-0.9-1.7-1.6 c-1.3-1.8-5.9-4.1-8.2-3.5c2.7,0.2,5.1,0.1,7.5,1.2"/> <path class="st16" d="M428.5,380.6c-3.3,0.6-4.7,1.6-7.9-1.7c-4.3-4.3-13.3-0.7-23.5,4.6c-10.2,5.4-5,6.1-5.9,15.2s-6.4,0-10.4-2.8 c-4-2.8-3.9,1.8-3.9,13.3c0,7.3-7.2,10.5-12.4,11.8c6.2,1.4,13.9,0.8,15.8,5c0,0,8.4-5.5,11.8-2.2c3.4,3.4,35.3-9.4,36.4-29.7 C428.7,389.6,428.9,385,428.5,380.6z"/> <path class="st15" d="M402.1,400.9c0,0-7.2-5.5-5.5-11.3c1.7-5.8,13.5-10.1,18-2.6c4.6,7.5-4.6,2.2-6.5,4.8c-1.9,2.6,7,8.9,7,8.9 S406.6,405.3,402.1,400.9z"/> <path class="st16" d="M381.8,379.4c-2.2,0-3.7,0-5.7-1.3c-1.2-0.8-2-1.5-2.7-2.8c-0.3-0.6-1-1.1-1.2-1.7c-0.3-1,0.2-2,0.9-2.6 c0.5-0.5,1.5-1.1,2.1-1.5c0.6-0.4,1.2-0.4,1.8-0.7c0.6-0.2,0.9-0.5,1.5-0.6c2.3-0.3,4.8,0,7.1,0c4.4,0,8.8,0,13.2,0 c3.8,0,7.8-0.5,11.2,1.3c0.9,0.5,2.4,1.6,2.9,2.5c0.3,0.6,0.3,1.3,0.3,1.9c0,1.6-0.9,2.2-2.4,2.5c-0.8,0.2-1.6,0.5-2.4,0.7 c-1.1,0.3-2.4,0.1-3.5,0.1c-0.7,0-1.2-0.1-1.8,0.2c-0.4,0.4-1,0.8-1.5,1.1c-0.5,0.1-1,0-1.5,0c-0.9,0-1.6-0.1-2.4-0.3 c-0.5-0.1-1,0-1.5-0.1c-0.2-0.1-0.6-0.4-0.7-0.5c-0.7-0.3-1.5-0.2-2.2-0.5c-0.8-0.3-1.4-0.8-2.3-0.9c-1.2-0.1-2.9-0.1-4.1,0.1 c-1.3,0.2-2,0.7-3,1.5c-0.5,0.4-0.9,1-1.6,1.2c-0.6,0.2-1.3,0.1-1.9,0.1"/> <path class="st15" d="M384,377.8l-3.8,48.3l8.3-50C388.5,376.1,386.3,376.2,384,377.8z"/> <path class="st1" d="M530.8,349.4c-0.3,1.1,0.3,2.1,1,2.9c1,1,2.1,1.8,3.4,2.2c0.7-0.1,1.1,0.1,1.3,0.6c-0.8,1.1-0.2,1.9,0.6,2.7 c-0.6,0.6-1.4,1-2.2,1.3c-0.7,0.4-1.4,0.8-2,1.3c-0.8,0.6-1.7,1.2-2.5,1.9c-0.4,0.7-0.1,1.1,0.7,1.5c-0.3,1.3-1.1,2.4-2.3,3.1 c-1.2,1.3-4.3,3.8-4,6c0.2,1.8,2.6,2.3,4,2.3c-0.2,0.5-0.5,0.9-1.1,1.1c-0.8,0.4-1.6,0.9-2.4,1.5c-1,2.1,3.6,1.9,4.4,2.6 c-0.5,1-1.7,2.1-1.2,3.3c0.6,1.1,1.5,1.8,2.8,2.2c0.8-0.2,1.3,0,1.5,0.6c-0.5,0.2-1.9,0.6-1.9,1.3c-0.1,0.9,0.9,1.1,1.5,1.5 c-0.6,1.2-2.4,1.9-2.8,3.2c-0.1,0.4,0,0.8,0.3,1.2c0.4,0.3,0.8,0.5,1.2,0.8c1,0.1,1.9,0.5,2.6,1.2c-0.3,1-0.9,1.7-1.8,2.1 c-0.7,0.3-1.1,0.8-1.3,1.4c-0.2,0.9,0.3,2.2,0.8,3c0.4,0.3,0.5,0.7,0.2,1.2c-0.8,1-1.8,1.9-2.9,2.7c-0.5,0.4-3.9,2.5-2.5,3.6 c-0.8,1.7-2.6,2.4-2.8,4.5c-0.1,1.3,0.3,1.6,1.4,2.2c0.9,0.5,2.9,1,3.4,2.1c-0.8,0.9-1.8,1.6-2.9,2.1c-0.4,0.2-3.4,1.4-3.7,2.2 c0.5,0.2,1,0.6,1.4,1c0.2,0.5,0.1,0.9-0.2,1.2c-0.2,0.2-0.2,0.4-0.1,0.7c0.3,1.1,2.5,2,3.4,2.6c-1.1,2.4-5.4,2.6-5.3,5.7 c0,0.7,0.2,0.9-0.4,1.5c-0.8,0.7-1.8,0.7-2,1.8c-0.1,0.8,0.2,0.7-0.4,1.5c-1.3,1.8-3.4,2.9-4.9,4.5c-0.7,0.7-1.5,1.6-0.9,2.6 c0.5,0.8,1.3,0.4,1.4,1.5c0,0.5-0.2,0.8,0,1.3c0.6,1.5,3.3,1.3,4.2,2.4c0.6,0.8,0.1,1.3,0,2.2c-0.1,0.7-0.1,1.5,0,2.2 c0,0.9-0.2,0.9-0.5,1.6c-0.4,1-0.2,1.8,0.3,2.7c1.2,2.1,3.5,3.1,4.5,5.2c-0.8,0.2-2.1-0.9-2.7-1.3c-1.3-0.9-1.9-0.9-1-2.5 c1-1.4,2-2.7,3.1-4c0.6-0.7,1-1.4,1.1-2.3c0-1.4-2-1.1-3-1.3c0.2-0.8,1.2-1.1,1.5-2c0.2-0.5,0.2-0.8,0-1.3 c-0.1-0.1-0.2-0.1-0.3-0.2c-0.3-0.4-0.4-0.8-0.3-1.3c0.1-0.6,0.4-0.9,0.2-1.6c-0.3-1-0.9-0.5-0.4-1.8c0.5-1.4,2.1-2.2,2.8-3.5 c0.7-1.3,0.8-2.2,1.7-3.5c0.3-0.4,1.9-1.8,1.9-2.6c-2.1-0.1,0.6-4.8,0.7-5.1c0.5-1,3-3.7,0.4-3.7c0.1-0.9,0.5-1.6,1.2-2.2 c0.5-0.6,1.1-1.3,1.6-1.9c0.8-0.4,1.2-0.9,1.3-1.6c-1.1,0-2,0.3-1.3-1.2c0.9-1.2,1.8-2.4,2.8-3.5c0.4-0.6,2.1-2.2,1.3-3.1 c-0.8-1-2.6,0-2.6-1.7c0.7-1.6,1.8-3,3.2-4.2c0.4-0.4,3.3-2.3,3.2-3.5c-0.7-0.2-2.3,0.3-2.7-0.3c-0.2-0.4,0.3-1.4,0-1.9 c-0.4-0.9-0.9-0.6-0.9-1.7c-0.1-1.2,0.5-3.6-0.2-4.7c-0.5-0.8-1.4-0.7-1.7-1.6c-0.5-1.7,1.1-3.5,1.3-5.1c0.1-0.7-0.4-0.8-0.4-1.7 c0.1-1.4,0.7-2.6,1.6-3.6c0.6-1,2-2.4,2-3.8c-0.6,0-1.2,0.1-1.8,0c-0.3-0.5,0-1.1,0-1.7c-0.1-1.1-1-1.6-1.3-2.5 c-0.4-1.2,0.1-2.9,0.3-4.1c0.1-0.9,0.1-1.9,0.1-2.8c0-2.3-0.2-4.4,0.7-6.6c0.6-1.4,1.1-2.8,1.8-4.1c0.6-1.2,1.3-2,1.3-3.3 c0-0.4,0.1-1.1-0.1-1.4c-0.4-0.6-1.6-1.1-2.2-1.3c-0.6-0.3-0.7-0.5-1.2-0.8c-0.3-0.2-0.7-0.5-1-0.6c-0.9-0.3-1.8-0.4-2.7-0.4"/> <g> <g> <path class="st5" d="M459.7,395.9c0.3,0,25.8,3.6,33.6,20.4c4.7,10.2,2.1,23.1-7.7,38.5l0.8,0.5c10-15.7,12.7-29,7.8-39.5 c-8.1-17.3-34.1-20.9-34.4-20.9L459.7,395.9z"/> </g> <g> <path class="st5" d="M463.1,414.2c0.1,0,12.7,1.6,22.6,8c10.3,6.6,28.2,12,40.3,9.4l-0.2-1c-11.9,2.5-29.5-2.7-39.6-9.3 c-10.1-6.5-22.9-8.1-23-8.1L463.1,414.2z"/> </g> <g> <path class="st5" d="M463.2,421.4c0.4,0.3,44.5,30.8,53.7,47.2l0.9-0.5c-9.3-16.6-52.2-46.3-54-47.5L463.2,421.4z"/> </g> <g> <path class="st5" d="M463.1,416.7c0.3,0.2,32.1,18.2,57.3,39.3l0.6-0.8c-25.2-21.1-57.1-39.2-57.4-39.4L463.1,416.7z"/> </g> <g> <path class="st5" d="M462.6,432.8c0.3,0.1,30.8,9.1,19.7,62l1,0.2c11.2-53.9-20.1-63.1-20.5-63.2L462.6,432.8z"/> </g> <g> <rect x="479.3" y="420.8" transform="matrix(0.7071 -0.7071 0.7071 0.7071 -173.5273 469.3648)" class="st5" width="1" height="46.8"/> </g> </g> <g> <g> <path class="st5" d="M253.3,382.8c17.2,3.3,62.6,5.4,63,5.4l0-1c-0.5,0-45.8-2.1-62.9-5.4L253.3,382.8z"/> </g> <g> <path class="st5" d="M248.5,413.2l0.5,0.9c34.1-18.4,63.2-17.5,63.5-17.5l0-1C312.2,395.6,282.9,394.7,248.5,413.2z"/> </g> <g> <path class="st5" d="M276.4,426.6c-18.8,18.8-56.6,46.4-57,46.7l0.6,0.8c0.4-0.3,38.3-27.9,57.1-46.8 c18.6-18.6,30.4-18.2,30.6-18.2l0.1-1C307.2,408.1,295.3,407.7,276.4,426.6z"/> </g> <g> <path class="st5" d="M269,442.7c-21.1,28.9-50.3,52.3-50.6,52.6l0.6,0.8c0.3-0.2,29.6-23.7,50.8-52.7 c20.9-28.7,36.2-28.6,36.3-28.6l0-1C305.5,413.7,290.3,413.5,269,442.7z"/> </g> <g> <path class="st5" d="M291,455l-4.9,38.6l1,0.1l4.9-38.6c1.8-14.4,13.7-31,13.8-31.2l-0.8-0.6C304.9,423.5,292.9,440.3,291,455z"/> </g> <g> <path class="st5" d="M273.3,495.3l1,0.3c10.9-42.2,35-59.3,35.2-59.4l-0.6-0.8C308.7,435.5,284.4,452.7,273.3,495.3z"/> </g> <g> <path class="st5" d="M273.6,443.4c-11.2,17-36.9,35.7-37.2,35.9l0.6,0.8c0.3-0.2,26.1-19,37.4-36.1c11.2-16.9,30.8-23.2,31-23.3 l-0.3-1C305,419.7,285,426.2,273.6,443.4z"/> </g> <g> <path class="st5" d="M282,456l1,0.3c4.3-13.9,23.3-28.3,23.5-28.5l-0.6-0.8C305.1,427.6,286.4,441.7,282,456z"/> </g> <g> <path class="st5" d="M271.4,446.8v1c12.7,0,35.7-14.6,36.7-15.3l-0.5-0.8C307.3,431.9,283.8,446.8,271.4,446.8z"/> </g> </g> </g> </svg>