<?xml version='1.0' encoding='utf-8'?>
<svg xmlns="http://www.w3.org/2000/svg" width="292.1mm" height="202.142mm" version="1.1" style="shape-rendering:geometricPrecision; text-rendering:geometricPrecision; image-rendering:optimizeQuality; fill-rule:evenodd; clip-rule:evenodd" viewBox="0 0 29299 20276"> <defs> <style type="text/css">  .fil5 {fill:black} .fil8 {fill:black} .fil1 {fill:#006894} .fil3 {fill:#0281B8} .fil0 {fill:#036F9D} .fil2 {fill:#0379AB} .fil16 {fill:#AFF0F7} .fil14 {fill:#BA362F} .fil15 {fill:#CC3B33} .fil10 {fill:#DB3B33} .fil11 {fill:#DB3B33} .fil6 {fill:#EC4038} .fil12 {fill:#EC4038} .fil7 {fill:#F0534A} .fil9 {fill:#FF6633} .fil13 {fill:#FF9933} .fil4 {fill:white}  </style> </defs> <g id="Layer_x0020_1"> <metadata id="CorelCorpID_0Corel-Layer"/> <g id="_806428208"> <polygon class="fil0" points="0,0 29299,0 29299,20276 0,20276 "/> <path class="fil1" d="M9982 17151c-3596,-141 -6837,-804 -9982,-1611l0 4736 29299 0 0 -3358c-1339,-218 -2818,-356 -4535,-360 -4202,-8 -9828,788 -14782,593z"/> <path class="fil2" d="M6222 9595c4202,-9 9829,787 14782,592 2957,-116 5674,-585 8295,-1196l0 -8991 -29299 0 0 10281c1775,-398 3753,-681 6222,-686z"/> <path class="fil3" d="M0 3645c3789,847 7687,1555 12029,1702 5767,194 12316,-602 17207,-593 21,0 42,0 63,0l0 -4754 -29299 0 0 3645z"/> <path class="fil4" d="M13403 7617c79,-187 200,-353 351,-491 308,-282 753,-460 1161,-530 381,-66 747,-38 1130,-34 293,2 556,-21 832,-125 55,-20 110,-44 164,-68 123,-56 244,-117 366,-177 109,-53 235,-116 356,-131 134,-17 267,29 353,136 64,81 86,169 80,258 139,-73 291,-106 438,-20 60,35 108,85 140,146 104,198 15,448 -66,638 -21,50 -44,97 -69,141 59,28 112,72 153,136 96,151 65,327 -43,462 -47,60 -105,110 -164,156 -130,101 -276,188 -422,263 -39,20 -79,39 -119,58 -322,148 -651,224 -1000,278 -75,12 -150,23 -226,34 644,417 1251,897 1819,1410 150,136 299,273 435,420 70,-204 171,-396 301,-572 287,-388 703,-710 1086,-1000 359,-273 742,-539 1057,-862 132,-136 250,-285 376,-426 147,-164 327,-328 568,-269 24,6 47,14 69,24 205,91 272,312 301,516 26,176 28,358 23,536 -1,53 -4,106 -7,159 -15,236 -48,479 -114,710 56,3 112,20 168,55 132,84 183,229 163,380 -34,268 -229,633 -393,846 -222,290 -529,534 -837,727 50,27 100,54 149,84 47,29 93,59 138,92 282,206 495,508 605,840 42,127 72,266 76,401 5,184 -55,369 -228,442 47,149 82,302 103,459 46,332 44,673 32,1007 -5,115 -8,230 -26,344 -28,187 -109,360 -306,413 -89,24 -183,14 -266,-27 -128,-62 -220,-198 -305,-308 -100,-129 -205,-252 -324,-365 -119,-113 -248,-216 -378,-317 -154,-120 -310,-238 -463,-361 -111,-88 -220,-179 -326,-274 -344,-310 -654,-671 -917,-1052 -104,-151 -188,-293 -254,-448 -307,477 -710,956 -1109,1313 -517,463 -1131,816 -1773,1075 146,43 265,133 289,308 1,7 2,14 2,21 28,-1 55,-2 83,-3 45,-1 89,-3 134,0 169,8 319,74 378,245 48,140 4,273 -92,367 27,40 46,87 55,144 24,149 -49,286 -174,366 -159,101 -464,172 -652,215 -81,18 -163,35 -246,49 -349,59 -625,45 -965,-56 -387,-114 -800,-313 -1090,-598 -168,-165 -304,-368 -403,-582 -574,-32 -1149,-156 -1682,-372 -85,-34 -169,-70 -252,-108 -193,-88 -381,-187 -564,-293 -509,-294 -995,-644 -1441,-1027 -195,-167 -382,-344 -561,-529 -98,-101 -191,-209 -296,-301 -52,-46 -108,-82 -168,-117 -92,-54 -170,-101 -236,-187 -140,-185 -151,-395 -53,-581 -102,-48 -198,-111 -272,-189 -112,-119 -168,-264 -180,-425 -11,-142 20,-257 122,-360 92,-91 215,-151 344,-150 21,-19 42,-42 56,-56 145,-151 278,-314 418,-470 221,-244 451,-478 697,-697 621,-550 1385,-1051 2156,-1360 550,-221 1141,-349 1735,-356z"/> <path class="fil5" d="M19158 10917c3,-17 6,-35 10,-53 59,-276 174,-530 342,-758 271,-368 689,-690 1052,-966 362,-275 758,-553 1076,-879 134,-138 252,-287 380,-430 99,-110 237,-258 402,-218 13,4 27,8 39,14 142,63 183,247 203,385 24,165 26,341 21,507 -1,51 -3,102 -7,153 -21,347 -84,718 -247,1028 40,-26 79,-53 120,-79 80,-50 169,-86 260,-29 76,48 96,131 86,215 -30,236 -218,579 -360,764 -209,274 -508,508 -798,689 -77,48 -156,93 -234,141 -5,3 -12,8 -21,13 32,17 64,33 82,41 111,56 223,110 330,175 43,26 85,54 125,84 254,186 446,458 544,756 37,111 64,236 68,352 3,119 -24,262 -161,294 -26,6 -53,6 -79,1 -22,-5 -42,-12 -60,-23 86,207 145,417 177,648 44,319 41,657 30,978 -4,107 -8,219 -24,325 -17,114 -56,240 -182,274 -50,13 -101,7 -148,-16 -91,-44 -183,-179 -245,-259 -106,-137 -215,-265 -341,-384 -122,-116 -257,-224 -390,-328 -154,-120 -309,-238 -462,-359 -108,-87 -215,-176 -318,-268 -333,-300 -637,-654 -891,-1023 -155,-225 -260,-421 -328,-686 -5,-20 -10,-40 -15,-61 -1,-5 -2,-11 -3,-16 -309,564 -809,1185 -1271,1599 -518,465 -1140,815 -1787,1068 -107,42 -216,82 -325,118 -122,41 -245,79 -369,113 95,8 190,12 289,16 31,2 62,3 92,5 96,4 193,9 287,22 116,15 256,49 275,190 8,58 -13,115 -53,157 -6,6 -13,12 -20,19 110,-3 220,-8 330,-11 122,-3 296,-16 347,131 35,102 -24,186 -109,234 -37,21 -78,37 -118,53 -20,7 -39,14 -59,21 106,15 222,47 242,174 14,83 -30,153 -97,195 -130,83 -446,158 -598,193 -79,18 -158,34 -237,47 -327,55 -570,43 -889,-51 -358,-106 -750,-292 -1019,-556 -163,-160 -293,-360 -384,-569 -9,-19 -17,-38 -25,-57 -591,-21 -1186,-142 -1731,-364 -88,-35 -160,-66 -246,-106 -187,-85 -370,-182 -549,-285 -496,-286 -981,-636 -1415,-1009 -192,-164 -374,-337 -550,-518 -99,-102 -200,-217 -306,-311 -61,-54 -124,-95 -194,-136 -70,-41 -137,-78 -187,-144 -126,-165 -102,-343 29,-494 21,-24 44,-44 68,-62 -3,-1 -6,-2 -8,-2 -148,-39 -319,-113 -425,-225 -86,-91 -126,-199 -135,-321 -7,-92 7,-160 73,-226 67,-67 160,-112 256,-99 7,1 13,2 19,3 38,-22 105,-89 128,-113 145,-151 281,-318 422,-474 216,-239 441,-469 683,-683 600,-532 1358,-1036 2106,-1330 564,-232 1178,-354 1790,-343 66,-208 187,-390 348,-537 283,-258 699,-423 1075,-488 372,-64 726,-35 1100,-31 315,3 594,-23 893,-135 58,-23 116,-47 173,-73 126,-56 248,-119 371,-179 85,-41 209,-104 303,-115 75,-10 150,12 199,73 81,102 37,226 -24,324 -49,78 -114,154 -180,220 -96,94 -203,174 -319,240 82,-23 162,-53 237,-87 128,-59 207,-124 315,-210 130,-103 365,-308 536,-208 191,112 71,413 4,570 -58,134 -121,239 -230,335 116,-9 257,-9 327,100 56,89 29,189 -33,265 -37,48 -87,91 -135,128 -121,93 -261,176 -396,246 -37,19 -74,37 -112,54 -310,143 -620,213 -955,265 -225,36 -450,63 -673,110 26,15 52,30 77,45 71,42 141,86 211,130 668,424 1305,925 1890,1453 153,138 313,287 455,443l180 191z"/> <g> <path class="fil6" d="M11832 8274c637,-251 1276,-358 1964,-303 751,61 1561,314 2396,792 836,477 1697,1177 2217,1646 519,469 696,707 745,918 48,212 -32,397 -260,751 -227,355 -602,878 -1087,1313 -485,435 -1081,781 -1736,1037 -654,256 -1367,421 -2091,435 -635,12 -1278,-91 -1919,-341l0 -1c357,-906 522,-1893 522,-2865 0,-1156 -235,-2344 -751,-3382z"/> <path class="fil7" d="M11658 8346c-694,302 -1391,773 -1920,1242 -530,469 -892,936 -1096,1148 -203,211 -247,167 -292,161 -44,-6 -88,26 -112,50 -24,24 -28,40 -24,93 4,52 16,140 88,217 73,76 206,141 344,177 139,36 284,44 443,28 159,-16 333,-56 391,-38 58,18 2,95 -99,139 -100,44 -245,56 -380,79 -135,22 -260,54 -328,132 -69,79 -81,204 -23,280 59,77 188,105 359,256 171,151 384,425 853,827 470,403 1194,935 1925,1269 67,31 135,60 202,87 329,-836 517,-1805 517,-2837 0,-1253 -277,-2411 -746,-3353 -34,14 -68,28 -102,43z"/> <path class="fil4" d="M10804 9803c312,0 565,253 565,565 0,312 -253,564 -565,564 -312,0 -564,-252 -564,-564 0,-312 252,-565 564,-565z"/> <path class="fil8" d="M10777 10153c169,0 305,137 305,305 0,169 -136,305 -305,305 -168,0 -305,-136 -305,-305 0,-168 137,-305 305,-305z"/> <path class="fil4" d="M10747 10415c72,0 131,58 131,130 0,72 -59,131 -131,131 -72,0 -130,-59 -130,-131 0,-72 58,-130 130,-130z"/> <path class="fil9" d="M13670 7886c48,-183 149,-360 313,-509 242,-221 619,-382 990,-446 371,-65 738,-32 1069,-29 331,3 627,-23 954,-146 327,-123 686,-343 809,-358 122,-15 10,174 -145,328 -155,153 -353,269 -587,350 -235,80 -507,125 -499,169 7,44 292,89 551,72 259,-16 490,-92 643,-163 153,-70 228,-135 350,-231 122,-97 291,-226 344,-194 53,31 -9,222 -66,356 -58,134 -110,210 -197,283 -86,72 -207,141 -410,193 -204,52 -490,89 -531,125 -41,36 162,72 473,44 311,-28 730,-121 774,-51 45,69 -286,301 -603,447 -317,146 -621,206 -911,251 -290,46 -565,76 -855,152 -45,12 -91,25 -136,40 -683,-359 -1427,-613 -2197,-675 -45,-3 -89,-6 -133,-8zm170 7055c80,200 201,417 381,594 262,256 648,425 948,514 300,89 514,97 813,46 298,-50 683,-159 772,-215 88,-56 -119,-60 -351,-84 -231,-23 -487,-65 -502,-99 -15,-34 210,-61 448,-118 237,-57 487,-146 476,-178 -11,-32 -283,-8 -577,-4 -294,4 -610,-12 -561,-75 48,-62 461,-171 519,-232 58,-62 -238,-76 -485,-87 -248,-11 -447,-19 -686,-79 -68,-18 -140,-39 -213,-65 -278,48 -559,76 -841,81 -47,1 -94,1 -141,1z"/> <path class="fil9" d="M19296 11174c22,-308 112,-644 351,-967 238,-323 625,-633 1017,-931 393,-298 792,-584 1096,-896 304,-312 513,-650 630,-598 117,52 141,495 117,880 -25,384 -97,710 -232,964 -135,254 -332,435 -292,459 40,24 318,-109 497,-217 180,-109 260,-194 246,-83 -14,111 -123,417 -326,683 -203,265 -501,491 -753,648 -252,157 -457,246 -389,344 69,99 411,208 661,391 249,183 406,441 483,672 76,232 72,437 22,427 -50,-10 -147,-235 -290,-401 -143,-165 -332,-269 -342,-191 -10,79 159,340 288,596 129,256 217,505 260,811 42,307 38,669 28,949 -10,280 -26,477 -109,437 -83,-41 -232,-318 -544,-614 -312,-296 -787,-610 -1173,-959 -387,-348 -685,-731 -865,-992 -180,-262 -243,-403 -298,-613 -55,-211 -104,-491 -83,-799z"/> <path class="fil10" d="M14792 8893c737,198 1502,544 2242,924 605,311 1193,644 1778,981 -104,-110 -236,-237 -403,-389 -520,-469 -1381,-1169 -2217,-1646 -835,-478 -1645,-731 -2396,-792 -688,-55 -1327,52 -1964,303 63,125 121,252 175,382 206,-8 413,-11 618,-10 721,2 1430,50 2167,247z"/> <path class="fil11" d="M16579 13121c-845,346 -1856,528 -2814,471 -469,-27 -926,-112 -1358,-229 -84,395 -199,784 -346,1158l0 1c641,250 1284,353 1919,341 724,-14 1437,-179 2091,-435 655,-256 1251,-602 1736,-1037 485,-435 860,-958 1087,-1313 196,-304 283,-484 272,-663 -154,127 -316,258 -487,394 -573,455 -1254,966 -2100,1312z"/> <path class="fil12" d="M11989 14493c142,-361 258,-746 343,-1151 -423,-119 -822,-269 -1186,-426 -755,-326 -1359,-685 -1879,-852 -232,-75 -448,-111 -654,-126 1,42 13,84 37,116 59,77 188,105 359,256 171,151 384,425 853,827 470,403 1194,935 1925,1269 67,31 135,60 202,87z"/> <path class="fil13" d="M13920 7905c-11,-149 69,-263 223,-361 198,-125 518,-223 788,-272 269,-50 489,-50 711,-62 223,-12 448,-36 491,-14 42,22 -99,91 -318,137 -218,46 -514,70 -517,107 -3,36 287,84 551,106 263,22 501,18 676,7 175,-11 288,-29 321,-19 34,10 -13,49 -87,89 -75,40 -177,82 -352,116 -174,33 -419,57 -606,72 -186,15 -313,21 -259,57 53,37 287,103 599,120 312,17 702,-15 748,16 45,32 -255,126 -423,182 -168,55 -205,71 -282,114 -76,43 -192,111 -290,214 -618,-312 -1285,-536 -1974,-609z"/> <path class="fil13" d="M14687 14881c117,70 242,139 361,184 223,86 425,87 437,100 11,13 -168,38 -273,52 -106,15 -138,19 -198,15 -60,-5 -148,-18 -109,17 40,34 206,117 336,168 130,52 223,72 153,82 -71,11 -305,12 -529,-23 -224,-36 -438,-107 -624,-207 -136,-72 -257,-159 -372,-260 -10,-23 -20,-46 -29,-68 47,0 94,0 141,-1 236,-5 472,-25 706,-59z"/> <path class="fil13" d="M19334 10899c282,-335 663,-753 1008,-1064 407,-366 763,-583 1039,-737 276,-155 471,-245 451,-204 -20,41 -256,215 -541,441 -286,227 -623,506 -662,616 -39,110 219,49 506,-96 286,-146 603,-378 800,-636 197,-257 276,-541 308,-545 32,-4 18,272 -129,562 -147,291 -427,597 -640,807 -214,209 -361,322 -375,380 -14,59 105,63 236,60 131,-3 274,-13 440,-66 166,-52 355,-147 359,-103 4,43 -177,224 -570,338 -392,114 -996,160 -1467,276 -334,82 -601,198 -804,316 1,-23 2,-46 3,-70 7,-89 19,-181 38,-275zm-23 728c165,94 380,187 647,253 385,94 878,132 1199,225 320,93 468,241 465,276 -3,35 -158,-42 -293,-85 -136,-42 -253,-51 -360,-53 -107,-2 -204,1 -192,49 11,47 132,139 306,310 174,171 403,421 523,659 120,237 131,463 105,459 -26,-3 -90,-235 -252,-445 -161,-211 -419,-400 -653,-519 -235,-119 -445,-169 -413,-79 32,90 307,318 540,503 234,185 426,327 443,360 16,34 -144,-40 -369,-166 -225,-125 -516,-303 -848,-602 -267,-241 -561,-560 -787,-826 -24,-95 -46,-202 -61,-319z"/> <path class="fil14" d="M13432 10753c224,-167 542,-345 912,-461 371,-117 794,-173 935,-111 141,62 0,244 -103,383 -103,138 -167,235 -54,350 112,115 402,247 481,316 78,68 -55,72 -181,76 -127,4 -248,8 -170,178 79,169 357,503 274,654 -82,151 -525,119 -895,-23 -369,-142 -665,-394 -804,-459 -139,-66 -121,55 -67,165 53,110 142,208 51,195 -91,-13 -360,-138 -534,-287 -173,-149 -249,-322 -223,-487 26,-165 155,-322 378,-489z"/> <path class="fil15" d="M13110 11086c194,-165 565,-365 873,-488 312,-125 560,-171 578,-147 18,24 -193,119 -346,211 -153,91 -248,180 -155,233 92,54 372,72 550,98 179,26 255,60 198,77 -58,17 -249,17 -454,14 -206,-3 -425,-9 -445,30 -20,38 159,120 355,231 196,111 410,250 410,280 0,30 -214,-48 -360,-102 -145,-53 -224,-81 -369,-127 -145,-47 -356,-111 -450,-89 -94,22 -69,131 0,336 30,88 67,193 96,289 -105,-53 -222,-124 -314,-203 -173,-149 -249,-322 -223,-487 8,-53 27,-104 56,-156z"/> </g> <path class="fil16" d="M8107 9628c96,0 173,78 173,173 0,95 -77,173 -173,173 -95,0 -172,-78 -172,-173 0,-95 77,-173 172,-173zm810 -1282c132,0 239,107 239,239 0,132 -107,239 -239,239 -132,0 -239,-107 -239,-239 0,-132 107,-239 239,-239zm-1128 -2733c154,0 279,125 279,279 0,153 -125,278 -279,278 -154,0 -279,-125 -279,-278 0,-154 125,-279 279,-279zm2176 504c110,0 199,89 199,199 0,110 -89,199 -199,199 -110,0 -199,-89 -199,-199 0,-110 89,-199 199,-199zm-3582 -982c139,0 252,113 252,252 0,140 -113,252 -252,252 -140,0 -253,-112 -253,-252 0,-139 113,-252 253,-252zm2308 -3583c184,0 332,149 332,332 0,183 -148,332 -332,332 -183,0 -331,-149 -331,-332 0,-183 148,-332 331,-332zm2893 797c389,0 703,315 703,703 0,388 -314,703 -703,703 -388,0 -703,-315 -703,-703 0,-388 315,-703 703,-703zm-1818 451c220,0 398,178 398,398 0,220 -178,398 -398,398 -220,0 -398,-178 -398,-398 0,-220 178,-398 398,-398zm-1818 610c433,0 783,351 783,783 0,432 -350,783 -783,783 -432,0 -783,-351 -783,-783 0,-432 351,-783 783,-783zm1327 1513c154,0 279,125 279,279 0,153 -125,278 -279,278 -154,0 -278,-125 -278,-278 0,-154 124,-279 278,-279zm-477 1380c227,0 411,184 411,411 0,227 -184,412 -411,412 -228,0 -412,-185 -412,-412 0,-227 184,-411 412,-411zm-876 1526c212,0 385,172 385,385 0,212 -173,384 -385,384 -213,0 -385,-172 -385,-384 0,-213 172,-385 385,-385zm-956 -1380c316,0 571,255 571,570 0,316 -255,571 -571,571 -315,0 -570,-255 -570,-571 0,-315 255,-570 570,-570z"/> <path class="fil4" d="M8167 9730c-6,0 -11,5 -11,11 0,7 5,12 11,12 6,0 11,-5 11,-12 0,-6 -5,-11 -11,-11zm810 -1282c-43,0 -78,35 -78,78 0,42 35,77 78,77 43,0 77,-35 77,-77 0,-43 -34,-78 -77,-78zm-1128 -2733c-65,0 -117,52 -117,117 0,65 52,117 117,117 65,0 117,-52 117,-117 0,-65 -52,-117 -117,-117zm2176 504c-21,0 -38,17 -38,37 0,21 17,38 38,38 21,0 38,-17 38,-38 0,-20 -17,-37 -38,-37zm-3583 -982c-50,0 -91,40 -91,91 0,50 41,90 91,90 50,0 91,-40 91,-90 0,-51 -41,-91 -91,-91zm2309 -3583c-94,0 -170,76 -170,171 0,94 76,170 170,170 94,0 171,-76 171,-170 0,-95 -77,-171 -171,-171zm2893 796c-299,0 -542,243 -542,542 0,300 243,542 542,542 299,0 542,-242 542,-542 0,-299 -243,-542 -542,-542zm-1818 451c-131,0 -237,106 -237,237 0,131 106,237 237,237 131,0 237,-106 237,-237 0,-131 -106,-237 -237,-237zm-1818 611c-343,0 -621,278 -621,621 0,344 278,622 621,622 343,0 622,-278 622,-622 0,-343 -279,-621 -622,-621zm1327 1513c-65,0 -117,52 -117,117 0,65 52,117 117,117 65,0 117,-52 117,-117 0,-65 -52,-117 -117,-117zm-478 1380c-138,0 -250,111 -250,250 0,138 112,250 250,250 138,0 250,-112 250,-250 0,-139 -112,-250 -250,-250zm-875 1525c-124,0 -224,100 -224,224 0,123 100,223 224,223 123,0 223,-100 223,-223 0,-124 -100,-224 -223,-224zm-956 -1380c-226,0 -409,184 -409,410 0,226 183,409 409,409 226,0 409,-183 409,-409 0,-226 -183,-410 -409,-410z"/> </g> </g> </svg>